<svg xmlns="http://www.w3.org/2000/svg" width="28.046" height="25.82" viewBox="0 0 28.046 25.82">
  <g id="Group_569" data-name="Group 569" transform="translate(1207.279 2071.621)">
    <path id="Path_871" data-name="Path 871" d="M-1158.373-2041.188q-.81,3.689-1.621,7.377-.707,3.216-1.418,6.431c-.191.858-.675,1.3-1.379,1.292s-1.182-.466-1.363-1.319c-.593-2.8-1.184-5.6-1.913-8.446-.146.321-.3.637-.437.963a1.382,1.382,0,0,1-1.506.955c-1.405-.107-2.812-.2-4.217-.311a1.048,1.048,0,0,1-1.083-1.013,1.041,1.041,0,0,1,1.064-1.029c1-.1,2-.15,2.995-.289a1.058,1.058,0,0,0,.71-.506c.582-1.281,1.112-2.586,1.641-3.89a1.368,1.368,0,0,1,1.465-1.014,1.391,1.391,0,0,1,1.242,1.286c.45,2.172.907,4.343,1.473,6.537.094-.368.2-.733.281-1.1q1.314-5.978,2.623-11.956c.2-.931.658-1.376,1.385-1.383s1.165.405,1.416,1.354c.885,3.344,1.774,6.687,2.637,10.037.125.485.323.718.845.738.762.029,1.522.134,2.282.211.694.071,1.156.495,1.113,1.069a1.056,1.056,0,0,1-1.081,1.034c-1.285.109-2.571.216-3.858.3a1.339,1.339,0,0,1-1.486-1.16c-.487-1.8-.957-3.6-1.437-5.394-.07-.263-.156-.522-.234-.784Z" transform="translate(-29.095 -19.713)" fill="#432968"/>
    <path id="Path_872" data-name="Path 872" d="M-1171.85-2035.772c-1.359,0-2.719.006-4.078,0-1-.006-1.592-.523-1.585-1.352s.6-1.329,1.609-1.331q4.078-.008,8.156,0c1.005,0,1.6.5,1.617,1.319.014.85-.6,1.362-1.642,1.365C-1169.131-2035.769-1170.491-2035.772-1171.85-2035.772Z" transform="translate(-25.496 -28.402)" fill="#432968"/>
    <path id="Path_873" data-name="Path 873" d="M-1171.757-2071.62c1.359,0,2.718,0,4.078,0,.956,0,1.535.495,1.551,1.3.017.834-.568,1.365-1.562,1.369q-4.113.015-8.227,0c-1,0-1.6-.52-1.592-1.346s.594-1.321,1.6-1.324C-1174.523-2071.623-1173.14-2071.62-1171.757-2071.62Z" transform="translate(-25.499)" fill="#432968"/>
    <path id="Path_874" data-name="Path 874" d="M-1174.945-2002.462c-.429,0-.859.02-1.287,0a1.307,1.307,0,0,1-1.277-1.282,1.257,1.257,0,0,1,1.205-1.338,26.215,26.215,0,0,1,2.786,0,1.254,1.254,0,0,1,1.173,1.3,1.3,1.3,0,0,1-1.242,1.316C-1174.038-2002.439-1174.492-2002.463-1174.945-2002.462Z" transform="translate(-25.499 -56.961)" fill="#432968"/>
    <path id="Path_875" data-name="Path 875" d="M-1204.594-2037.05a1.377,1.377,0,0,1-1.326,1.333,1.378,1.378,0,0,1-1.352-1.309,1.381,1.381,0,0,1,1.365-1.371A1.377,1.377,0,0,1-1204.594-2037.05Z" transform="translate(-0.006 -28.459)" fill="#432968"/>
    <path id="Path_876" data-name="Path 876" d="M-1205.9-2002.321a1.339,1.339,0,0,1-1.375-1.266,1.343,1.343,0,0,1,1.34-1.375,1.339,1.339,0,0,1,1.337,1.3A1.334,1.334,0,0,1-1205.9-2002.321Z" transform="translate(0 -57.097)" fill="#432968"/>
    <path id="Path_877" data-name="Path 877" d="M-1205.932-2071.584a1.356,1.356,0,0,1,1.355,1.288,1.353,1.353,0,0,1-1.349,1.367,1.359,1.359,0,0,1-1.323-1.326A1.354,1.354,0,0,1-1205.932-2071.584Z" transform="translate(-0.027 -0.031)" fill="#432968"/>
  </g>
</svg>
