<svg xmlns="http://www.w3.org/2000/svg" xmlns:xlink="http://www.w3.org/1999/xlink" width="164" height="164" viewBox="0 0 164 164">
  <defs>
    <linearGradient id="linear-gradient" x1="0.5" x2="0.5" y2="1" gradientUnits="objectBoundingBox">
      <stop offset="0" stop-color="#fc9433" stop-opacity="0.09"/>
      <stop offset="1" stop-color="#432968" stop-opacity="0.09"/>
    </linearGradient>
    <linearGradient id="linear-gradient-2" x1="0.5" x2="0.5" y2="1" gradientUnits="objectBoundingBox">
      <stop offset="0" stop-color="#432968"/>
      <stop offset="1" stop-color="#fc9433"/>
    </linearGradient>
  </defs>
  <g id="Group_507" data-name="Group 507" transform="translate(-989 -2262)">
    <circle id="Ellipse_189" data-name="Ellipse 189" cx="82" cy="82" r="82" transform="translate(989 2262)" opacity="0.9" fill="url(#linear-gradient)"/>
    <path id="Path_787" data-name="Path 787" d="M-2740.988-2160.233h-4.474c0-3.6-.093-7.125.05-10.641a2.165,2.165,0,0,1,2.448-1.984q14.719,0,29.438.005a2.356,2.356,0,0,1,2.625,2.643q.01,14.622,0,29.244a2.349,2.349,0,0,1-2.643,2.62c-2.377.02-4.756,0-7.4,0v13.327h-2.466v-17.759c1.991,0,4.021-.071,6.043.024,1.474.069,2.013-.368,2-1.949-.083-7.294-.034-14.589-.041-21.884,0-.5-.058-1-.1-1.621h-25.482Z" transform="translate(3824.714 4474.022)" fill="url(#linear-gradient-2)"/>
    <path id="Path_788" data-name="Path 788" d="M-2865.027-2145.752l-.008,4.474c-3.6-.007-7.125.08-10.641-.07a2.165,2.165,0,0,1-1.979-2.452q.029-14.718.06-29.437a2.356,2.356,0,0,1,2.648-2.62q14.622.017,29.244.055a2.35,2.35,0,0,1,2.615,2.648c.015,2.378,0,4.756-.009,7.4l13.327.025,0,2.467-17.759-.034c0-1.991-.062-4.021.035-6.043.071-1.474-.365-2.013-1.946-2-7.294.069-14.589.007-21.884,0-.5,0-1,.056-1.621.093l-.048,25.483Z" transform="translate(3905.656 4475.858)" fill="url(#linear-gradient-2)"/>
    <path id="Path_789" data-name="Path 789" d="M-2779.488-2016.322c-.474-1.835-.032-2.465,1.615-2.436,4.778.084,9.559.026,14.338.037.5,0,1,.085,1.747.152v7.881h25.338v-25.448h-7.918v-4.537q3.741,0,7.467,0c5.137,0,5.144,0,5.14,5.108q-.007,13.175-.032,26.35c0,2.4-.7,3.147-3.084,3.153q-14.146.032-28.291,0c-2.42-.005-3.023-.675-3.038-3.143-.01-1.744-.082-3.493.02-5.23.084-1.436-.419-1.948-1.868-1.91-3.1.082-6.2.024-9.3.023Z" transform="translate(3845.644 4393.066)" fill="url(#linear-gradient-2)"/>
    <path id="Path_790" data-name="Path 790" d="M-2847.369-2039.343h4.589c0,3.581.092,7.05-.04,10.511-.064,1.669-1.371,2.12-2.9,2.115-7.357-.021-14.715-.009-22.072-.009-2.129,0-4.259.012-6.389,0-2.383-.018-3.116-.712-3.125-3.128-.025-6.84-.006-13.681-.006-20.522,0-2.644-.035-5.288.011-7.93.04-2.322.6-2.888,2.874-2.935,2.366-.048,4.735-.011,7.306-.011v-13.294h2.428v17.691c-2.2,0-4.373.026-6.542-.012-.976-.017-1.619.167-1.614,1.343.033,7.869.04,15.739.061,23.608a2.174,2.174,0,0,0,.186.511h25.237Z" transform="translate(3905.455 4413.813)" fill="url(#linear-gradient-2)"/>
    <path id="Path_791" data-name="Path 791" d="M-2810.542-2003.868v-2.541h2.358c10.907,0,21.815-.017,32.722.022a2.521,2.521,0,0,0,2.729-1.5,5.262,5.262,0,0,1,5.679-2.713c2.852.771,4.579,2.869,4.527,5.5a5.384,5.384,0,0,1-3.915,5.174,5.24,5.24,0,0,1-6.3-2.5c-.664-1.33-1.522-1.465-2.76-1.462q-16.361.043-32.722.017Zm42.58,1.669a3.031,3.031,0,0,0,3-2.92,3.194,3.194,0,0,0-3.1-3.071,3.009,3.009,0,0,0-2.911,3.174A2.832,2.832,0,0,0-2767.962-2002.2Z" transform="translate(3864.552 4374.73)" fill="url(#linear-gradient-2)"/>
    <path id="Path_792" data-name="Path 792" d="M-2708.31-2094.057h-2.613c0-3.431,0-6.771,0-10.11.011-8.391,0-16.781.062-25.171a2.164,2.164,0,0,0-1.43-2.336,5.368,5.368,0,0,1-2.792-6.369,5.251,5.251,0,0,1,5.169-3.884,5.323,5.323,0,0,1,5.43,3.815,5.414,5.414,0,0,1-2.568,6.3,2.3,2.3,0,0,0-1.3,2.461q.052,16.555.044,33.11C-2708.309-2095.547-2708.31-2094.851-2708.31-2094.057Zm-1.531-45.487a3.162,3.162,0,0,0-2.972,3.185,3.25,3.25,0,0,0,3.075,2.909,3.017,3.017,0,0,0,2.875-3.2A2.945,2.945,0,0,0-2709.84-2139.543Z" transform="translate(3806.209 4455.078)" fill="url(#linear-gradient-2)"/>
    <path id="Path_793" data-name="Path 793" d="M-2801.646-2138.92v2.614c-3.43,0-6.77,0-10.111,0-8.39-.011-16.781,0-25.171-.062a2.163,2.163,0,0,0-2.336,1.43,5.369,5.369,0,0,1-6.369,2.791,5.251,5.251,0,0,1-3.884-5.168,5.324,5.324,0,0,1,3.816-5.43,5.414,5.414,0,0,1,6.3,2.568,2.3,2.3,0,0,0,2.461,1.3q16.556-.053,33.11-.044Zm-45.486,1.531a3.162,3.162,0,0,0,3.185,2.972,3.251,3.251,0,0,0,2.909-3.076,3.016,3.016,0,0,0-3.2-2.874A2.944,2.944,0,0,0-2847.132-2137.389Z" transform="translate(3888.422 4455.711)" fill="url(#linear-gradient-2)"/>
    <path id="Path_794" data-name="Path 794" d="M-2842.584-2105.566h2.527v2.17q0,16.452-.014,32.906c0,1.149.093,1.952,1.364,2.571a5.244,5.244,0,0,1,2.814,5.992,5.352,5.352,0,0,1-5.321,4.208,5.332,5.332,0,0,1-5.43-4.063,5.292,5.292,0,0,1,2.636-6.059,2.391,2.391,0,0,0,1.445-2.55c-.036-10.969-.021-21.938-.02-32.907Zm4.293,42.348a3.144,3.144,0,0,0-2.969-2.995,3.043,3.043,0,0,0-3.011,3.113,2.941,2.941,0,0,0,3.133,2.938A2.994,2.994,0,0,0-2838.291-2063.218Z" transform="translate(3886.785 4432.809)" fill="url(#linear-gradient-2)"/>
    <path id="Path_795" data-name="Path 795" d="M-2753.771-2036.33h-7.918v8.03h-17.868c-.037-.722-.074-1.444-.122-2.369h13.465c0-2.4-.01-4.624,0-6.847.014-2.721.545-3.272,3.264-3.3,2.321-.028,4.648.095,6.963-.029,1.808-.1,2.455.6,2.227,2.339A18.7,18.7,0,0,0-2753.771-2036.33Z" transform="translate(3845.651 4393.18)" fill="url(#linear-gradient-2)"/>
    <path id="Path_796" data-name="Path 796" d="M-2820.708-2056.72v-17.78h2.466v13.227c2.542,0,4.9,0,7.261,0,2.05,0,2.888.744,2.91,2.7.035,3.155.009,6.31.009,9.619h-4.488v-7.764Z" transform="translate(3870.779 4413.783)" fill="url(#linear-gradient-2)"/>
    <path id="Path_797" data-name="Path 797" d="M-2732.949-2089.882l-2.416.113c0-1.53,0-2.978,0-4.426,0-2.451-.048-4.9.017-7.353.033-1.259-.444-1.73-1.691-1.7-2,.057-4-.019-6,.01a2.231,2.231,0,0,1-2.561-2.28c-.105-3.274-.032-6.554-.032-9.977h4.472c0,1.982.069,4.02-.024,6.05-.061,1.337.389,1.872,1.749,1.81a40.038,40.038,0,0,1,5.026.04c.51.041,1.39.659,1.4,1.025C-2732.922-2101.039-2732.949-2095.512-2732.949-2089.882Z" transform="translate(3824.814 4438.886)" fill="url(#linear-gradient-2)"/>
    <path id="Path_798" data-name="Path 798" d="M-2808.205-2113.178c0,2.435.043,4.556-.011,6.674-.061,2.405-.773,3.091-3.154,3.118-2.513.029-5.029-.058-7.539.039-1.945.074-1.693-1.182-1.787-2.427-.109-1.443.538-1.772,1.818-1.7,1.478.083,2.972-.076,4.443.043,1.6.13,2.018-.566,1.929-2.023-.093-1.541.015-3.093-.027-4.638-.03-1.072.406-1.5,1.485-1.494,4.832.028,9.666-.018,14.5.056.509.007,1.01.63,1.514.968-.535.385-1.058,1.082-1.605,1.1-2.96.112-5.927.042-8.891.067C-2806.355-2113.386-2807.176-2113.265-2808.205-2113.178Z" transform="translate(3870.779 4438.947)" fill="url(#linear-gradient-2)"/>
    <text id="IoTeX" transform="translate(1058.015 2348.814)" fill="#432968" font-size="11" font-family="SegoeUI, Segoe UI"><tspan x="0" y="0">IoTeX</tspan></text>
  </g>
</svg>
