<svg xmlns="http://www.w3.org/2000/svg" width="23.4" height="33.845" viewBox="0 0 23.4 33.845">
  <g id="Group_577" data-name="Group 577" transform="translate(10559.9 -153.313)">
    <path id="Path_850" data-name="Path 850" d="M1286.481,654.743c.009-.053.025-.168.048-.28a1.236,1.236,0,0,0-.558-1.423.936.936,0,0,1-.368-1.461,1.209,1.209,0,0,0-.2-1.441c-.516-.6-.514-.891.006-1.5a1.205,1.205,0,0,0,.164-1.479.919.919,0,0,1,.365-1.393,1.233,1.233,0,0,0,.584-1.45.919.919,0,0,1,.713-1.222,1.245,1.245,0,0,0,.965-1.232c.057-.722.3-.978,1.024-1.008a1.229,1.229,0,0,0,1.19-.9c.278-.751.526-.885,1.311-.744a1.208,1.208,0,0,0,1.362-.6.9.9,0,0,1,1.351-.393,1.256,1.256,0,0,0,1.589-.2.9.9,0,0,1,1.409,0,1.254,1.254,0,0,0,1.552.211.9.9,0,0,1,1.378.391,1.235,1.235,0,0,0,1.41.581c.688-.136,1,.028,1.229.682a1.286,1.286,0,0,0,1.317.971.821.821,0,0,1,.91.844,1.432,1.432,0,0,0,1.158,1.461.827.827,0,0,1,.544,1.083,1.3,1.3,0,0,0,.654,1.575.87.87,0,0,1,.321,1.271,1.222,1.222,0,0,0,.2,1.616.9.9,0,0,1-.019,1.378,1.212,1.212,0,0,0-.2,1.58.877.877,0,0,1-.323,1.3,1.31,1.31,0,0,0-.635,1.585.841.841,0,0,1-.643,1.1,1.341,1.341,0,0,0-1.053,1.353.866.866,0,0,1-.978.918,1.239,1.239,0,0,0-1.23.9c-.27.736-.526.874-1.316.729a1.26,1.26,0,0,0-1.344.575c-.417.639-.744.738-1.4.408a1.269,1.269,0,0,0-1.52.192c-.559.481-.9.488-1.44.012a1.312,1.312,0,0,0-1.527-.2c-.658.3-1.012.208-1.389-.377a1.207,1.207,0,0,0-1.364-.6c-.76.137-1.047,0-1.3-.71a1.291,1.291,0,0,0-1.257-.939c-.672-.04-.924-.294-.967-.965a1.306,1.306,0,0,0-1.02-1.287A.883.883,0,0,1,1286.481,654.743Zm19.31-5.263a9.07,9.07,0,1,0-9.169,8.906A9.023,9.023,0,0,0,1305.791,649.48Z" transform="translate(-11844.922 -484.371)" fill="#432968"/>
    <path id="Path_851" data-name="Path 851" d="M1322.515,903.433l2.184-8.588a1.117,1.117,0,0,0,1.372.522,1.153,1.153,0,0,1,1.276.61.893.893,0,0,0,1.349.378,1.32,1.32,0,0,1,1.563.2.9.9,0,0,0,1.409.01,1.243,1.243,0,0,1,1.585-.2.878.878,0,0,0,1.341-.389,1.194,1.194,0,0,1,1.324-.6,1.128,1.128,0,0,0,1.195-.3l2.241,9.321c-.741-.316-1.408-.6-2.073-.886-.728-.314-1.47-.6-2.175-.959-.37-.188-.518-.068-.716.219-.777,1.128-1.575,2.242-2.365,3.361-.049.069-.1.133-.223.284l-1.406-5.805-.093.007-1.158,4.517-2.647-3.609Z" transform="translate(-11879.167 -719.249)" fill="#fc9433"/>
    <path id="Path_852" data-name="Path 852" d="M1335.57,696.977a7.944,7.944,0,1,1,8.048-7.92A7.984,7.984,0,0,1,1335.57,696.977Zm3.705-2.343c-.052-.239-.073-.364-.108-.486-.325-1.152-.633-2.31-.99-3.451a.531.531,0,0,1,.234-.68c.977-.766,1.941-1.548,2.908-2.326.1-.082.191-.179.359-.34-1.473,0-2.828-.006-4.182.005a.4.4,0,0,1-.465-.326c-.22-.686-.469-1.363-.71-2.043-.223-.629-.449-1.256-.7-1.97-.076.18-.12.267-.151.358-.414,1.214-.836,2.426-1.231,3.647a.4.4,0,0,1-.455.334c-1.227-.01-2.455,0-3.682,0h-.471c.967.848,1.946,1.584,2.929,2.314.652.484.656.48.428,1.235-.075.249-.157.5-.232.744-.293.975-.584,1.95-.908,3.033,1.205-.817,2.323-1.556,3.417-2.328a.543.543,0,0,1,.753.02C1337.056,693.118,1338.12,693.835,1339.275,694.633Z" transform="translate(-11883.8 -524.016)" fill="#432968"/>
    <path id="Path_853" data-name="Path 853" d="M1360.777,714.946c-1.156-.8-2.219-1.516-3.261-2.263a.543.543,0,0,0-.753-.02c-1.095.772-2.212,1.511-3.417,2.328.324-1.083.615-2.058.908-3.033.075-.249.157-.5.232-.744.228-.755.224-.751-.428-1.235-.983-.73-1.961-1.466-2.929-2.314h.471c1.227,0,2.455-.007,3.682,0a.4.4,0,0,0,.455-.334c.395-1.221.817-2.432,1.231-3.647.031-.091.074-.178.151-.358.256.714.482,1.341.7,1.97.241.68.49,1.356.71,2.043a.4.4,0,0,0,.465.326c1.354-.012,2.709-.005,4.182-.005-.169.16-.258.258-.359.34-.967.778-1.931,1.56-2.908,2.326a.531.531,0,0,0-.234.68c.357,1.142.665,2.3.99,3.451C1360.7,714.582,1360.725,714.707,1360.777,714.946Z" transform="translate(-11905.302 -544.328)" fill="#fff"/>
  </g>
</svg>
