<svg xmlns="http://www.w3.org/2000/svg" xmlns:xlink="http://www.w3.org/1999/xlink" width="50" height="50" viewBox="0 0 50 50">
  <defs>
    <linearGradient id="linear-gradient" x1="0.5" x2="0.5" y2="1" gradientUnits="objectBoundingBox">
      <stop offset="0" stop-color="#fc9433" stop-opacity="0.09"/>
      <stop offset="1" stop-color="#432968" stop-opacity="0.09"/>
    </linearGradient>
  </defs>
  <g id="Group_579" data-name="Group 579" transform="translate(-1005 -586)">
    <circle id="Ellipse_223" data-name="Ellipse 223" cx="25" cy="25" r="25" transform="translate(1005 586)" opacity="0.9" fill="url(#linear-gradient)"/>
    <g id="Group_565" data-name="Group 565" transform="translate(330.396 1881.201)">
      <path id="Path_859" data-name="Path 859" d="M696.957-1274.959a7.2,7.2,0,0,0-.985.475c-1.159.845-2.314,1.7-3.448,2.576-.583.451-1.183.5-1.585.036a.977.977,0,0,1,.134-1.5c6.681-6.41,15.31-6.418,22.006-.135a1.1,1.1,0,0,1,.177,1.652c-.417.438-1.009.4-1.576-.125a16.572,16.572,0,0,0-4.328-2.974c.8,2.781.363,5.093-1.857,6.833a5.3,5.3,0,0,1-3.9,1.1,5.429,5.429,0,0,1-4.3-2.724A6.125,6.125,0,0,1,696.957-1274.959Zm7.776,1.642a.98.98,0,0,0-1.079.97.93.93,0,0,0,.967,1.052.919.919,0,0,0,1.016-.921A.97.97,0,0,0,704.733-1273.317Z" transform="translate(-2.546)" fill="#432968"/>
      <path id="Path_860" data-name="Path 860" d="M699.567-1220.82c-4.631-.05-8.358-2.13-11.571-5.324a.954.954,0,0,1-.045-1.505c.5-.47,1-.34,1.518.093a29.437,29.437,0,0,0,3.366,2.682,12.066,12.066,0,0,0,13.524-.032,28.087,28.087,0,0,0,3.013-2.347c.639-.526,1.205-.609,1.64-.1.5.59.245,1.091-.243,1.554C707.63-1222.825,704.032-1220.888,699.567-1220.82Z" transform="translate(0 -42.058)" fill="#432968"/>
    </g>
  </g>
</svg>
