<svg xmlns="http://www.w3.org/2000/svg" xmlns:xlink="http://www.w3.org/1999/xlink" width="50" height="50" viewBox="0 0 50 50">
  <defs>
    <linearGradient id="linear-gradient" x1="0.5" x2="0.5" y2="1" gradientUnits="objectBoundingBox">
      <stop offset="0" stop-color="#fc9433" stop-opacity="0.09"/>
      <stop offset="1" stop-color="#432968" stop-opacity="0.09"/>
    </linearGradient>
  </defs>
  <g id="Group_581" data-name="Group 581" transform="translate(-1169 -586)">
    <circle id="Ellipse_225" data-name="Ellipse 225" cx="25" cy="25" r="25" transform="translate(1169 586)" opacity="0.9" fill="url(#linear-gradient)"/>
    <g id="Group_566" data-name="Group 566" transform="translate(3151.777 1784.525)">
      <path id="Path_861" data-name="Path 861" d="M-1951.085-1161.13h-13.343a.993.993,0,0,0-.154-.049,3.784,3.784,0,0,1-3.194-3.714q0-8.446,0-16.891a3.781,3.781,0,0,1,3.734-3.739q4.61,0,9.22,0a2.819,2.819,0,0,1,2.035.846q2.1,2.081,4.178,4.177a2.876,2.876,0,0,1,.872,2.1q0,6.742,0,13.484a3.781,3.781,0,0,1-2.846,3.665C-1950.749-1161.209-1950.917-1161.171-1951.085-1161.13Zm-3.616-22.48c-.079-.009-.117-.017-.156-.017-3.058,0-6.115-.006-9.173.009a1.868,1.868,0,0,0-1.843,1.891q0,8.4,0,16.8a1.941,1.941,0,0,0,.082.561,1.922,1.922,0,0,0,1.975,1.337q4.718,0,9.435,0c.961,0,1.922,0,2.883-.007a1.83,1.83,0,0,0,1.215-.476,2.062,2.062,0,0,0,.662-1.667q0-6.516,0-13.033c0-.095-.013-.189-.017-.285-.007-.178-.09-.239-.273-.236-.683.011-1.366.015-2.049,0a2.7,2.7,0,0,1-2.275-1.221,2.6,2.6,0,0,1-.466-1.523C-1954.7-1182.182-1954.7-1182.887-1954.7-1183.61Z" fill="#432968"/>
      <path id="Path_862" data-name="Path 862" d="M-1880.865-934.1c-1.651,0-3.3,0-4.953,0a1.133,1.133,0,0,1-1.085-.6,1.115,1.115,0,0,1,1.021-1.64c.968-.008,1.937,0,2.905,0q3.536,0,7.072,0a1.116,1.116,0,0,1,1.2,1.183,1.1,1.1,0,0,1-.944,1.037,2.816,2.816,0,0,1-.356.016Z" transform="translate(-76.889 -237.314)" fill="#432968"/>
      <path id="Path_863" data-name="Path 863" d="M-1880.62-832.09q-2.476,0-4.953,0a1.107,1.107,0,0,1-1.193-1.136,1.111,1.111,0,0,1,1.138-1.1c.524-.006,1.048,0,1.572,0h8.405a1.116,1.116,0,0,1,1.2,1.176,1.1,1.1,0,0,1-.96,1.046,2.9,2.9,0,0,1-.333.014Z" transform="translate(-77.151 -334.46)" fill="#432968"/>
      <path id="Path_864" data-name="Path 864" d="M-1883.024-1036.114c-.952,0-1.905.008-2.857,0a1.111,1.111,0,0,1-1.082-1.521,1.066,1.066,0,0,1,1.035-.708q2.917-.016,5.833,0a1.112,1.112,0,0,1,1.121,1.118,1.1,1.1,0,0,1-1.123,1.112C-1881.072-1036.105-1882.048-1036.114-1883.024-1036.114Z" transform="translate(-76.883 -140.158)" fill="#432968"/>
    </g>
  </g>
</svg>
