<svg xmlns="http://www.w3.org/2000/svg" xmlns:xlink="http://www.w3.org/1999/xlink" width="1197.57" height="535.077" viewBox="0 0 1197.57 535.077">
  <defs>
    <linearGradient id="linear-gradient" x1="0.5" x2="0.915" y2="1" gradientUnits="objectBoundingBox">
      <stop offset="0" stop-color="#fff"/>
      <stop offset="1" stop-color="#f5b2a4"/>
    </linearGradient>
  </defs>
  <g id="Group_506" data-name="Group 506" transform="translate(-171.194 -59.661)">
    <ellipse id="Ellipse_172" data-name="Ellipse 172" cx="9.521" cy="23.115" rx="9.521" ry="23.115" transform="translate(978.15 487.722) rotate(-45)" fill="#e2ada6" opacity="0.25" style="isolation: isolate"/>
    <g id="Group_475" data-name="Group 475" transform="translate(-57.728 3004)">
      <ellipse id="Ellipse_182" data-name="Ellipse 182" cx="2.996" cy="3.919" rx="2.996" ry="3.919" transform="translate(1055.758 -2510.983)" fill="#3f3d56"/>
      <ellipse id="Ellipse_183" data-name="Ellipse 183" cx="2.996" cy="3.919" rx="2.996" ry="3.919" transform="translate(1055.758 -2515.776)" fill="#3f3d56"/>
      <ellipse id="Ellipse_179" data-name="Ellipse 179" cx="2.996" cy="3.919" rx="2.996" ry="3.919" transform="translate(1055.758 -2520.565)" fill="#3f3d56"/>
      <ellipse id="Ellipse_180" data-name="Ellipse 180" cx="2.996" cy="3.919" rx="2.996" ry="3.919" transform="translate(1055.758 -2525.354)" fill="#3f3d56"/>
      <ellipse id="Ellipse_175" data-name="Ellipse 175" cx="2.996" cy="3.919" rx="2.996" ry="3.919" transform="translate(1055.758 -2530.147)" fill="#3f3d56"/>
    </g>
    <path id="Path_651" data-name="Path 651" d="M4193.123,1.6s-71.5,144.461,88.541,184.831,281.147,11.534,353.236,95.157,339.923,65.61,339.923,65.61" transform="translate(-3607.123 59.4)" fill="none" stroke="#e2ada6" stroke-linecap="round" stroke-width="2" stroke-dasharray="4 8"/>
    <path id="Path_682" data-name="Path 682" d="M4482.013,519.119l96.995,31.892,119.438-24.967,97.781,8.917-5.907-8.917-91.875-11.889L4579.007,530.8l-92.532-25.561Z" transform="translate(-3806.771 -41.389)" fill="#2f2e41" opacity="0.18"/>
    <path id="Subtraction_10" data-name="Subtraction 10" d="M14.216,15.066H2.145A2,2,0,0,1,.4,12.094L6.432,1.242a2,2,0,0,1,3.5,0l6.035,10.852a2,2,0,0,1-1.748,2.972ZM8.18,2.394A1.971,1.971,0,0,0,6.419,3.447l-4.1,7.637a2,2,0,0,0,1.761,2.947h8.21a2,2,0,0,0,1.761-2.947l-4.1-7.637A1.973,1.973,0,0,0,8.18,2.394Z" transform="matrix(0.485, 0.875, -0.875, 0.485, 894.702, 290.392)" fill="url(#linear-gradient)"/>
    <ellipse id="Ellipse_174" data-name="Ellipse 174" cx="5.111" cy="6.692" rx="5.111" ry="6.692" transform="translate(1110.896 510.613)" fill="#3f3d56"/>
    <ellipse id="Ellipse_167" data-name="Ellipse 167" cx="5.111" cy="6.692" rx="5.111" ry="6.692" transform="translate(1110.896 502.435)" fill="#3f3d56"/>
    <ellipse id="Ellipse_165" data-name="Ellipse 165" cx="5.111" cy="6.692" rx="5.111" ry="6.692" transform="translate(1110.896 494.257)" fill="#3f3d56"/>
    <ellipse id="Ellipse_158" data-name="Ellipse 158" cx="5.111" cy="6.692" rx="5.111" ry="6.692" transform="translate(1110.896 486.079)" fill="#3f3d56"/>
    <ellipse id="Ellipse_159" data-name="Ellipse 159" cx="5.111" cy="6.692" rx="5.111" ry="6.692" transform="translate(1110.896 477.9)" fill="#3f3d56"/>
    <path id="Path_661" data-name="Path 661" d="M-29.294-1938.409a24.361,24.361,0,0,0,1.905-2.8l-13.432-2.205,14.527.1a24.548,24.548,0,0,0,.476-19.4L-45.3-1952.6l17.961-13.213a24.487,24.487,0,0,0-33.451-8.954,24.486,24.486,0,0,0-8.954,33.451,24.423,24.423,0,0,0,1.968,2.9,24.352,24.352,0,0,0-2.791,4.463l17.433,9.05-18.576-6.24a24.505,24.505,0,0,0,3.949,22.991,24.481,24.481,0,0,0,4.107,34.378,24.481,24.481,0,0,0,34.378-4.107,24.481,24.481,0,0,0,0-30.271,24.486,24.486,0,0,0,0-30.274Z" transform="translate(1049.563 2347.036)" fill="#697f64"/>
    <path id="Path_675" data-name="Path 675" d="M-73-1863.437a24.368,24.368,0,0,0,5.239,15.137,24.481,24.481,0,0,0,4.107,34.378,24.482,24.482,0,0,0,34.378-4.107,24.482,24.482,0,0,0,0-30.271C-26-1852.463-73-1866.185-73-1863.437Z" transform="translate(1049.546 2287.201)" opacity="0.1" style="isolation: isolate"/>
    <path id="Path_659" data-name="Path 659" d="M-510.664-2380v291.48l-98.779-13.764-120.078,24.5-.968.2L-826.03-2103.9v-253.426L-726.846-2380l108.5,22.671,4.125-.87Z" transform="translate(1501.272 2582.229)" fill="#e2ada6"/>
    <path id="Path_660" data-name="Path 660" d="M-502.861-2340.68v260.8L-591.24-2092.2l-107.439,21.918-.866.174-85.485-23.541V-2320.4l88.748-20.282,97.071,20.282,3.692-.778Z" transform="translate(1476.871 2558.827)" fill="#fff"/>
    <path id="Path_662" data-name="Path 662" d="M-467.562-2102.284l-120.078,24.5L-584.964-2380l108.5,22.671,4.125-.87Z" transform="translate(1359.39 2582.229)" opacity="0.1" style="isolation: isolate"/>
    <g id="Group_481" data-name="Group 481" transform="translate(-204 3004)">
      <path id="Path_138" data-name="Path 138" d="M-320.65-2242l.049,84.813h35.221V-2192h60.32l7.085-9.084" transform="translate(1395.986 -503.904)" fill="none" stroke="#444053" stroke-miterlimit="10" stroke-width="3" opacity="0.22"/>
      <line id="Line_7" data-name="Line 7" y1="50.321" transform="translate(1047.341 -2601.5)" fill="none" stroke="#444053" stroke-miterlimit="10" stroke-width="3" opacity="0.22"/>
      <line id="Line_8" data-name="Line 8" x1="84.51" y2="0.702" transform="translate(1093.5 -2575.202)" fill="none" stroke="#444053" stroke-miterlimit="10" stroke-width="3" opacity="0.22"/>
      <line id="Line_9" data-name="Line 9" y2="194.725" transform="translate(1151.655 -2745.904)" fill="none" stroke="#444053" stroke-miterlimit="10" stroke-width="3" opacity="0.22"/>
      <line id="Line_10" data-name="Line 10" x2="282.169" transform="translate(895.841 -2592.415)" fill="none" stroke="#444053" stroke-miterlimit="10" stroke-width="3" opacity="0.22"/>
      <line id="Line_11" data-name="Line 11" y1="194.725" transform="translate(923.75 -2745.904)" fill="none" stroke="#444053" stroke-miterlimit="10" stroke-width="3" opacity="0.22"/>
      <line id="Line_12" data-name="Line 12" y2="194.725" transform="translate(993.292 -2745.904)" fill="none" stroke="#444053" stroke-miterlimit="10" stroke-width="3" opacity="0.22"/>
      <line id="Line_13" data-name="Line 13" x2="142.254" transform="translate(896.246 -2696.716)" fill="none" stroke="#444053" stroke-miterlimit="10" stroke-width="3" opacity="0.22"/>
      <line id="Line_45" data-name="Line 45" x2="282.254" transform="translate(896.246 -2745.551)" fill="none" stroke="#444053" stroke-miterlimit="10" stroke-width="3" opacity="0.22"/>
      <line id="Line_46" data-name="Line 46" x2="282.254" transform="translate(895.354 -2551.967)" fill="none" stroke="#444053" stroke-miterlimit="10" stroke-width="3" opacity="0.22"/>
      <line id="Line_14" data-name="Line 14" y2="194.373" transform="translate(955.08 -2745.551)" fill="none" stroke="#444053" stroke-miterlimit="10" stroke-width="3" opacity="0.22"/>
      <path id="Path_140" data-name="Path 140" d="M-806.03-2009.18h105.953l54.049,59.235" transform="translate(1701.871 -642.471)" fill="none" stroke="#444053" stroke-miterlimit="10" stroke-width="3" opacity="0.22"/>
      <line id="Line_15" data-name="Line 15" y2="134.404" transform="translate(1038.5 -2745.904)" fill="none" stroke="#444053" stroke-miterlimit="10" stroke-width="3" opacity="0.22"/>
      <line id="Line_16" data-name="Line 16" x2="84.51" y2="0.467" transform="translate(1093.5 -2622.5)" fill="none" stroke="#444053" stroke-miterlimit="10" stroke-width="3" opacity="0.22"/>
    </g>
    <path id="Path_663" data-name="Path 663" d="M-368.142-1964.485H-409.03V-1982.3l38.662-.2,2.429,6.882Z" transform="translate(1253.088 2345.65)" fill="#c5928b"/>
    <path id="Path_664" data-name="Path 664" d="M-390.931-2166a22.38,22.38,0,0,0-22.379,22.379c0,12.36,22.379,52.515,22.379,52.515s22.379-40.139,22.379-52.515A22.38,22.38,0,0,0-390.931-2166Zm0,31.925a9.845,9.845,0,0,1-9.846-9.845,9.845,9.845,0,0,1,9.846-9.846,9.845,9.845,0,0,1,9.846,9.846,9.845,9.845,0,0,1-9.846,9.841Z" transform="translate(1255.635 2454.864)" fill="#d9a69f"/>
    <path id="Path_665" data-name="Path 665" d="M-390.931-2166c-12.36,0-22.379,8.4-22.379,18.769s22.379,44.043,22.379,44.043,22.379-33.664,22.379-44.043S-378.571-2166-390.931-2166Zm0,26.775c-5.438,0-9.846-3.7-9.846-8.257s4.408-8.258,9.846-8.258,9.846,3.7,9.846,8.258-4.409,8.254-9.846,8.254Z" transform="translate(1255.635 2466.945)" fill="#e2ada6" opacity="0.1" style="isolation: isolate"/>
    <path id="Path_666" data-name="Path 666" d="M-390.931-2158c-12.36,0-22.379,9.686-22.379,21.634s22.379,50.765,22.379,50.765,22.379-38.8,22.379-50.765C-368.552-2148.314-378.571-2158-390.931-2158Zm0,30.861a9.685,9.685,0,0,1-9.846-9.517,9.685,9.685,0,0,1,9.846-9.517,9.685,9.685,0,0,1,9.846,9.517,9.686,9.686,0,0,1-9.846,9.513Z" transform="translate(1255.635 2451.787)" fill="#c5928b"/>
    <ellipse id="Ellipse_181" data-name="Ellipse 181" cx="13.542" cy="5.579" rx="13.542" ry="5.579" transform="matrix(0.918, -0.396, 0.396, 0.918, 840.268, 499.375)" fill="#e2ada6" opacity="0.25" style="isolation: isolate"/>
    <g id="Group_474" data-name="Group 474" transform="translate(-204 3004)">
      <ellipse id="Ellipse_182-2" data-name="Ellipse 182" cx="2.996" cy="3.919" rx="2.996" ry="3.919" transform="translate(1055.758 -2510.983)" fill="#3f3d56"/>
      <ellipse id="Ellipse_183-2" data-name="Ellipse 183" cx="2.996" cy="3.919" rx="2.996" ry="3.919" transform="translate(1055.758 -2515.776)" fill="#3f3d56"/>
      <ellipse id="Ellipse_179-2" data-name="Ellipse 179" cx="2.996" cy="3.919" rx="2.996" ry="3.919" transform="translate(1055.758 -2520.565)" fill="#3f3d56"/>
      <ellipse id="Ellipse_180-2" data-name="Ellipse 180" cx="2.996" cy="3.919" rx="2.996" ry="3.919" transform="translate(1055.758 -2525.354)" fill="#3f3d56"/>
      <ellipse id="Ellipse_175-2" data-name="Ellipse 175" cx="2.996" cy="3.919" rx="2.996" ry="3.919" transform="translate(1055.758 -2530.147)" fill="#3f3d56"/>
    </g>
    <ellipse id="Ellipse_176" data-name="Ellipse 176" cx="2.996" cy="3.919" rx="2.996" ry="3.919" transform="translate(851.758 469.063)" fill="#3f3d56"/>
    <ellipse id="Ellipse_168" data-name="Ellipse 168" cx="2.996" cy="3.919" rx="2.996" ry="3.919" transform="translate(851.758 464.274)" fill="#3f3d56"/>
    <path id="Path_676" data-name="Path 676" d="M-414.814-1838.156a14.589,14.589,0,0,1-1.117-1.619l7.87-1.3-8.5.065a14.386,14.386,0,0,1-.275-11.364l11.416,5.9-10.526-7.74a14.343,14.343,0,0,1,19.6-5.24,14.343,14.343,0,0,1,5.24,19.6,14.334,14.334,0,0,1-1.149,1.7,14.4,14.4,0,0,1,1.619,2.615l-10.206,5.307,10.89-3.643a14.351,14.351,0,0,1-2.312,13.469,14.344,14.344,0,0,1-2.4,20.142,14.343,14.343,0,0,1-20.142-2.4,14.343,14.343,0,0,1,0-17.738,14.347,14.347,0,0,1,0-17.736Z" transform="translate(1258.358 2273.561)" fill="#697f64"/>
    <path id="Path_677" data-name="Path 677" d="M-389.2-1782.455a14.282,14.282,0,0,1-3.069,8.87,14.344,14.344,0,0,1-2.4,20.141,14.344,14.344,0,0,1-20.142-2.4,14.343,14.343,0,0,1,0-17.737C-416.737-1776.014-389.2-1784.05-389.2-1782.455Z" transform="translate(1258.358 2226.714)" opacity="0.1" style="isolation: isolate"/>
    <ellipse id="Ellipse_169" data-name="Ellipse 169" cx="8.093" cy="19.647" rx="8.093" ry="19.647" transform="translate(647.622 475.249) rotate(-45)" fill="#e2ada6" opacity="0.25" style="isolation: isolate"/>
    <ellipse id="Ellipse_177" data-name="Ellipse 177" cx="4.344" cy="5.688" rx="4.344" ry="5.688" transform="translate(664.283 473.326)" fill="#3f3d56"/>
    <ellipse id="Ellipse_170" data-name="Ellipse 170" cx="4.344" cy="5.688" rx="4.344" ry="5.688" transform="translate(664.283 466.375)" fill="#3f3d56"/>
    <ellipse id="Ellipse_171" data-name="Ellipse 171" cx="4.344" cy="5.688" rx="4.344" ry="5.688" transform="translate(664.283 459.424)" fill="#3f3d56"/>
    <ellipse id="Ellipse_166" data-name="Ellipse 166" cx="4.344" cy="5.688" rx="4.344" ry="5.688" transform="translate(664.283 452.473)" fill="#3f3d56"/>
    <ellipse id="Ellipse_160" data-name="Ellipse 160" cx="4.344" cy="5.688" rx="4.344" ry="5.688" transform="translate(664.283 445.522)" fill="#3f3d56"/>
    <ellipse id="Ellipse_161" data-name="Ellipse 161" cx="4.344" cy="5.688" rx="4.344" ry="5.688" transform="translate(664.283 438.571)" fill="#3f3d56"/>
    <ellipse id="Ellipse_162" data-name="Ellipse 162" cx="4.344" cy="5.688" rx="4.344" ry="5.688" transform="translate(664.283 431.62)" fill="#3f3d56"/>
    <path id="Path_667" data-name="Path 667" d="M-856.857-1966.357a20.71,20.71,0,0,0,1.619-2.38l-11.416-1.875,12.347.089a20.865,20.865,0,0,0,.4-16.489l-16.562,8.595,15.266-11.23a20.812,20.812,0,0,0-28.432-7.61,20.812,20.812,0,0,0-7.611,28.432,20.869,20.869,0,0,0,1.673,2.468,20.707,20.707,0,0,0-2.372,3.793l14.817,7.692-15.789-5.3a20.828,20.828,0,0,0,3.356,19.541,20.808,20.808,0,0,0,3.491,29.22,20.808,20.808,0,0,0,29.22-3.491,20.808,20.808,0,0,0,0-25.729,20.812,20.812,0,0,0,0-25.731Z" transform="translate(1541.745 2356.097)" fill="#697f64"/>
    <path id="Path_673" data-name="Path 673" d="M-894-1885.491a20.713,20.713,0,0,0,4.453,12.866,20.808,20.808,0,0,0,3.491,29.22,20.809,20.809,0,0,0,29.22-3.49,20.808,20.808,0,0,0,0-25.729C-854.048-1876.163-894-1887.827-894-1885.491Z" transform="translate(1541.727 2288.096)" opacity="0.1" style="isolation: isolate"/>
    <ellipse id="Ellipse_155" data-name="Ellipse 155" cx="10.926" cy="10.926" rx="10.926" ry="10.926" transform="translate(853.677 302.661)" fill="#fff"/>
    <g id="Group_471" data-name="Group 471" transform="translate(718.139 154.312) rotate(-21)">
      <path id="Path_38" data-name="Path 38" d="M27.652,41.342q-12.126,0-24.252,0c-2.844,0-3.4-.551-3.4-3.352Q0,20.664,0,3.341C0,.555.564,0,3.412,0Q27.761,0,52.11,0c2.865,0,3.35.492,3.35,3.351q0,17.419,0,34.839c0,2.589-.549,3.142-3.169,3.145Q39.971,41.355,27.652,41.342ZM7.232,39A3.77,3.77,0,0,0,11.4,37.772c7.254-7.346,14.577-14.624,21.878-21.923,3.7-3.7,6.4-3.682,10.144.064q4.355,4.351,8.711,8.7a15.089,15.089,0,0,0,1.3,1.013c0-7.239.025-14.157-.017-21.074-.011-1.813-.8-2.405-2.921-2.406q-22.7-.01-45.4,0c-2.462,0-2.949.475-2.955,2.918q-.025,8.849,0,17.7a12.836,12.836,0,0,0,.222,1.583c.965-.916,1.668-1.667,2.458-2.314A4.1,4.1,0,0,1,10.293,22c2.371,2.224,4.595,4.605,7.022,7.063Z" transform="translate(0 9.982)" fill="#432968"/>
      <path id="Path_39" data-name="Path 39" d="M44.021,48.191v-1.9c3.569.284,3.908.091,4.4-2.959q2.445-15.087,4.822-30.183c.379-2.4-.043-3.02-2.385-3.4-14.1-2.29-28.216-4.539-42.32-6.829C3.2,2.052,2.97,1.8,2.318,7.476,2.157,8.889,1.537,9.383,0,8.8.4,6.344.713,3.875,1.238,1.453,1.536.081,2.651-.145,3.97.071c8.6,1.406,17.209,2.763,25.813,4.148,7.655,1.232,15.3,2.5,22.962,3.712,2.954.469,3.3.893,2.822,3.908q-2.75,17.178-5.51,34.355c-.38,2.367-1.036,2.865-3.36,2.517C45.819,48.579,44.952,48.374,44.021,48.191Z" transform="translate(12.62 0)" fill="#432968"/>
      <path id="Path_40" data-name="Path 40" d="M9.673,4.942A4.788,4.788,0,0,1,4.729,9.7,4.917,4.917,0,0,1,0,4.864,4.925,4.925,0,0,1,4.9,0,4.8,4.8,0,0,1,9.673,4.942Z" transform="translate(8.102 16.17)" fill="#fc9433"/>
    </g>
    <path id="Path_658" data-name="Path 658" d="M11.089,30.428h-.27L7.334,24.821c-1,.708-1.867,1.5-3.158,1.432-.09-1.317.775-2.174,1.415-3.176L0,19.609v-.27c.692-.593,1.189-1.459,2.373-1.214,1.87.387,3.768.635,5.645.989a.814.814,0,0,0,.865-.31c1.414-1.545,2.842-3.078,4.264-4.616.284-.307.564-.619.868-.953L.768,4.252c.673-.548,1.211-.952,1.707-1.4A1.128,1.128,0,0,1,3.684,2.6c5.162,1.476,10.332,2.921,15.5,4.388a.785.785,0,0,0,.93-.25C21.244,5.49,22.445,4.3,23.559,3.029A9.182,9.182,0,0,1,27.994,0h1.082a1.875,1.875,0,0,1,1.352,1.352V2.434A9.257,9.257,0,0,1,27.4,6.866c-1.25,1.1-2.423,2.29-3.666,3.4a.867.867,0,0,0-.274,1.042q2.2,7.746,4.372,15.5c.059.21.182.509.091.636-.515.724-1.086,1.408-1.737,2.232L17.192,16.412c-1.964,1.812-3.87,3.561-5.756,5.331a.774.774,0,0,0-.114.6c.308,1.908.657,3.81.945,5.721a2.05,2.05,0,0,1-.161,1.209A6.649,6.649,0,0,1,11.089,30.428Z" transform="matrix(0.174, 0.985, -0.985, 0.174, 632.531, 203.801)" fill="#e2ada6"/>
    <path id="Path_687" data-name="Path 687" d="M13.047,35.8h-.318l-4.1-6.6c-1.179.833-2.2,1.761-3.716,1.685-.106-1.549.911-2.558,1.665-3.736L0,23.071v-.318c.814-.7,1.4-1.716,2.792-1.428,2.2.455,4.433.747,6.642,1.163a.957.957,0,0,0,1.018-.365c1.664-1.818,3.344-3.621,5.017-5.431.334-.361.663-.728,1.021-1.122L.9,5c.792-.645,1.425-1.12,2.009-1.648a1.327,1.327,0,0,1,1.421-.291C10.406,4.8,16.49,6.5,22.565,8.226a.924.924,0,0,0,1.094-.294c1.334-1.473,2.747-2.875,4.058-4.369A10.8,10.8,0,0,1,32.935,0h1.273A2.206,2.206,0,0,1,35.8,1.591V2.864a10.888,10.888,0,0,1-3.567,5.214c-1.47,1.3-2.851,2.694-4.313,4A1.019,1.019,0,0,0,27.6,13.3q2.592,9.113,5.143,18.238c.069.247.214.6.108.748-.606.852-1.278,1.657-2.043,2.626L20.226,19.309c-2.311,2.132-4.553,4.189-6.772,6.272a.911.911,0,0,0-.134.7c.363,2.245.772,4.482,1.112,6.73a2.41,2.41,0,0,1-.189,1.422A7.812,7.812,0,0,1,13.047,35.8Z" transform="translate(1296.333 382.918) rotate(45)" fill="#e2ada6"/>
    <line id="Line_44" data-name="Line 44" x2="226.982" y2="0.211" transform="translate(1065.321 556.499)" fill="none" stroke="#a187ac" stroke-width="1"/>
    <g id="Group_473" data-name="Group 473" transform="translate(1008.304 269.157)">
      <path id="Path_607" data-name="Path 607" d="M-760.671-5546.851a3.4,3.4,0,0,0-1.905-.788c-.98-.211-1.192-.717-1.079-1.616.365-2.907.746-5.811,1.314-8.689,2.287-11.582,6.03-22.727,10.081-33.782,4.344-11.857,9.2-23.514,13.948-35.209,4.343-10.689,8.713-21.368,12.35-32.327a118.071,118.071,0,0,0,4.062-15.023c.077-.4.161-.8.242-1.2,1.528-.01,3.056-.028,4.583-.029,7.857,0,15.715.044,23.559-.531,1.656-.121,3.315-.191,4.971-.331,3.481-.294,6.956-.624,10.418-1.087,3.67-.491,7.33-1.053,10.942-1.877,2.261-.517,4.506-1.1,6.759-1.653a3.78,3.78,0,0,0,.105.606c2.276,6.606,2.737,13.479,2.9,20.381.1,4.233.042,8.473.013,12.709a90.247,90.247,0,0,0,1.078,15.882,41.433,41.433,0,0,0,4.79,13.729,54.127,54.127,0,0,0,14.287,15.777,120.124,120.124,0,0,0,15.24,9.842,216.468,216.468,0,0,0,27.347,13.04c1.693.654,3.381,1.319,5.071,1.98a4.5,4.5,0,0,1-.136.681q-2.582,7.11-5.173,14.219c-.718,1.981-1.545,3.925-2.1,5.962-.832,1.749-1.395,3.6-2.054,5.419-.234.644-.461.778-1.127.6a253.447,253.447,0,0,1-24.529-7.947,203.01,203.01,0,0,1-20.388-8.989,117.272,117.272,0,0,1-22.109-14.246c-6.044-5.068-11.29-10.812-14.607-18.091a68.566,68.566,0,0,1-3.548-11.143c-2.106-8-3.631-16.128-5.007-24.282a17.89,17.89,0,0,0-.593-2.765q-.281,1.078-.563,2.155-3,11.455-6.678,22.715c-2.751,8.459-5.568,16.9-8.328,25.354-3.834,11.745-7.482,23.545-10.39,35.561-1.379,5.7-2.624,11.429-3.634,17.205-.122.7-.366.82-1,.592-1.27-.458-2.559-.865-3.843-1.285a1.44,1.44,0,0,0-.938-.155,1.562,1.562,0,0,0-.846-.429q-4.383-1.438-8.764-2.885-11.637-3.866-23.271-7.745A3.98,3.98,0,0,0-760.671-5546.851Zm61.823-114.536a1,1,0,0,0-1.168.742.807.807,0,0,0,.483,1.013,5.7,5.7,0,0,0,.995.343q2.66.762,5.324,1.511c.378.107.686.214.72.729.144,2.219.343,4.433.505,6.649q.365,4.991.7,9.981c.046.7.439,1.071,1.053,1.023.649-.05.924-.576.872-1.216-.157-1.923-.353-3.843-.487-5.767-.206-2.95-.309-5.909-.592-8.851a29.056,29.056,0,0,0-.255-3.237.84.84,0,0,0-.671-.765q-2.327-.649-4.65-1.312C-697.029-5660.834-698.035-5661.144-698.847-5661.387Z" transform="translate(829.774 5800.132)" fill="#262320"/>
      <path id="Path_608" data-name="Path 608" d="M-786.073-5931.543c-2.234-.338-4.318-1.233-6.5-1.75a15.994,15.994,0,0,1-6.9-3.354c-1.245-1.13-2.329-2.4-3.488-3.61-2.031-2.111-3.36-2.438-5.772-.954a5.261,5.261,0,0,1-6.484-.383.84.84,0,0,0-.808-.2,5.947,5.947,0,0,1-6.313-2.076,1.215,1.215,0,0,0-1.141-.438,3.984,3.984,0,0,1-3.1-.672c-.251-.211-.5-.092-.752-.065-2.822.3-4.754-.937-4.884-3.705-.028-.593-.333-.579-.81-.556-2.341.111-3.374-1.124-2.879-3.419a12.672,12.672,0,0,1,.512-1.68,21.4,21.4,0,0,1,2.525-4.52,13.355,13.355,0,0,1,6.277-4.351,20.352,20.352,0,0,1,8.716-.513c5.284.683,10.341,2.355,15.515,3.519a33.544,33.544,0,0,0,7.832,1.017c3.51-.048,5.322-1.754,5.627-5.288a58.063,58.063,0,0,0-.2-7.464c.79.06,1.58.162,2.371.165a.953.953,0,0,1,1.022.7c2.27,5.294,2.785,10.875,2.75,16.544,0,.653.182.871.8.931,2.044.2,4.079.52,6.127.645a19.173,19.173,0,0,0,11.168-2.5c4.136-2.438,6.8-6.142,8.786-10.392a31.984,31.984,0,0,0,2.478-6.935c.491-.909.485-1.97.888-2.906,3.327,1.609,6.649,3.229,9.981,4.826q7.46,3.576,14.937,7.117a.983.983,0,0,1,.672,1.209c-.141.838-.208,1.688-.308,2.533l-.884,5a3.649,3.649,0,0,0-.214.567,46.774,46.774,0,0,1-2.294,7.624,25.061,25.061,0,0,1-11.853,13.534,41.192,41.192,0,0,1-17.417,4.578,55.569,55.569,0,0,1-6.683.141c-2.389-.161-4.788-.289-7.168-.656-1.783-.275-3.566-.547-5.348-.833C-781.578-5930.473-783.806-5931.1-786.073-5931.543Zm-26.551-27.678c-.483.028-1.305.052-2.123.126a14.513,14.513,0,0,0-8.758,3.491,20.848,20.848,0,0,0-4.6,6.927c-.275.585-.39,1.189.3,1.514s1.145-.073,1.454-.719c.468-.979.943-1.959,1.481-2.9a11.873,11.873,0,0,1,8.134-6.071,25.482,25.482,0,0,1,9.454-.056c6.485,1.054,12.952,2.218,19.423,3.353.665.116,1.226.052,1.382-.678.168-.782-.323-1.075-1.041-1.2-4.655-.8-9.31-1.6-13.957-2.446A64.9,64.9,0,0,0-812.624-5959.221Zm-10.146,13.144a.546.546,0,0,0,.612.557c.531-.013.7-.355.735-.811a7,7,0,0,1,1.677-3.984,10.542,10.542,0,0,1,6.008-3.4c.427-.1.953-.191.76-.823-.16-.526-.6-.555-1.083-.45a12.313,12.313,0,0,0-5.088,2.294A9.078,9.078,0,0,0-822.77-5946.077Zm6.922,2.763c0,.338.124.608.534.626a.711.711,0,0,0,.782-.668,7.679,7.679,0,0,1,6.683-6.625c.489-.087.848-.338.727-.9s-.6-.478-1-.4a9.55,9.55,0,0,0-2.353.7A9.179,9.179,0,0,0-815.848-5943.314Zm-15.964-7.6c-.017.531.219.9.572.917.436.016.6-.271.685-.656a8.558,8.558,0,0,1,3.958-5.595c.385-.24.549-.542.261-.949-.277-.391-.617-.363-1-.125a9.928,9.928,0,0,0-3.614,3.9A8.789,8.789,0,0,0-831.811-5950.915Z" transform="translate(891.405 6051.237)" fill="#fbd9ae"/>
      <path id="Path_609" data-name="Path 609" d="M-1151.5-6072.611a21.4,21.4,0,0,0-2.525,4.52,12.679,12.679,0,0,0-.512,1.68c-.495,2.295.538,3.53,2.879,3.419.477-.023.782-.038.81.555.13,2.769,2.062,4,4.884,3.706.254-.027.5-.147.752.065a3.981,3.981,0,0,0,3.1.671,1.219,1.219,0,0,1,1.141.439,5.947,5.947,0,0,0,6.313,2.075.843.843,0,0,1,.808.2,5.26,5.26,0,0,0,6.484.384c2.412-1.483,3.741-1.157,5.772.954,1.16,1.206,2.244,2.48,3.488,3.61a15.992,15.992,0,0,0,6.9,3.354,1.935,1.935,0,0,1-1.833,1.921c-2.778.436-5.564.813-8.348,1.212q-5.915.847-11.832,1.689c-3.974.562-7.954,1.083-11.922,1.683a11.162,11.162,0,0,1-6.536-.8.66.66,0,0,0-.809.067c-.872.772-1.688.491-2.547-.1q-12.764-8.735-25.547-17.442c-2.548-1.738-5.088-3.488-7.646-5.212a8.548,8.548,0,0,1-3.346-4.1c-1.228-3.249-2.842-6.317-4.306-9.455q-6.91-14.81-13.9-29.585c-.317-.674-.449-1.3.212-1.817a1.362,1.362,0,0,1,1.773.129q5.089,3.485,10.191,6.952a5.511,5.511,0,0,0,.535.287v-.019l.188.163c1.428,1.066,2.888,2.087,4.406,3.023l12.776,8.757q2.869,1.965,5.74,3.927a9.914,9.914,0,0,1,3.831,4.812c1.117,3.039,2.692,5.86,4.042,8.787.694,1.5.718,1.428,2.41,1.179C-1159.621-6071.519-1155.559-6072.053-1151.5-6072.611Zm-14.14,6.4a1.234,1.234,0,0,0,.225.694q1.005,2.1,2.019,4.207,3.907,8.137,7.809,16.276c.289.6.669.993,1.369.685.715-.315.674-.873.384-1.475q-.936-1.945-1.87-3.888-2.927-6.116-5.853-12.233c-.748-1.562-1.5-3.12-2.251-4.681a.936.936,0,0,0-1.123-.626A.927.927,0,0,0-1165.641-6066.215Zm-17.277-9.353a7.254,7.254,0,0,0-2.783-5.364,1.36,1.36,0,0,0-2.31.941,6.829,6.829,0,0,0,2.353,6.4c1.238,1.1,2.439.572,2.693-1.069C-1182.929-6074.894-1182.939-6075.132-1182.918-6075.567Zm37.276,21.687a1.061,1.061,0,0,0-.866.651.907.907,0,0,0,.368,1.085q2.226,1.722,4.46,3.434a.874.874,0,0,0,1.377-.176.932.932,0,0,0-.279-1.383q-2.129-1.633-4.261-3.26A1.355,1.355,0,0,0-1145.643-6053.881Zm-8.638-7.061a1.071,1.071,0,0,0-.873.656.967.967,0,0,0,.442,1.145c1.438,1.113,2.886,2.212,4.322,3.328a.917.917,0,0,0,1.454-.137c.4-.53.174-1.01-.293-1.373-1.413-1.1-2.839-2.178-4.259-3.266A1.445,1.445,0,0,0-1154.281-6060.942Zm2.054,8.62a.881.881,0,0,0,.416.82q2.2,1.689,4.4,3.368a.867.867,0,0,0,1.319-.147.856.856,0,0,0-.135-1.316c-.307-.272-.637-.518-.961-.769-1.136-.88-2.269-1.764-3.417-2.628a.951.951,0,0,0-1.135-.192A.85.85,0,0,0-1152.227-6052.322Z" transform="translate(1210.039 6164.926)" fill="#b7a9c9"/>
      <path id="Path_610" data-name="Path 610" d="M-200.8-6219.248l.884-5a33.732,33.732,0,0,0,10.706.287c.768-.1.737-.343.552-.942a160.683,160.683,0,0,0-7.812-20.754c-4.922-10.554-10.738-20.47-20.355-27.567a34.987,34.987,0,0,0,20.087-7.292,16.342,16.342,0,0,1,8.608,3.731c3.524,2.813,6.217,6.16,6.5,10.922a.841.841,0,0,0,.928.857.92.92,0,0,0,.924-1.062,10.292,10.292,0,0,0-.837-4.117,20.861,20.861,0,0,0-14.335-12,31.241,31.241,0,0,0,2.927-3.668q15.058,5.1,18.351,20.654a22.049,22.049,0,0,1,.393,4.644c-.012,10.024.076,20.049-.031,30.073-.095,8.95-3.969,16.027-11.144,21.329-.812-3.129-1.673-6.247-2.4-9.4-.188-.813-.609-.762-1.121-.665a28.27,28.27,0,0,1-4.753.469c-1.4.027-2.81.039-4.209-.047C-198.23-6218.872-199.512-6219.09-200.8-6219.248Z" transform="translate(363.888 6315.425)" fill="#432968"/>
      <path id="Path_611" data-name="Path 611" d="M-456.9-6456a31.281,31.281,0,0,1-2.926,3.668l-1.785,1.667a34.983,34.983,0,0,1-20.087,7.291,33.916,33.916,0,0,0-5.223-2.835,14.5,14.5,0,0,0-5.139-1.552,6.339,6.339,0,0,0-1.68-.418,40.756,40.756,0,0,0-6.375-.139,49.423,49.423,0,0,1-3.731-3.516,17.694,17.694,0,0,0,7.625-9.369c.125-.361.376-.368.678-.4a9.729,9.729,0,0,0,8.3-7.12,5.462,5.462,0,0,0-4.145-7,9.293,9.293,0,0,0-7.45,1.587,9.131,9.131,0,0,1-4.4,1.552c-.556.049-1.112.1-1.669.136a27.786,27.786,0,0,1-14.468-2.587.807.807,0,0,0-1.113.188,20.752,20.752,0,0,1-4.983,3.743,5.249,5.249,0,0,1-2.267.864c.274-5.5,2.374-10.082,7.136-13.049,5.3-3.3,10.7-2.811,16.037.1,1.429.779,2.6,1.919,3.957,2.793a23.667,23.667,0,0,0,13.927,3.949,41.781,41.781,0,0,0,10.428-2.03,65.668,65.668,0,0,1,7.825-2.062c4.3-.732,7.823.468,10.235,4.192,3.678,5.679,5.093,11.7,2.338,18.219C-456.165-6457.4-456.553-6456.706-456.9-6456Z" transform="translate(628.769 6485.57)" fill="#262856"/>
      <path id="Path_612" data-name="Path 612" d="M-487.7-6176.815a32,32,0,0,1-2.478,6.935c-1.988,4.25-4.649,7.954-8.786,10.392a19.174,19.174,0,0,1-11.168,2.5c-2.048-.125-4.083-.444-6.127-.646-.613-.06-.8-.278-.8-.931.035-5.669-.48-11.251-2.75-16.544a.953.953,0,0,0-1.022-.7c-.791,0-1.581-.105-2.371-.165a70.982,70.982,0,0,1-.547-14.314,27.764,27.764,0,0,1,3.563-11.938,29.554,29.554,0,0,1,7.566-9.053,7.992,7.992,0,0,0,2.215,3.437c2.523,2.25,5.462,2.5,8.591,1.765,3.57-.837,6.326-2.973,8.815-5.544,1.079-1.115,1.944-2.4,2.986-3.549a5.1,5.1,0,0,1-.711,1.852,39.482,39.482,0,0,0-1.48,25.958A36.908,36.908,0,0,0-487.7-6176.815Z" transform="translate(625.508 6255.21)" fill="#e2ada6"/>
      <path id="Path_613" data-name="Path 613" d="M-47.773-5707.032a70.792,70.792,0,0,1,3.111,13.611c.4,2.931.713,5.877.969,8.829.474,5.464.8,10.939,1.241,16.4a135.376,135.376,0,0,0,2.266,17.872,31.944,31.944,0,0,0,3.978,10.668,20.383,20.383,0,0,0,5.652,5.372c6.821,4.874,14.295,8.583,21.829,12.184,6.574,3.142,13.268,6.008,20.016,8.752,2.04.83,4.09,1.634,6.141,2.435.339.132.688.208.674.674a3.139,3.139,0,0,0-.315.524q-1.563,4.3-3.111,8.606a2.3,2.3,0,0,1-.345-.071,202.566,202.566,0,0,1-18.751-7.864c-5.606-2.716-11.116-5.618-16.494-8.762a89.4,89.4,0,0,1-17.5-12.841,42.253,42.253,0,0,1-11.078-17.047,57.646,57.646,0,0,1-2.492-15.494c-.158-3.255-.144-6.521-.183-9.781-.009-.761.121-1.523.112-2.284-.031-2.584-.035-5.169-.085-7.754a75.9,75.9,0,0,0-1.655-15.627,21.26,21.26,0,0,0-1.585-5.1A65.852,65.852,0,0,0-47.773-5707.032Z" transform="translate(226.349 5822.311)" fill="#262320"/>
      <path id="Path_614" data-name="Path 614" d="M-891.587-4775.032a4,4,0,0,1,1.453.3q11.634,3.877,23.271,7.746,4.378,1.455,8.763,2.884a1.565,1.565,0,0,1,.846.429q-2.8,5.886-5.6,11.772c-1.682,3.526-3.386,7.04-5.044,10.576-.291.621-.519.716-1.134.366q-23.85-13.609-47.73-27.166c-.748-.424-.724-.689-.256-1.34a12.128,12.128,0,0,1,10.615-5.379c2.445.037,4.864.344,7.3.508a21.4,21.4,0,0,1,1.188,3.016,51.193,51.193,0,0,1,1.553,5.4c.094.4.269.668.706.606.472-.066.614-.4.556-.836-.019-.145-.066-.285-.1-.428a66.541,66.541,0,0,0-2.385-7.712l2.035-.052c.325.717.655,1.432.972,2.152q1.149,2.605,2.286,5.217c.158.362.368.625.8.445a.669.669,0,0,0,.394-.934c-.058-.165-.147-.318-.217-.479q-1.41-3.258-2.818-6.516Z" transform="translate(960.691 5028.313)" fill="#697f64"/>
      <path id="Path_615" data-name="Path 615" d="M370.252-5044.147q1.553-4.3,3.111-8.607a3.158,3.158,0,0,1,.315-.524c6.4,1.739,12.8,3.49,19.21,5.2.813.218.458.655.319,1.054q-3.506,10.017-7.028,20.027-5.57,15.874-11.119,31.754c-.257.739-.482.842-1.206.505-4.526-2.1-6.872-5.711-7.428-10.579-.217-1.9-.388-3.8-.579-5.7l3.852-3.869c.358-.36.808-.741.269-1.246-.488-.459-.848-.029-1.187.3l-3.092,3.009c-.313-1.2-.616-2.407-.944-3.6a7.028,7.028,0,0,0-.368-.883,24.443,24.443,0,0,1,3.631-2.923c.453-.293.766-.643.411-1.139s-.773-.183-1.152.065a35.223,35.223,0,0,0-3.461,2.708,11.287,11.287,0,0,0-1.81-2.822c.559-2.037,1.386-3.98,2.1-5.961q2.576-7.114,5.173-14.219a4.468,4.468,0,0,0,.135-.681c.528,0,1.013,0,1.3-.605C371-5043.51,370.563-5043.786,370.252-5044.147Z" transform="translate(-129.225 5265.357)" fill="#697f64"/>
      <path id="Path_616" data-name="Path 616" d="M-528.326-6414.862a5.256,5.256,0,0,0,2.267-.864,20.762,20.762,0,0,0,4.983-3.743.807.807,0,0,1,1.113-.188,27.786,27.786,0,0,0,14.468,2.587c.557-.04,1.113-.086,1.669-.136a9.121,9.121,0,0,0,4.4-1.552,9.293,9.293,0,0,1,7.45-1.587,5.462,5.462,0,0,1,4.145,7,9.73,9.73,0,0,1-8.3,7.12c-.3.034-.553.041-.678.4a17.694,17.694,0,0,1-7.625,9.369,21.82,21.82,0,0,1-5.131,2.051,11.413,11.413,0,0,1-10.692-2.859,24.467,24.467,0,0,1-7.95-14.445A8.8,8.8,0,0,1-528.326-6414.862Zm8.895,12a1.833,1.833,0,0,0-.057-.29,27.131,27.131,0,0,1-1.359-7.309c-.024-.438-.148-.776-.634-.763-.534.015-.635.389-.626.859a24.354,24.354,0,0,0,.357,3.4,28.441,28.441,0,0,0,1.045,4.255c.141.434.375.654.836.553C-519.525-6402.226-519.4-6402.469-519.431-6402.859ZM-492.816-6417a6.343,6.343,0,0,0-5.86,4.579c-.1.42-.043.707.346.854a.6.6,0,0,0,.84-.412,5.036,5.036,0,0,1,5.028-3.766.512.512,0,0,0,.555-.545.6.6,0,0,0-.446-.67A1.613,1.613,0,0,0-492.816-6417Zm-22.126,7.081a1.223,1.223,0,0,0,1.226-1.3,1.233,1.233,0,0,0-1.274-1.168,1.264,1.264,0,0,0-1.241,1.217A1.256,1.256,0,0,0-514.942-6409.917Z" transform="translate(629.354 6430.196)" fill="#fbd9ae"/>
      <path id="Path_617" data-name="Path 617" d="M-432.518-5817.043a65.928,65.928,0,0,1-7.606,3.31,4.127,4.127,0,0,0-1.622.545c-2.252.553-4.5,1.136-6.759,1.653-3.612.824-7.272,1.386-10.942,1.877-3.462.463-6.937.793-10.418,1.087-1.656.14-3.315.209-4.971.331-7.844.575-15.7.526-23.559.531-1.528,0-3.056.02-4.583.03a36.345,36.345,0,0,0-4.017-.181l1.232-4.767c2.267.444,4.5,1.07,6.781,1.437,1.782.286,3.565.558,5.348.833,2.38.367,4.78.5,7.168.656a55.467,55.467,0,0,0,6.683-.14,41.2,41.2,0,0,0,17.417-4.579,25.058,25.058,0,0,0,11.853-13.533,46.768,46.768,0,0,0,2.294-7.624,3.669,3.669,0,0,1,.214-.566c1.286.157,2.569.375,3.86.455,1.4.086,2.807.075,4.209.047a28.27,28.27,0,0,0,4.753-.469c.513-.1.933-.149,1.121.664.729,3.148,1.59,6.267,2.4,9.4q.59,2.922,1.181,5.845c.079.39.168.778.259,1.166a.575.575,0,0,1-.3.723C-431.2-5817.916-431.853-5817.47-432.518-5817.043Z" transform="translate(611.095 5932.321)" fill="#e2ada6"/>
      <path id="Path_618" data-name="Path 618" d="M-425.03-6231.513c-1.041,1.144-1.906,2.433-2.986,3.549-2.488,2.571-5.245,4.707-8.815,5.544-3.129.733-6.067.485-8.591-1.765a7.99,7.99,0,0,1-2.215-3.437,24.442,24.442,0,0,1,6.443-4.033,28.465,28.465,0,0,1,8.9-2.512,2.157,2.157,0,0,0,.419-.131,40.758,40.758,0,0,1,6.375.139,6.339,6.339,0,0,1,1.68.418,4.564,4.564,0,0,1-.868,1.64l-.172.253.013-.018a.307.307,0,0,0-.192.367Z" transform="translate(560.525 6271.551)" fill="#fbd9ae"/>
      <path id="Path_619" data-name="Path 619" d="M-795.146-4782.051a66.482,66.482,0,0,1,2.385,7.712c.031.143.078.284.1.428.058.438-.084.77-.556.836-.437.062-.612-.209-.706-.606a51.187,51.187,0,0,0-1.553-5.405,21.4,21.4,0,0,0-1.188-3.016c-.131-.354-.279-.7-.389-1.06a.686.686,0,0,1,.409-.931c.449-.183.63.135.784.465C-795.62-4783.1-795.384-4782.577-795.146-4782.051Z" transform="translate(858.247 5036.075)" fill="#050509"/>
      <path id="Path_620" data-name="Path 620" d="M-770.5-4779.743q1.409,3.258,2.818,6.516c.07.161.159.314.217.479a.67.67,0,0,1-.394.934c-.43.18-.64-.083-.8-.445q-1.137-2.612-2.286-5.217c-.318-.721-.648-1.436-.972-2.152-.1-.542-.729-1.228.165-1.551.863-.312.749.643,1.047,1.056A3.11,3.11,0,0,1-770.5-4779.743Z" transform="translate(837.054 5033.601)" fill="#050509"/>
      <path id="Path_621" data-name="Path 621" d="M366.3-4836.5a35.007,35.007,0,0,1,3.461-2.708c.379-.248.8-.56,1.152-.065s.042.846-.411,1.139a24.41,24.41,0,0,0-3.631,2.923c-.221.226-.449.448-.663.681-.3.328-.65.559-1.043.209-.431-.384-.218-.78.109-1.124S365.956-4836.152,366.3-4836.5Z" transform="translate(-131.717 5083.267)" fill="#050509"/>
      <path id="Path_622" data-name="Path 622" d="M382.076-4800.22l3.092-3.009c.34-.331.7-.76,1.187-.3.538.506.089.886-.269,1.247l-3.852,3.869c-.4.074-.765.064-.951-.376-.171-.406.112-.643.35-.9C381.79-4799.858,381.929-4800.043,382.076-4800.22Z" transform="translate(-145.611 5052.761)" fill="#050509"/>
      <path id="Path_623" data-name="Path 623" d="M-66.332-5684.134a4.135,4.135,0,0,1,1.622-.545,21.25,21.25,0,0,1,1.585,5.095,75.913,75.913,0,0,1,1.655,15.628c.05,2.585.054,5.17.085,7.754.009.761-.121,1.523-.112,2.284.04,3.261.026,6.526.183,9.781a57.649,57.649,0,0,0,2.492,15.494A42.256,42.256,0,0,0-47.744-5611.6a89.419,89.419,0,0,0,17.5,12.841c5.378,3.145,10.888,6.046,16.494,8.762A202.707,202.707,0,0,0,5-5582.127a2.361,2.361,0,0,0,.345.07c.311.361.751.637.455,1.263-.287.607-.771.611-1.3.606-1.69-.66-3.379-1.326-5.071-1.979a216.346,216.346,0,0,1-27.347-13.041,120.074,120.074,0,0,1-15.24-9.841,54.128,54.128,0,0,1-14.287-15.777,41.425,41.425,0,0,1-4.79-13.729,90.238,90.238,0,0,1-1.078-15.881c.029-4.236.089-8.476-.013-12.709-.166-6.9-.627-13.774-2.9-20.381A3.772,3.772,0,0,1-66.332-5684.134Z" transform="translate(235.681 5803.267)" fill="#fafbfe"/>
      <path id="Path_624" data-name="Path 624" d="M-332.784-5548.559c.812.243,1.819.553,2.831.844q2.322.667,4.65,1.312a.841.841,0,0,1,.671.766,29.024,29.024,0,0,1,.255,3.237c.283,2.941.385,5.9.592,8.85.134,1.924.33,3.845.487,5.768.052.64-.223,1.166-.872,1.216-.614.048-1.007-.325-1.053-1.023q-.33-4.992-.7-9.981c-.162-2.217-.361-4.432-.505-6.649-.034-.515-.341-.622-.72-.729q-2.663-.753-5.324-1.511a5.736,5.736,0,0,1-.995-.342.808.808,0,0,1-.483-1.014A1,1,0,0,1-332.784-5548.559Z" transform="translate(463.711 5687.304)" fill="#fff"/>
      <path id="Path_625" data-name="Path 625" d="M-281.311-6219.735a33.955,33.955,0,0,1,5.223,2.835c9.617,7.1,15.433,17.013,20.355,27.568a160.629,160.629,0,0,1,7.812,20.754c.184.6.216.839-.552.942a33.746,33.746,0,0,1-10.706-.287c.1-.845.167-1.7.308-2.533a.983.983,0,0,0-.672-1.209q-7.481-3.532-14.937-7.116c-3.332-1.6-6.654-3.217-9.981-4.827.21-1.032.39-2.072.641-3.094a3.9,3.9,0,0,0-.185-2.461,35.249,35.249,0,0,1-2.374-12.108A32.074,32.074,0,0,1-281.311-6219.735Z" transform="translate(423.154 6259.097)" fill="#e2ada6"/>
      <path id="Path_626" data-name="Path 626" d="M-309.9-6228.665a32.073,32.073,0,0,0-5.069,18.462,35.245,35.245,0,0,0,2.374,12.108,3.9,3.9,0,0,1,.185,2.461c-.251,1.022-.431,2.063-.641,3.095-.4.936-.4,2-.888,2.906a36.9,36.9,0,0,1-4.5-10.547,39.482,39.482,0,0,1,1.48-25.958,5.1,5.1,0,0,0,.711-1.852l-.01.016c.266-.017.216-.2.192-.367l-.013.018c.2.008.162-.137.172-.254a4.564,4.564,0,0,0,.868-1.64A14.513,14.513,0,0,1-309.9-6228.665Z" transform="translate(451.745 6268.027)" fill="#432968"/>
      <path id="Path_627" data-name="Path 627" d="M-768.291-5864.13a64.9,64.9,0,0,1,11.154,1.34c4.647.847,9.3,1.646,13.957,2.446.718.124,1.209.417,1.041,1.2-.157.73-.717.794-1.382.678-6.471-1.135-12.938-2.3-19.423-3.353a25.492,25.492,0,0,0-9.454.056,11.873,11.873,0,0,0-8.134,6.071c-.538.942-1.012,1.922-1.481,2.9-.309.646-.752,1.047-1.454.719s-.579-.928-.3-1.514a20.849,20.849,0,0,1,4.6-6.927,14.513,14.513,0,0,1,8.758-3.491C-769.6-5864.079-768.774-5864.1-768.291-5864.13Z" transform="translate(847.072 5956.147)" fill="#fefdf9"/>
      <path id="Path_628" data-name="Path 628" d="M-746.5-5826.916a9.078,9.078,0,0,1,3.622-6.618,12.313,12.313,0,0,1,5.088-2.294c.484-.1.923-.076,1.083.45.193.632-.334.726-.76.823a10.543,10.543,0,0,0-6.008,3.4,7,7,0,0,0-1.677,3.984c-.039.456-.2.8-.735.811A.546.546,0,0,1-746.5-5826.916Z" transform="translate(815.14 5932.076)" fill="#fe3e6c"/>
      <path id="Path_629" data-name="Path 629" d="M-699.757-5802.855a9.178,9.178,0,0,1,5.374-7.267,9.551,9.551,0,0,1,2.353-.7c.4-.075.874-.169,1,.4s-.238.808-.727.9a7.679,7.679,0,0,0-6.683,6.625.711.711,0,0,1-.782.668C-699.633-5802.248-699.762-5802.517-699.757-5802.855Z" transform="translate(775.314 5910.779)" fill="#fe3e6c"/>
      <path id="Path_630" data-name="Path 630" d="M-807.572-5845.9a8.792,8.792,0,0,1,.863-2.511,9.93,9.93,0,0,1,3.614-3.9c.382-.239.722-.266,1,.125.289.406.124.709-.261.949a8.557,8.557,0,0,0-3.958,5.595c-.086.385-.249.672-.685.656C-807.353-5845-807.588-5845.372-807.572-5845.9Z" transform="translate(867.166 5946.226)" fill="#fe3e6c"/>
      <path id="Path_631" data-name="Path 631" d="M-910.237-5825.109a.927.927,0,0,1,.71-1.042.936.936,0,0,1,1.123.625c.748,1.562,1.5,3.12,2.251,4.682q2.928,6.115,5.853,12.232.931,1.945,1.87,3.888c.289.6.331,1.159-.384,1.475-.7.309-1.08-.082-1.369-.685q-3.9-8.141-7.809-16.275-1.01-2.1-2.019-4.207A1.234,1.234,0,0,1-910.237-5825.109Z" transform="translate(954.635 5923.821)" fill="#fafbfe"/>
      <path id="Path_632" data-name="Path 632" d="M-1056.7-5915.062c-.021.435-.01.673-.046.9-.254,1.641-1.455,2.172-2.693,1.069a6.83,6.83,0,0,1-2.353-6.4,1.359,1.359,0,0,1,2.31-.941A7.255,7.255,0,0,1-1056.7-5915.062Z" transform="translate(1083.82 6004.42)" fill="#fafbfe"/>
      <path id="Path_633" data-name="Path 633" d="M-780.461-5735.619a1.351,1.351,0,0,1,.8.351q2.131,1.628,4.261,3.259a.932.932,0,0,1,.279,1.383.874.874,0,0,1-1.377.177q-2.23-1.718-4.46-3.435a.907.907,0,0,1-.368-1.085A1.059,1.059,0,0,1-780.461-5735.619Z" transform="translate(844.857 5846.664)" fill="#fafbfe"/>
      <path id="Path_634" data-name="Path 634" d="M-838.83-5783.308a1.448,1.448,0,0,1,.794.353c1.42,1.089,2.846,2.169,4.259,3.267.467.362.7.842.293,1.372a.917.917,0,0,1-1.454.137c-1.436-1.115-2.884-2.215-4.322-3.327a.967.967,0,0,1-.442-1.145A1.071,1.071,0,0,1-838.83-5783.308Z" transform="translate(894.589 5887.292)" fill="#fafbfe"/>
      <path id="Path_635" data-name="Path 635" d="M-819.634-5730.756a.85.85,0,0,1,.489-.864.951.951,0,0,1,1.136.192c1.148.863,2.281,1.749,3.417,2.627.325.251.655.5.961.77a.855.855,0,0,1,.135,1.315.865.865,0,0,1-1.319.147q-2.2-1.679-4.4-3.368A.88.88,0,0,1-819.634-5730.756Z" transform="translate(877.447 5843.36)" fill="#fafbfe"/>
      <path id="Path_636" data-name="Path 636" d="M-1122.436-6057.689l.188.163Z" transform="translate(1135.407 6121.045)" fill="#fefefe"/>
      <path id="Path_637" data-name="Path 637" d="M-81.161-6259.414l1.785-1.667a20.863,20.863,0,0,1,14.335,12,10.294,10.294,0,0,1,.837,4.117.92.92,0,0,1-.924,1.063.841.841,0,0,1-.928-.856c-.28-4.763-2.973-8.109-6.5-10.922A16.349,16.349,0,0,0-81.161-6259.414Z" transform="translate(248.314 6294.32)" fill="#fefdf9"/>
      <path id="Path_638" data-name="Path 638" d="M-483.071-6349.06c.028.39-.094.633-.439.708-.461.1-.695-.119-.836-.553a28.442,28.442,0,0,1-1.045-4.256,24.336,24.336,0,0,1-.357-3.4c-.009-.47.091-.844.626-.858.487-.014.611.324.634.763a27.134,27.134,0,0,0,1.359,7.309A1.807,1.807,0,0,1-483.071-6349.06Z" transform="translate(592.993 6376.396)" fill="#040047"/>
      <path id="Path_639" data-name="Path 639" d="M-321.9-6396.451a1.594,1.594,0,0,1,.464.04.6.6,0,0,1,.446.67.513.513,0,0,1-.555.545,5.036,5.036,0,0,0-5.028,3.766.6.6,0,0,1-.84.412c-.389-.147-.45-.434-.346-.854A6.342,6.342,0,0,1-321.9-6396.451Z" transform="translate(458.435 6409.649)" fill="#040047"/>
      <path id="Path_640" data-name="Path 640" d="M-444.772-6362.83a1.255,1.255,0,0,1-1.29-1.252,1.265,1.265,0,0,1,1.241-1.218,1.233,1.233,0,0,1,1.274,1.168A1.223,1.223,0,0,1-444.772-6362.83Z" transform="translate(559.184 6383.108)" fill="#040047"/>
      <path id="Path_641" data-name="Path 641" d="M-294.9-6217.549c.024.168.074.351-.192.367A.307.307,0,0,1-294.9-6217.549Z" transform="translate(430.574 6257.235)" fill="#040047"/>
      <path id="Path_642" data-name="Path 642" d="M-293.655-6219.139c-.01.116.024.263-.172.254Z" transform="translate(429.49 6258.589)" fill="#040047"/>
    </g>
    <text id="Pebble_Cloud" data-name="Pebble
Cloud" transform="translate(1137.229 171.093)" fill="#c5928b" font-size="8" font-family="Roboto-Bold, Roboto" font-weight="700"><tspan x="0" y="0">Pebble</tspan><tspan x="0" y="11">Cloud</tspan></text>
    <rect id="Rectangle_1183" data-name="Rectangle 1183" width="64.701" height="3.376" transform="translate(1019.931 280.433)" fill="#e8d4cf"/>
    <rect id="Rectangle_1185" data-name="Rectangle 1185" width="64.701" height="3.376" transform="translate(1019.931 287.748)" fill="#e8d4cf"/>
    <g id="Group_477" data-name="Group 477" transform="translate(1116.452 149.462)">
      <path id="Path_643" data-name="Path 643" d="M2492.785-6617.108a23.386,23.386,0,0,1-1.156,3.758,11.161,11.161,0,0,1-10.649,6.551c-.808,0-1.3-.419-1.291-1.057s.5-1.058,1.306-1.054a9.21,9.21,0,0,0,7.81-3.788,9.328,9.328,0,0,0-4.887-14.519c-1.141-.327-1.262-.421-1.317-1.592a17.661,17.661,0,0,0-2.951-9.218,17.168,17.168,0,0,0-12.355-7.911c-7.9-1.022-13.979,2.015-18.229,8.735-.563.891-.868,1.006-1.881.643a6.989,6.989,0,0,0-9.289,5.073,1.929,1.929,0,0,1-1.648,1.686,10.7,10.7,0,0,0-7.923,10.475,10.615,10.615,0,0,0,9.116,10.266,44.068,44.068,0,0,0,4.6.144c1.174.021,1.5.331,1.506,1.51q.005,6.76,0,13.521c0,1.207-.3,1.509-1.487,1.514-.78,0-1.56.016-2.34-.007a.608.608,0,0,0-.7.478,4.493,4.493,0,0,1-4.83,3.021,4.559,4.559,0,0,1-3.981-3.639,4.578,4.578,0,0,1,2.487-5.031,4.552,4.552,0,0,1,6.3,2.536c.156.425.346.574.787.539.514-.039,1.034-.009,1.6-.009v-12.34c-1.006,0-2.019.028-3.028,0a12.742,12.742,0,0,1-12.012-10.975,12.711,12.711,0,0,1,8.9-13.924.877.877,0,0,0,.66-.68,9.1,9.1,0,0,1,10.981-6.431.76.76,0,0,0,.942-.371c4.622-6.627,10.979-9.693,19.025-8.954a19.963,19.963,0,0,1,17.5,16.151,18.29,18.29,0,0,1,.276,2.056,1.069,1.069,0,0,0,.807,1.058,11.234,11.234,0,0,1,7.038,8.009c.124.476.213.961.318,1.441Zm-58.09,26.146a2.445,2.445,0,0,0,2.473-2.468,2.475,2.475,0,0,0-2.48-2.474,2.508,2.508,0,0,0-2.457,2.448A2.477,2.477,0,0,0,2434.7-6590.962Z" transform="translate(-2426.231 6648.271)" fill="#c5928b"/>
      <path id="Path_644" data-name="Path 644" d="M2686.366-6110.482a5.559,5.559,0,0,1-2.84-1.693,4.567,4.567,0,0,1,1.863-7.16.816.816,0,0,0,.62-.934c-.018-4.831-.011-9.662-.011-14.494v-.775h-2.845c-1,0-1.993.012-2.99-.006-.771-.013-1.219-.419-1.214-1.054s.464-1.051,1.227-1.054q3.348-.018,6.694,0c.9,0,1.267.426,1.27,1.427.008,2.578,0,5.155,0,7.734,0,2.795,0,5.59-.006,8.385a.614.614,0,0,0,.47.707,4.6,4.6,0,0,1,3.07,4.384,4.65,4.65,0,0,1-3.513,4.392c-.166.045-.331.094-.5.142Zm3.17-4.6a2.451,2.451,0,0,0-2.478-2.465,2.471,2.471,0,0,0-2.46,2.426,2.505,2.505,0,0,0,2.454,2.514A2.483,2.483,0,0,0,2689.536-6115.083Z" transform="translate(-2659.472 6177.014)" fill="#c5928b"/>
      <path id="Path_645" data-name="Path 645" d="M2833.393-6110.482a4.881,4.881,0,0,1-3.434-2.423,4.563,4.563,0,0,1,2.431-6.475c.339-.127.539-.236.537-.662-.016-5.026-.011-10.052-.013-15.078,0-.106-.023-.212-.046-.42h-.69q-2.534,0-5.069,0a1.109,1.109,0,0,1-1.186-.715c-.262-.709.272-1.388,1.141-1.4,1.646-.019,3.293,0,4.939-.006.607,0,1.213-.013,1.819,0a1.128,1.128,0,0,1,1.237,1.2c.013.194,0,.391,0,.585v15.663c0,.342-.046.627.428.8a4.557,4.557,0,0,1,3.094,4.425,4.618,4.618,0,0,1-3.412,4.332c-.162.049-.32.112-.479.169Zm-1.869-4.629a2.488,2.488,0,0,0,2.456,2.5,2.51,2.51,0,0,0,2.483-2.485,2.473,2.473,0,0,0-2.435-2.454A2.451,2.451,0,0,0,2831.523-6115.111Z" transform="translate(-2795.056 6177.015)" fill="#c5928b"/>
      <path id="Path_646" data-name="Path 646" d="M2980.055-6135.5h-5.294a8.1,8.1,0,0,1-.844-.027.971.971,0,0,1-.932-.991.985.985,0,0,1,.8-1.044,2.242,2.242,0,0,1,.579-.053q3.217,0,6.434,0c.992,0,1.378.388,1.379,1.383q.007,6.174,0,12.348v.7c.686,0,1.311.035,1.928-.022.172-.017.385-.28.465-.479a4.476,4.476,0,0,1,3.7-2.979,4.333,4.333,0,0,1,4.393,1.942,4.323,4.323,0,0,1,.178,4.9,4.319,4.319,0,0,1-4.228,2.255,4.285,4.285,0,0,1-3.96-2.875.847.847,0,0,0-.989-.64c-.735.033-1.473.013-2.209.007-1.062-.008-1.4-.336-1.4-1.4q-.008-6.078,0-12.153Zm8.827,15.835a2.478,2.478,0,0,0,2.5-2.462,2.509,2.509,0,0,0-2.491-2.48,2.475,2.475,0,0,0-2.447,2.443A2.447,2.447,0,0,0,2988.883-6119.669Z" transform="translate(-2930.846 6176.978)" fill="#c5928b"/>
      <path id="Path_647" data-name="Path 647" d="M2912.827-6575.047a14.377,14.377,0,0,1,10.161,5.062,1.069,1.069,0,0,1,.067,1.613,1.09,1.09,0,0,1-1.649-.214,13.275,13.275,0,0,0-3.571-2.879,12.258,12.258,0,0,0-5.335-1.466,3.709,3.709,0,0,1-.708-.069.971.971,0,0,1-.8-1.1.969.969,0,0,1,.973-.948C2912.218-6575.062,2912.479-6575.047,2912.827-6575.047Z" transform="translate(-2873.623 6580.696)" fill="#c5928b"/>
      <path id="Path_648" data-name="Path 648" d="M3075.947-6458.968c.012.194.037.389.031.583a1.081,1.081,0,0,1-1.016,1.132,1.091,1.091,0,0,1-1.083-1c-.065-.47-.027-.958-.123-1.419-.206-.991-.467-1.972-.708-2.955a1.033,1.033,0,0,1,.823-1.409,1.021,1.021,0,0,1,1.2.838c.371,1.391.7,2.795,1.042,4.193Z" transform="translate(-3023.152 6478.252)" fill="#c5928b"/>
    </g>
    <g id="Rectangle_1181" data-name="Rectangle 1181" transform="translate(1014.304 245.551)" fill="none" stroke="#c5928b" stroke-width="2">
      <rect width="77.079" height="53.449" rx="2" stroke="none"/>
      <rect x="1" y="1" width="75.079" height="51.449" rx="1" fill="none"/>
    </g>
    <g id="Rectangle_1182" data-name="Rectangle 1182" transform="translate(1039.623 249.489)" fill="none" stroke="#697f64" stroke-width="1" stroke-dasharray="2">
      <rect width="25.318" height="17.441" stroke="none"/>
      <rect x="0.5" y="0.5" width="24.318" height="16.441" fill="none"/>
    </g>
    <path id="Icon_awesome-upload" data-name="Icon awesome-upload" d="M4.111,5.337H3A.332.332,0,0,1,2.666,5V2.671H1.448a.277.277,0,0,1-.2-.474L3.365.083a.269.269,0,0,1,.379,0L5.858,2.2a.277.277,0,0,1-.2.474H4.444V5A.332.332,0,0,1,4.111,5.337Zm3-.111V6.781a.332.332,0,0,1-.333.333H.333A.332.332,0,0,1,0,6.781V5.226a.332.332,0,0,1,.333-.333H2.222V5A.778.778,0,0,0,3,5.781H4.111A.778.778,0,0,0,4.888,5V4.893H6.777A.332.332,0,0,1,7.11,5.226ZM5.388,6.448a.278.278,0,1,0-.278.278A.279.279,0,0,0,5.388,6.448Zm.889,0A.278.278,0,1,0,6,6.726.279.279,0,0,0,6.277,6.448Z" transform="translate(1048.726 254.65)" fill="#fc9433"/>
    <rect id="Rectangle_1184" data-name="Rectangle 1184" width="47.823" height="3.376" transform="translate(1019.931 280.433)" fill="#c5928b"/>
    <rect id="Rectangle_1186" data-name="Rectangle 1186" width="33.195" height="3.376" transform="translate(1019.931 287.748)" fill="#c5928b"/>
    <text id="Upload_Image" data-name="Upload Image" transform="translate(1038.497 272.056)" fill="#3f3d56" font-size="4" font-family="Roboto-Regular, Roboto"><tspan x="0" y="0">Upload Image</tspan></text>
    <path id="Path_688" data-name="Path 688" d="M-603.2-2704.338v-58.924h57.354" transform="translate(1655.202 2940.887)" fill="none" stroke="#c5928b" stroke-width="2"/>
    <circle id="Ellipse_185" data-name="Ellipse 185" cx="4" cy="4" r="4" transform="translate(1048.461 235.393)" fill="#c5928b"/>
    <circle id="Ellipse_187" data-name="Ellipse 187" cx="4" cy="4" r="4" transform="translate(1010.509 137.5)" fill="#c5928b"/>
    <circle id="Ellipse_184" data-name="Ellipse 184" cx="4" cy="4" r="4" transform="translate(1104.819 173.093)" fill="#c5928b"/>
    <g id="Group_479" data-name="Group 479" transform="translate(846.735 114.179)">
      <g id="Polygon_17" data-name="Polygon 17" transform="translate(38.413 0) rotate(90)" fill="none">
        <path d="M33.011,0l11,19.206-11,19.206H11L0,19.206,11,0Z" stroke="none"/>
        <path d="M 11.58327865600586 1.000003814697266 L 1.152496337890625 19.20645332336426 L 11.58326721191406 37.41290283203125 L 32.4315185546875 37.41290283203125 L 42.86228942871094 19.20645332336426 L 32.4315185546875 1.000003814697266 L 11.58327865600586 1.000003814697266 M 11.00370407104492 3.814697265625e-06 L 33.01109313964844 3.814697265625e-06 L 44.0147819519043 19.20645332336426 L 33.01109313964844 38.41290283203125 L 11.00369262695313 38.41290283203125 L 3.814697265625e-06 19.20645332336426 L 11.00370407104492 3.814697265625e-06 Z" stroke="none" fill="#c5928b"/>
      </g>
      <path id="Path_598" data-name="Path 598" d="M0,0,19.539,9.485" transform="translate(0 11.204)" fill="none" stroke="#c5928b" stroke-width="1"/>
      <line id="Line_39" data-name="Line 39" x1="19.206" y2="9.603" transform="translate(19.206 11.204)" fill="none" stroke="#c5928b" stroke-width="1"/>
      <line id="Line_40" data-name="Line 40" y2="22.408" transform="translate(19.206 20.807)" fill="none" stroke="#c5928b" stroke-width="1"/>
    </g>
    <g id="Group_480" data-name="Group 480" transform="translate(474.892 489.507)">
      <g id="Polygon_17-2" data-name="Polygon 17" transform="translate(30.1 0) rotate(90)" fill="none">
        <path d="M25.867,0l8.622,15.05L25.867,30.1H8.622L0,15.05,8.622,0Z" stroke="none"/>
        <path d="M 9.201927185058594 1.000003814697266 L 1.152496337890625 15.04991436004639 L 9.20191764831543 29.09982490539551 L 25.28746604919434 29.09982490539551 L 33.33689117431641 15.04991436004639 L 25.28746604919434 1.000003814697266 L 9.201927185058594 1.000003814697266 M 8.622352600097656 3.814697265625e-06 L 25.86704254150391 3.814697265625e-06 L 34.48938369750977 15.04991436004639 L 25.86704254150391 30.09982490539551 L 8.622341156005859 30.09982490539551 L 0 15.04991436004639 L 8.622352600097656 3.814697265625e-06 Z" stroke="none" fill="#c5928b"/>
      </g>
      <path id="Path_598-2" data-name="Path 598" d="M0,0,15.31,7.433" transform="translate(0 8.779)" fill="none" stroke="#c5928b" stroke-width="1"/>
      <line id="Line_39-2" data-name="Line 39" x1="15.05" y2="7.525" transform="translate(15.05 8.779)" fill="none" stroke="#c5928b" stroke-width="1"/>
      <line id="Line_40-2" data-name="Line 40" y2="17.558" transform="translate(15.05 16.304)" fill="none" stroke="#c5928b" stroke-width="1"/>
    </g>
    <g id="Group_482" data-name="Group 482" transform="translate(849.985 572.767)">
      <g id="Polygon_17-3" data-name="Polygon 17" transform="translate(19.175 0) rotate(90)" fill="none">
        <path d="M16.478,0l5.493,9.587-5.493,9.587H5.493L0,9.587,5.493,0Z" stroke="none"/>
        <path d="M 6.072339057922363 1.000003814697266 L 1.152494430541992 9.587374687194824 L 6.072339057922363 18.17474555969238 L 15.89872646331787 18.17474555969238 L 20.81857109069824 9.587374687194824 L 15.89872646331787 1.000003814697266 L 6.072339057922363 1.000003814697266 M 5.492763519287109 3.814697265625e-06 L 16.47830200195313 3.814697265625e-06 L 21.9710636138916 9.587374687194824 L 16.47830200195313 19.17474555969238 L 5.492763519287109 19.17474555969238 L 1.9073486328125e-06 9.587374687194824 L 5.492763519287109 3.814697265625e-06 Z" stroke="none" fill="#c5928b"/>
      </g>
      <path id="Path_598-3" data-name="Path 598" d="M0,0,9.753,4.735" transform="translate(0 5.593)" fill="none" stroke="#c5928b" stroke-width="1"/>
      <line id="Line_39-3" data-name="Line 39" x1="9.587" y2="4.794" transform="translate(9.587 5.593)" fill="none" stroke="#c5928b" stroke-width="1"/>
      <line id="Line_40-3" data-name="Line 40" y2="11.185" transform="translate(9.587 10.386)" fill="none" stroke="#c5928b" stroke-width="1"/>
    </g>
    <g id="Group_483" data-name="Group 483" transform="translate(171.413 134.029)">
      <g id="Polygon_17-4" data-name="Polygon 17" transform="translate(19.175 0) rotate(90)" fill="none">
        <path d="M16.478,0l5.493,9.587-5.493,9.587H5.493L0,9.587,5.493,0Z" stroke="none"/>
        <path d="M 6.072339057922363 1.000003814697266 L 1.152494430541992 9.587374687194824 L 6.072339057922363 18.17474555969238 L 15.89872646331787 18.17474555969238 L 20.81857109069824 9.587374687194824 L 15.89872646331787 1.000003814697266 L 6.072339057922363 1.000003814697266 M 5.492763519287109 3.814697265625e-06 L 16.47830200195313 3.814697265625e-06 L 21.9710636138916 9.587374687194824 L 16.47830200195313 19.17474555969238 L 5.492763519287109 19.17474555969238 L 1.9073486328125e-06 9.587374687194824 L 5.492763519287109 3.814697265625e-06 Z" stroke="none" fill="#c5928b"/>
      </g>
      <path id="Path_598-4" data-name="Path 598" d="M0,0,9.753,4.735" transform="translate(0 5.593)" fill="none" stroke="#c5928b" stroke-width="1"/>
      <line id="Line_39-4" data-name="Line 39" x1="9.587" y2="4.794" transform="translate(9.587 5.593)" fill="none" stroke="#c5928b" stroke-width="1"/>
      <line id="Line_40-4" data-name="Line 40" y2="11.185" transform="translate(9.587 10.386)" fill="none" stroke="#c5928b" stroke-width="1"/>
    </g>
    <text id="IoTeX" transform="translate(974.289 121.478)" fill="#e2ada6" font-size="10" font-family="Roboto-Medium, Roboto" font-weight="500"><tspan x="0" y="0">IoTeX</tspan></text>
    <path id="Path_691" data-name="Path 691" d="M-3240.285-6287.812c.007-.489-.178-.676-.65-.777-1.25-.269-2.472-.687-3.731-.877a2.2,2.2,0,0,1-2.2-2.087,1.64,1.64,0,0,1,.47-1.614c1.231-1.272,2.381-2.624,3.638-4.026-.685-1.183-1.55-2.641-2.374-4.123a.669.669,0,0,0-.931-.373c-1.143.365-2.34.594-3.437,1.062a2.375,2.375,0,0,1-3.272-.815,1.138,1.138,0,0,1-.291-1.157c.542-1.74,1.044-3.492,1.564-5.25-.17-.114-.294-.208-.427-.285-1.4-.813-2.794-1.637-4.213-2.415a.771.771,0,0,0-.7.147,20.241,20.241,0,0,0-2.33,2.431c-1,1.357-2.121,1.811-3.695,1.066-.379-.18-.641-.3-.745-.757-.4-1.775-.859-3.539-1.31-5.371-1.833,0-3.632-.012-5.43.021-.159,0-.4.28-.455.471a22.828,22.828,0,0,0-.788,3.269c-.2,1.655-.938,2.609-2.667,2.771a1.034,1.034,0,0,1-1.023-.281c-1.126-1.2-2.266-2.39-3.432-3.552a.864.864,0,0,0-.753-.218c-1.554.853-3.079,1.758-4.652,2.672a37.13,37.13,0,0,0,1.2,3.986,2.422,2.422,0,0,1-.813,3.331c-.369.269-.6.447-1.083.293-1.564-.5-3.152-.934-4.723-1.414a.669.669,0,0,0-.935.361c-.82,1.484-1.69,2.94-2.439,4.231a26.732,26.732,0,0,0,2.916,3.136,2.542,2.542,0,0,1,.917,3.514,1.23,1.23,0,0,1-.636.624c-1.636.444-3.285.846-4.938,1.223-.454.1-.671.256-.661.763q.045,2.313,0,4.626c-.01.473.189.636.6.73,1.271.293,2.521.724,3.808.889a2.276,2.276,0,0,1,2.292,2.194,1.314,1.314,0,0,1-.381,1.281c-1.29,1.364-2.523,2.783-3.858,4.27.676,1.167,1.55,2.652,2.4,4.151a.573.573,0,0,0,.805.33c1.393-.44,2.831-.752,4.2-1.263a1.966,1.966,0,0,1,2.616.647,1.23,1.23,0,0,1,.339,1.294c-.575,1.81-1.074,3.645-1.617,5.518,1.582.918,3.129,1.834,4.7,2.7.15.082.531-.063.689-.22,1.018-1.016,2.068-2.009,2.978-3.117a2.057,2.057,0,0,1,2.722-.8c.528.227.856.4.987,1,.373,1.708.8,3.4,1.243,5.095.051.2.286.487.44.49,1.8.035,3.6.022,5.434.022.388-1.57.874-3.069,1.1-4.605.2-1.345.754-2.086,2.137-2.245a1.07,1.07,0,0,1,1.089.305c.955,1.039,1.95,2.04,2.927,3.06,1.165,1.216,1.165,1.219,2.62.377,1.189-.689,2.376-1.381,3.556-2.067-.481-1.645-.854-3.226-1.416-4.738a1.987,1.987,0,0,1,.669-2.62,1.236,1.236,0,0,1,1.3-.316c1.642.517,3.3.99,4.958,1.446.215.059.621,0,.708-.144.931-1.535,1.816-3.1,2.559-4.386a34.077,34.077,0,0,0-3.052-3.333c-1.121-.947-1.569-1.847-.922-3.247.2-.43.362-.672.819-.777,1.653-.379,3.3-.8,4.948-1.187a.685.685,0,0,0,.636-.791C-3240.309-6284.779-3240.307-6286.3-3240.285-6287.812Zm-27.447,19.333a17.021,17.021,0,0,1-17.021-17.021,17.021,17.021,0,0,1,17.021-17.021,17.021,17.021,0,0,1,17.021,17.021A17.021,17.021,0,0,1-3267.731-6268.479Z" transform="translate(4254.583 6403.493)" fill="#c5928b"/>
    <line id="Line_48" data-name="Line 48" x1="37" y1="36" transform="translate(1014.5 141.5)" fill="none" stroke="#c5928b" stroke-width="2"/>
  </g>
</svg>
