<svg xmlns="http://www.w3.org/2000/svg" width="19.558" height="19.558" viewBox="0 0 19.558 19.558">
  <path id="Icon_metro-instagram" data-name="Icon metro-instagram" d="M18.881,1.928H5.818A3.256,3.256,0,0,0,2.571,5.175V18.239a3.256,3.256,0,0,0,3.247,3.247H18.881a3.256,3.256,0,0,0,3.247-3.247V5.175a3.256,3.256,0,0,0-3.247-3.247ZM8.831,10.485h7.036a3.724,3.724,0,1,1-7.036,0Zm10.852,0v7.333a1.226,1.226,0,0,1-1.222,1.222H6.238a1.226,1.226,0,0,1-1.222-1.222V10.485H6.927a5.558,5.558,0,1,0,10.844,0Zm0-4.279a.613.613,0,0,1-.611.611H17.85a.613.613,0,0,1-.611-.611V4.984a.613.613,0,0,1,.611-.611h1.222a.613.613,0,0,1,.611.611Z" transform="translate(-2.571 -1.928)" fill="#31183d"/>
</svg>
