<svg xmlns="http://www.w3.org/2000/svg" width="22" height="22" viewBox="0 0 22 22">
  <path id="Icon_material-local-offer" data-name="Icon material-local-offer" d="M24.351,13.538l-9.9-9.9A2.186,2.186,0,0,0,12.9,3H5.2A2.206,2.206,0,0,0,3,5.2v7.7a2.2,2.2,0,0,0,.649,1.562l9.9,9.9A2.186,2.186,0,0,0,15.1,25a2.151,2.151,0,0,0,1.551-.649l7.7-7.7A2.151,2.151,0,0,0,25,15.1a2.222,2.222,0,0,0-.649-1.562ZM6.85,8.5A1.65,1.65,0,1,1,8.5,6.85,1.648,1.648,0,0,1,6.85,8.5Z" transform="translate(-3 -3)" fill="#432968"/>
</svg>
