<svg xmlns="http://www.w3.org/2000/svg" xmlns:xlink="http://www.w3.org/1999/xlink" width="980" height="497.348" viewBox="0 0 980 497.348">
  <defs>
    <radialGradient id="radial-gradient" cx="0.5" cy="0.5" r="2.413" gradientTransform="translate(0.426) scale(0.148 1)" gradientUnits="objectBoundingBox">
      <stop offset="0" stop-color="#fff37d"/>
      <stop offset="1" stop-color="#eb6619"/>
    </radialGradient>
  </defs>
  <g id="Group_578" data-name="Group 578" transform="translate(-193 -648.216)">
    <g id="Group_516" data-name="Group 516" transform="translate(-2797.782 1089.127)">
      <path id="Path_825" data-name="Path 825" d="M3518.431-158.121c-6.839-10.964-12.439-22.221-12.339-35.738.045-6.075-1.755-12.161-2.8-18.788-2.812.929-4.941,1.63-5.946,1.962-3.439-7.772-6.667-15.073-9.8-22.148-10.611-.309-15.3,7.332-21.036,13.584-5.658,6.169-12.277,11.209-11.4,21.435.411,4.789-3.2,9.921-4.982,14.9l-3.636.081c-4.374-15.471-8.749-30.943-12.729-45.022-2.616-1.786-5.81-2.9-7.256-5.148-4.509-6.992-8.846-11.051-18.8-11.07-12.439-.023-25.857-2.506-33.706-15.135-.668-1.074-2.788-1.245-4.233-1.834l-2.537,1.807,11.321,20.549c3.621-1.809,6.886-3.443,10.574-5.287.361.512.874,2.041,1.9,2.57,11.423,5.88,7.706,14.308,1.556,20.068-10.79,10.1-22.235,20.151-38.168,21.7-1.82-20.947-14.3-36.96-24.631-54.068a147.372,147.372,0,0,0,11.055,34.89c3.292,6.934,9.183,12.634,13.906,18.887-2.429,8.147,1.187,10.066,8.471,8.235,3.893-.979,7.8-1.914,13.018-3.194-2.531,12.856-6.55,23.822-14.619,33.17-4.252,4.928-8.106,10.209-12.464,15.04-7.577,8.394-7.395,18.116-4.549,27.906,3.563,12.258,5.38,23.48-7.987,31.445-2.363,1.406-5.445,5.5-4.876,7.318,4.515,14.443-7.591,23.15-11.352,34.629-4.439,13.549-16.928,14.658-28.547,15.946-1.854.205-5.266-2.916-6.011-5.15-5.6-16.77-11.086-33.6-15.755-50.645-1.465-5.345-2.033-12.107-.038-17.01,6-14.741,1.351-27.014-5.569-39.756-2.356-4.337-2.59-10.313-2.325-15.463.326-6.347-2.252-7.842-7.025-12.155-10.17-9.191-17.121-3.339-26.008-1.379-12.356,2.725-23.266.319-29.343-12.607-4.735-10.072-13.252-18.176-9.017-31.878,2.688-8.7-2.634-19.435,4.39-28.105,2.955-3.648,5.917-7.305,8.653-11.118,1.911-2.665,4.244-5.405,4.995-8.454,2.48-10.074,8.683-14.488,18.835-16.04,11.842-1.811,23.393-5.53,36.726-8.832v13.75c8.027,4.161,16.081,8.334,25.2,13.061.523-11.362,5.738-9.921,13.686-6.951,7.241,2.7,16.309,4.717,23.223,2.609,4.509-1.375,6.608-10.655,10.226-17.185-10.159-1.261-17.351-1.334-23.917-3.4-2.4-.753-3.3-6.241-4.875-9.543,10.989-5.754,21.323-10.2,33.368-4.652,2.3,1.062,6.03-.952,12.2-2.149-6.638-5.453-10.757-8.836-15.038-12.352l2.563-6.135-1.632-1.867-10.3,8.456c-1.5-1.383-4.078-3.758-8.481-7.813-3.852,7.9-7.11,14.59-10.839,22.241-11.616-3.729-10.79,6.735-12.539,15.478-5.647-14.194-12.847-25.72-28.265-30.4l14.493,19.962-2.294,1.5-20.006-18.091-16.57,4.034c-3.141,5.094-6.552,12.785-11.985,18.587-2.908,3.107-9.494,4.511-14.053,3.906-6.082-.807-9.587-5.231-7.284-12.522.981-3.109.164-6.785.164-11.313h22.9l-7.99-17.761c4.53-2.736,10.319-6.247,16.123-9.738,5.7-3.426,11.412-6.834,16.434-9.84l1.991-12.7,3.178.454v11.317c8.819-.655,17.369-1.105,25.855-2.1,1.418-.168,2.559-2.7,3.829-4.146q3.089-3.506,6.183-7.011l2.784,1.365c-.519-1.865-1.037-3.731-1.775-6.393l13.849-2.545-.272-2.228c-3.542.28-7.135,1.049-10.615.7-3.19-.319-6.26-1.844-9.381-2.84,1.3-3.165,2.211-6.575,4.018-9.421,1.346-2.122,3.843-3.516,6.768-6.046-11.947-3.96-13.592,8.6-20.829,10.85-.61.189.549,6.069,1.093,11.269-2.926,3.578-7.3,8.921-12.283,15.007l-7.72-15.03c-5.055.174-11.006,9.983-14.816-1.205-1.937-5.692-.869-8.73,4.7-12.447,8.054-5.374,14.58-13.038,21.761-19.723a12.391,12.391,0,0,1,1.937-1.709c15.919-9.462,52.742-5.851,71.088,8.461h-22.163c3.42,4.014,7.227,9.7,8.073,9.286,8.372-4.061,16.253-9.135,24.4-14,.417,5.25,2.719,4.063,8.535,1.5,7.345-3.232,16.225-3.2,24.5-4.038,9.869-1,19.8-1.435,27.816-1.987.753-2.725,1.3-7.015,3.2-10.582.927-1.738,5.026-3.481,6.538-2.769,1.8.848,3.111,4.252,3.333,6.669.488,5.268.151,10.612.151,15.424,4.81-1.9,4.81-1.9,3.821-17.79l21.3-2.012-3.1-4.269c18.314-3.59,36.719-4.362,52.518-11.174,13.043-5.623,23.134,2.062,34.536.711.84-.1,1.885,1.539,3.833,3.24-4.065,2.006-7.247,3.576-10.429,5.144l-.052,1.69c13.917,0,27.84-.2,41.75.112,4.584.1,11.09-2.18,11.594,6.341.066,1.122,2.6,3.171,3.692,2.991,8.626-1.417,17.118-4.113,25.771-4.752,8.708-.643,17.581.338,26.33,1.161,5.916.558,11.736,2.118,17.612,3.153,11.08,1.952,22.131,4.163,33.28,5.592,3.857.494,8.2-2.155,11.924-1.4,11.684,2.365,23.191,5.613,34.739,8.633,4.266,1.116,8.452,2.547,13.5,4.088-5.13,6.2-9.566,8.156-16.521,3.559a9.5,9.5,0,0,0-13.107,2.23c-1.348,1.8-1.043,4.837-1.5,7.374-3.1.732-7.061,1.585-10.979,2.614-7.793,2.045-15.465,4.694-23.364,6.137-6.921,1.265-11.7,2.765-9.646,11.564.564,2.421-1.5,6.1-3.408,8.305-3.489,4.04-7.755,7.411-11.578,10.95-7.1-11.445-6.241-15.9,4.852-24.27,4.644-3.5,9.091-7.272,13.518-11.053.653-.56.687-1.848.455-1.157-4.238-.048-8.836-.226-13.427-.093-2.01.058-4.912.048-5.855,1.269-6.069,7.859-14.291,7.129-23,7.813-19.017,1.5-18.96,2.192-37.535,17.05,5.721.909,9.674.9,13.09,2.257,3.3,1.307,7.233,3.4,8.728,6.266,1.73,3.319,1.105,7.867,1.5,11.883l-2.922.357c-.6-3.35-1.191-6.7-1.822-10.251-4.417,7.807-7.955,15.337-12.7,22.007-3.345,4.7-6.519,9.6-14.517,9.786-4.026.093-7.88,7.525-11.659,11.479,7.046,12.962,6.817,14.443-2.956,17.473,2.28-11.8-5.488-16.838-14.6-21.472-2.723,2.026-5.716,4.258-10.532,7.845,4.81,2.062,8.589,3.68,12.41,5.318-2.076,1.9-4.219,3.868-7.185,6.59,10.908,14.55,7.466,28.447-4.56,39.828-6.082,5.756-13.739,10.79-23.872,9.72-2.269-.238-5.52,6.619-7.8,10.512-.463.792,1.3,3.022,2.221,4.468,9.747,15.237,9.554,16.766-3.708,28.748-3.267-3.87-6.457-7.816-9.853-11.574-1.083-1.2-2.709-1.912-4.146-2.889-5.385,10.163-2.147,17.834,4.5,26.087,2.935,3.642,1.691,10.651,2.342,16.133ZM3389.383-316.792c-4.032-4.665-6.54-10.288-10.17-11.142-5.884-1.388-12.5.355-22.25,1,4.97,9.707,9.176,17.85,13.283,26.039a6.4,6.4,0,0,1,.72,3.485c-1.564,11.543,1.008,13.9,15.214,11.157-2.655-8.919-5.242-17.606-7.638-25.651Z" transform="translate(213.565 11.597)" fill="#f5e8e5"/>
      <path id="Path_826" data-name="Path 826" d="M3138.844-410.128c-5.634-1.981-11.346-3.989-16.438-5.777l-18.222,1.365c6.135-10.421,14.567-13.8,23.89-9.064,10.865,5.515,21.178,7.125,30.659,2.074,3.748,5.082,6.961,9.44,10.6,14.382-2.491.749-5.544,1.666-8.6,2.586,12.765,7.092,24.745,2.981,26.436-11.729,1.284-11.153,6.308-7.33,12.416-5.741l-9.147,6.021,19.915,16.529,5.748-7.372c-5.318-3.086-9.672-5.611-16.011-9.288l11.016-7.189,1.541,7.407c1.224-.116,2.176.042,2.356-.261,3.646-6.067,16.672-8.019,23.9-3.852,4.617,2.661,9.786,4.385,14.335,7.143,8.586,5.21,16.906,10.865,25.448,16.409-3.12,11.286-9.824-1.485-16.423,2.692l11.117,6.245-1.41,2.483a25.351,25.351,0,0,1-4,1.023c-4.078.384-8.49,1.707-12.19.647-6.449-1.85-12.464-5.208-17.913-7.606l12.97-7.343-.015-3.686c-8.336-3-16.672-5.992-25.973-9.334v11.244c-10.093,6.185-19.985,11.736-29.234,18.2-3.018,2.109-6.857,7.753-5.932,9.771,1.719,3.758,6.282,6.83,10.341,8.763,6.718,3.2,14.051,5.094,20.941,7.979,1.345.564,1.8,3.167,2.747,4.783,1.763,3.02,3.584,6,6.509,10.885,1.462-4.094,2.441-5.781,2.582-7.533.131-1.647-1.373-4.565-.877-4.876,12.88-8.05-.11-19.794,5.027-29.725,8.243,1.207,18-.724,22.646,10.935.572,1.435,7.861.195,13.592.195,5.579,5.48,13.627,12.543,20.5,20.607,2.292,2.69,1.574,7.944,2.309,12.505,2.386,2.443,5.53,5.667,10.371,10.628-8.029-1.091-13.072-1.773-18.84-2.557q2.5-6.092,4.748-11.562c-10.137,1.7-19.769,3.317-29.4,4.935l.313,2.547,9.091-.852c-4,8.985,1.268,11.462,9.718,12.847L3268.109-314c.562-2.86.886-4.5,1.566-7.975-5.285,5.994-15.463,3.841-14.536,15.094.185,2.267-8.257,4.325-10.358,7.878-5.4,9.141-7.77,20.005-17.3,26.755-1.607,1.137-.736,6.335-.353,9.579.483,4.094,1.641,8.112,2.506,12.161l-2.865.981c-1.323-2.448-2.966-4.779-3.912-7.365-3.293-9-11.551-12.4-20.281-8.094-.84.415-1.763,1.89-2.194,1.719-7.627-3-15.6-.763-17.284,5.986-2.1,8.419-.425,18.012.9,26.906.4,2.676,5.154,6.633,7.791,6.538,3.134-.112,6.179-3.9,9.18-6.2,2.539-1.952,4.959-4.057,7.434-6.094l1.83,1.825-4.213,19.369c10.971-1.249,16.546,1.7,13.949,14.131-.784,3.76,4.385,8.761,7.363,14.171-5.681,1.5-9.784-4.374-12.746-8.6-7.907-11.275-18.458-16.33-31.469-20.138-9.625-2.817-22.495-5.532-23.405-20.512-.2-3.327-3.468-6.575-5.609-9.66-5.783-8.332-11.719-16.558-18.234-25.728l-2.257,6.243c-.56-.38-1.271-.628-1.618-1.13-6.277-9.066-12.311-18.307-18.811-27.2-5.509-7.542-5.532-15.673-4.144-24.3,1.135-7.065.2-13.144-6.492-18.008-3.461-2.516-4.457-8.172-7.54-11.514-12.85-13.926-26.236-27.271-46.931-28.169-2.016-.087-4.07,1.085-6.11,1.1-12.767.126-19.47,12.368-32.322,16.168l6.868-8.062c-8.069-3.808-15.689-7.407-23.308-11l.427-3.491,15.168-7.463-18.016-3.57.4-3.58,15.8-.745-13.412-7.459c13.06-7.158,25.32-9.815,40.389-7.813,19.271,2.562,38.725,7.187,58.83,3.041,9.021-1.861,19.035,1.674,28.586,1.578C3127.379-406.714,3133.359-408.966,3138.844-410.128Z" transform="translate(0 16.336)" fill="#f5e8e5"/>
      <path id="Path_827" data-name="Path 827" d="M3169.988-148.231c2.263,7.129-1.3,10.414-8.038,13.385-5.861,2.589-12.32,5.822-13.389,14.291-.5,3.951-4.061,7.515-6.638,11.947,1,1.087,2.526,2.748,4.049,4.414-11.439,15.1-11.439,15.1-1.946,25.936-14.028,4.8-26.34-5.893-24.042-21.891,2.462-17.141,6.813-34.01,9.216-51.156,2.431-17.342,3.758-34.861,4.885-52.344.205-3.184-2.012-8.232-4.595-9.583-10-5.231-13.03-14.66-16.187-24.029-3.2-9.487-11.419-17.695-7.61-29.078,1.365-4.076,1.556-8.712,3.588-12.364,6.909-12.412,7.239-13.416,2.514-26.471,2.377-1.342,5.914-2.1,6.785-4.047,3.234-7.237,8.587-8.643,15.2-6.388,11.638,3.966,26.363,1.464,33.284,15.774.846,1.751,3.951,3.514,5.934,3.431,11.19-.465,14.527,8.208,15.8,15.824.952,5.7,3.549,6.563,7.382,8.4,9.841,4.708,19.4,10.024,29.266,14.673,7.934,3.736,7.3,10.564,3.927,15.488-6.818,9.96-10.029,20.5-11.217,32.314-.867,8.612-3.812,16.16-14.231,18.927-6.133,1.63-8.608,7.312-11.095,14.256C3188.892-165.522,3184.644-152.415,3169.988-148.231Z" transform="translate(122.376 133.538)" fill="#f5e8e5"/>
      <path id="Path_828" data-name="Path 828" d="M3404.978-264.689c3.059-11.966,12.219-10.553,21.15-10.383.052,7.981-1.885,17.193,11.18,18.522.865-6.3,1.853-13.488,2.744-19.974,8.515,14.677,16.285,29.513,25.457,43.427,7.318,11.1,7.147,21.644,1.85,32.957-1.018,2.176-2.75,4.244-3.033,6.5-1.563,12.426-10.25,14.5-20.379,14.16-2.593-.087-6.772-1.11-7.421-2.788-3.392-8.766-11.041-12.638-17.708-18.064-8.755-7.129-16.585-3.259-24.791-.307-6.911,2.489-13.561,5.779-20.584,7.83-1.643.479-5.922-2.311-6.27-4.119-1.966-10.226-2.638-20.7-4.687-30.905-1.411-7.025.944-12.794,6.8-14.279,12.1-3.068,17.249-12.8,24.336-21.043,1.911-2.221,5.974-2.591,9.048-3.808Z" transform="translate(398.851 176.582)" fill="#f5e8e5"/>
      <path id="Path_829" data-name="Path 829" d="M3174.771-392.891l-9.377,2.022-.909-2.128c2.514-1.193,5.028-2.387,9.573-4.547l-10.987-1.033c.334.257-.11.1-.166-.151-4.461-19.792-19.767-15.822-33.741-16.17-3.9-.1-7.687-4.781-12.69-8.143l20.132-3.5-7.044-5.136c13.829-1.7,25.367-3.178,36.921-4.511,13.144-1.518,26.28-3.75,39.461-4.132,15.438-.446,31.646-1.823,46.124,2.215,8.981,2.5,17.377,3.132,26.62,4.916-4.158,1.321-8.715,1.981-12.358,4.165-3.153,1.892-7.585,5.629-7.451,8.351.666,13.366,1.139,13.343-12.52,17.369l9.745,8.386-12.25-2.141-.718,1.682,6.8,3.7c-4.856,1.7-8.83,3.682-13.028,4.47-22.258,4.179-32.208,11.176-43.5,32.845-6.967-5.492-14.559-9.84-19.892-16.11C3167.334-377.752,3168.226-379.046,3174.771-392.891Z" transform="translate(135.015 0)" fill="#f5e8e5"/>
      <path id="Path_830" data-name="Path 830" d="M3125.524-415.267l-19.769-2.024,1.634-4.652-21.914-5.714.093-4.109,16-1.379c4.229-6.059,55.7-10.373,73.97-3.819-11.327,3.385-21.42,5.911-31.109,9.523-4.316,1.61-7.73,5.538-11.728,8.149a67.1,67.1,0,0,1-7.473,3.7Z" transform="translate(101.719 0.717)" fill="#f5e8e5"/>
      <path id="Path_831" data-name="Path 831" d="M3432.687-265.008c-2.029-1.273-4.586-2.13-5.984-3.9-3.647-4.615-6.212-8-11.8-1.313-1.51,1.807-8.431-.911-13.345-1.622,5.812-14.4-9.78-12.721-14.327-19.711C3416.471-291.806,3416.471-291.806,3432.687-265.008Z" transform="translate(425.859 160.39)" fill="#f5e8e5"/>
      <path id="Path_832" data-name="Path 832" d="M3374.316-271.356c-11.821-.585-18.56-5.484-18.247-15.8l21.595-20.456C3383.023-303.033,3382.205-292.646,3374.316-271.356Z" transform="translate(392.373 143.189)" fill="#f5e8e5"/>
      <path id="Path_833" data-name="Path 833" d="M3287.735-272.974c-1,15.747-3.551,31.053-12.02,45.449-11.418-8.427-4.719-17.975-3.536-25.494,1.2-7.6,7.892-14.331,12.179-21.443Z" transform="translate(299.02 178.798)" fill="#f5e8e5"/>
      <path id="Path_834" data-name="Path 834" d="M3358.9-291.941c2.039,4.571,4.323,9.052,6.034,13.743a26.18,26.18,0,0,1,1.456,11.308c-16.6-7.7-15.434-27.462-28.6-37.049l1.944-1.921,19.518,14.268Z" transform="translate(372.747 145.071)" fill="#f5e8e5"/>
      <path id="Path_835" data-name="Path 835" d="M3208.276-398.158c5.493,7.674,10.69,14.443,15.115,21.683.622,1.021-2.043,5.422-4.067,6.362-2.92,1.357-6.648.977-11.794,1.527.94-4.659,1.709-8.471,2.48-12.283C3210.143-386.109,3197.668-389.189,3208.276-398.158Z" transform="translate(229.032 45.925)" fill="#f5e8e5"/>
      <path id="Path_836" data-name="Path 836" d="M3411.515-367.466c3.868,5.343,2.074,18.338-2.63,20.277-3.986,1.641-9.045.852-12.85,2.723-4.25,2.093-7.62,5.972-10.943,8.718-1.527-4.171.786-10.661,6.6-11.727C3402.93-349.533,3409.478-355.766,3411.515-367.466Z" transform="translate(423.069 78.894)" fill="#f5e8e5"/>
      <path id="Path_837" data-name="Path 837" d="M3311.425-427.891c-8.409,5.451-20.8,4.4-20.74,18.9l-9.936-3.105C3288.847-424.552,3296.994-428.875,3311.425-427.891Z" transform="translate(311.478 13.841)" fill="#f5e8e5"/>
      <path id="Path_838" data-name="Path 838" d="M3182.542-408.956,3204.8-411l.351,3.87c-7.057,4.619-14.194,8.485-22.41,2.375Z" transform="translate(205.985 32.131)" fill="#f5e8e5"/>
      <path id="Path_839" data-name="Path 839" d="M3450.576-225.572c-4.273,16.851-9.034,20.825-18.5,16.83Z" transform="translate(474.03 231.314)" fill="#f5e8e5"/>
      <path id="Path_840" data-name="Path 840" d="M3227.481-434.031H3249C3240.158-421.721,3239.468-421.766,3227.481-434.031Z" transform="translate(254.258 7.391)" fill="#f5e8e5"/>
      <path id="Path_841" data-name="Path 841" d="M3120.809-428.358l.328,5.1c-9.786-.17-19.576-.214-29.344-.724-.921-.048-1.688-3.022-2.205-4.02,10.715,0,21.136,0,31.538-.019C3121.108-428.034,3120.809-428.358,3120.809-428.358Z" transform="translate(106.135 13.484)" fill="#f5e8e5"/>
      <path id="Path_842" data-name="Path 842" d="M3085.266-424.665H3058.76l.044-3.424h26.9Z" transform="translate(73.021 13.773)" fill="#f5e8e5"/>
      <path id="Path_843" data-name="Path 843" d="M3336.037-437.272l17.326,5.656-.786,3.568L3334.7-431.7Z" transform="translate(369.43 3.909)" fill="#f5e8e5"/>
    </g>
    <g id="Group_518" data-name="Group 518" transform="translate(-1308.985 379.972)">
      <path id="Path_844" data-name="Path 844" d="M1644.147,477.836c-4.177,0-7.564.5-7.564,1.121s3.386,1.121,7.564,1.121,7.564-.5,7.564-1.121S1648.324,477.836,1644.147,477.836Zm0,1.961c-3.133,0-5.673-.376-5.673-.84s2.54-.841,5.673-.841,5.673.376,5.673.841S1647.28,479.8,1644.147,479.8Z" transform="translate(0 -46.529)" fill="url(#radial-gradient)"/>
      <g id="Group_517" data-name="Group 517" transform="translate(1643.62 415.614)">
        <path id="Path_845" data-name="Path 845" d="M1667.678,426.555l-3.129,6.246a2.374,2.374,0,0,1-.066-.337c0-3.727-.013-7.454.018-11.181a5.764,5.764,0,0,1,11.151-1.943,5.464,5.464,0,0,1-1.3,6.087,5.559,5.559,0,0,1-6.083,1.351C1668.08,426.717,1667.9,426.639,1667.678,426.555Zm2.571-2.279a2.9,2.9,0,1,0-2.884-2.925A2.9,2.9,0,0,0,1670.249,424.276Zm5.214-2.93a5.031,5.031,0,0,0-2.465-4.354,4.942,4.942,0,0,0-5.513.033,5.032,5.032,0,0,0-2.415,4.309c.446.163.591.053.632-.379a4.585,4.585,0,0,1,9.13.005C1674.871,421.347,1674.989,421.494,1675.463,421.346Z" transform="translate(-1664.482 -415.614)" fill="#31183d"/>
        <circle id="Ellipse_212" data-name="Ellipse 212" cx="0.818" cy="0.818" r="0.818" transform="translate(5.021 5.048)" fill="#31183d"/>
      </g>
    </g>
    <g id="Group_519" data-name="Group 519" transform="translate(-1267.985 351.972)">
      <path id="Path_844-2" data-name="Path 844" d="M1644.147,477.836c-4.177,0-7.564.5-7.564,1.121s3.386,1.121,7.564,1.121,7.564-.5,7.564-1.121S1648.324,477.836,1644.147,477.836Zm0,1.961c-3.133,0-5.673-.376-5.673-.84s2.54-.841,5.673-.841,5.673.376,5.673.841S1647.28,479.8,1644.147,479.8Z" transform="translate(0 -46.529)" fill="url(#radial-gradient)"/>
      <g id="Group_517-2" data-name="Group 517" transform="translate(1643.62 415.614)">
        <path id="Path_845-2" data-name="Path 845" d="M1667.678,426.555l-3.129,6.246a2.374,2.374,0,0,1-.066-.337c0-3.727-.013-7.454.018-11.181a5.764,5.764,0,0,1,11.151-1.943,5.464,5.464,0,0,1-1.3,6.087,5.559,5.559,0,0,1-6.083,1.351C1668.08,426.717,1667.9,426.639,1667.678,426.555Zm2.571-2.279a2.9,2.9,0,1,0-2.884-2.925A2.9,2.9,0,0,0,1670.249,424.276Zm5.214-2.93a5.031,5.031,0,0,0-2.465-4.354,4.942,4.942,0,0,0-5.513.033,5.032,5.032,0,0,0-2.415,4.309c.446.163.591.053.632-.379a4.585,4.585,0,0,1,9.13.005C1674.871,421.347,1674.989,421.494,1675.463,421.346Z" transform="translate(-1664.482 -415.614)" fill="#31183d"/>
        <circle id="Ellipse_212-2" data-name="Ellipse 212" cx="0.818" cy="0.818" r="0.818" transform="translate(5.021 5.048)" fill="#31183d"/>
      </g>
    </g>
    <g id="Group_520" data-name="Group 520" transform="translate(-1216.985 363.972)">
      <path id="Path_844-3" data-name="Path 844" d="M1644.147,477.836c-4.177,0-7.564.5-7.564,1.121s3.386,1.121,7.564,1.121,7.564-.5,7.564-1.121S1648.324,477.836,1644.147,477.836Zm0,1.961c-3.133,0-5.673-.376-5.673-.84s2.54-.841,5.673-.841,5.673.376,5.673.841S1647.28,479.8,1644.147,479.8Z" transform="translate(0 -46.529)" fill="url(#radial-gradient)"/>
      <g id="Group_517-3" data-name="Group 517" transform="translate(1643.62 415.614)">
        <path id="Path_845-3" data-name="Path 845" d="M1667.678,426.555l-3.129,6.246a2.374,2.374,0,0,1-.066-.337c0-3.727-.013-7.454.018-11.181a5.764,5.764,0,0,1,11.151-1.943,5.464,5.464,0,0,1-1.3,6.087,5.559,5.559,0,0,1-6.083,1.351C1668.08,426.717,1667.9,426.639,1667.678,426.555Zm2.571-2.279a2.9,2.9,0,1,0-2.884-2.925A2.9,2.9,0,0,0,1670.249,424.276Zm5.214-2.93a5.031,5.031,0,0,0-2.465-4.354,4.942,4.942,0,0,0-5.513.033,5.032,5.032,0,0,0-2.415,4.309c.446.163.591.053.632-.379a4.585,4.585,0,0,1,9.13.005C1674.871,421.347,1674.989,421.494,1675.463,421.346Z" transform="translate(-1664.482 -415.614)" fill="#31183d"/>
        <circle id="Ellipse_212-3" data-name="Ellipse 212" cx="0.818" cy="0.818" r="0.818" transform="translate(5.021 5.048)" fill="#31183d"/>
      </g>
    </g>
    <g id="Group_521" data-name="Group 521" transform="translate(-1249.369 372.939)">
      <path id="Path_844-4" data-name="Path 844" d="M1644.147,477.836c-4.177,0-7.564.5-7.564,1.121s3.386,1.121,7.564,1.121,7.564-.5,7.564-1.121S1648.324,477.836,1644.147,477.836Zm0,1.961c-3.133,0-5.673-.376-5.673-.84s2.54-.841,5.673-.841,5.673.376,5.673.841S1647.28,479.8,1644.147,479.8Z" transform="translate(0 -46.529)" fill="url(#radial-gradient)"/>
      <g id="Group_517-4" data-name="Group 517" transform="translate(1643.62 415.614)">
        <path id="Path_845-4" data-name="Path 845" d="M1667.678,426.555l-3.129,6.246a2.374,2.374,0,0,1-.066-.337c0-3.727-.013-7.454.018-11.181a5.764,5.764,0,0,1,11.151-1.943,5.464,5.464,0,0,1-1.3,6.087,5.559,5.559,0,0,1-6.083,1.351C1668.08,426.717,1667.9,426.639,1667.678,426.555Zm2.571-2.279a2.9,2.9,0,1,0-2.884-2.925A2.9,2.9,0,0,0,1670.249,424.276Zm5.214-2.93a5.031,5.031,0,0,0-2.465-4.354,4.942,4.942,0,0,0-5.513.033,5.032,5.032,0,0,0-2.415,4.309c.446.163.591.053.632-.379a4.585,4.585,0,0,1,9.13.005C1674.871,421.347,1674.989,421.494,1675.463,421.346Z" transform="translate(-1664.482 -415.614)" fill="#31183d"/>
        <circle id="Ellipse_212-4" data-name="Ellipse 212" cx="0.818" cy="0.818" r="0.818" transform="translate(5.021 5.048)" fill="#31183d"/>
      </g>
    </g>
    <g id="Group_522" data-name="Group 522" transform="translate(-1277.293 390.873)">
      <path id="Path_844-5" data-name="Path 844" d="M1644.147,477.836c-4.177,0-7.564.5-7.564,1.121s3.386,1.121,7.564,1.121,7.564-.5,7.564-1.121S1648.324,477.836,1644.147,477.836Zm0,1.961c-3.133,0-5.673-.376-5.673-.84s2.54-.841,5.673-.841,5.673.376,5.673.841S1647.28,479.8,1644.147,479.8Z" transform="translate(0 -46.529)" fill="url(#radial-gradient)"/>
      <g id="Group_517-5" data-name="Group 517" transform="translate(1643.62 415.614)">
        <path id="Path_845-5" data-name="Path 845" d="M1667.678,426.555l-3.129,6.246a2.374,2.374,0,0,1-.066-.337c0-3.727-.013-7.454.018-11.181a5.764,5.764,0,0,1,11.151-1.943,5.464,5.464,0,0,1-1.3,6.087,5.559,5.559,0,0,1-6.083,1.351C1668.08,426.717,1667.9,426.639,1667.678,426.555Zm2.571-2.279a2.9,2.9,0,1,0-2.884-2.925A2.9,2.9,0,0,0,1670.249,424.276Zm5.214-2.93a5.031,5.031,0,0,0-2.465-4.354,4.942,4.942,0,0,0-5.513.033,5.032,5.032,0,0,0-2.415,4.309c.446.163.591.053.632-.379a4.585,4.585,0,0,1,9.13.005C1674.871,421.347,1674.989,421.494,1675.463,421.346Z" transform="translate(-1664.482 -415.614)" fill="#31183d"/>
        <circle id="Ellipse_212-5" data-name="Ellipse 212" cx="0.818" cy="0.818" r="0.818" transform="translate(5.021 5.048)" fill="#31183d"/>
      </g>
    </g>
    <g id="Group_523" data-name="Group 523" transform="translate(-1200.752 377.873)">
      <path id="Path_844-6" data-name="Path 844" d="M1644.147,477.836c-4.177,0-7.564.5-7.564,1.121s3.386,1.121,7.564,1.121,7.564-.5,7.564-1.121S1648.324,477.836,1644.147,477.836Zm0,1.961c-3.133,0-5.673-.376-5.673-.84s2.54-.841,5.673-.841,5.673.376,5.673.841S1647.28,479.8,1644.147,479.8Z" transform="translate(0 -46.529)" fill="url(#radial-gradient)"/>
      <g id="Group_517-6" data-name="Group 517" transform="translate(1643.62 415.614)">
        <path id="Path_845-6" data-name="Path 845" d="M1667.678,426.555l-3.129,6.246a2.374,2.374,0,0,1-.066-.337c0-3.727-.013-7.454.018-11.181a5.764,5.764,0,0,1,11.151-1.943,5.464,5.464,0,0,1-1.3,6.087,5.559,5.559,0,0,1-6.083,1.351C1668.08,426.717,1667.9,426.639,1667.678,426.555Zm2.571-2.279a2.9,2.9,0,1,0-2.884-2.925A2.9,2.9,0,0,0,1670.249,424.276Zm5.214-2.93a5.031,5.031,0,0,0-2.465-4.354,4.942,4.942,0,0,0-5.513.033,5.032,5.032,0,0,0-2.415,4.309c.446.163.591.053.632-.379a4.585,4.585,0,0,1,9.13.005C1674.871,421.347,1674.989,421.494,1675.463,421.346Z" transform="translate(-1664.482 -415.614)" fill="#31183d"/>
        <circle id="Ellipse_212-6" data-name="Ellipse 212" cx="0.818" cy="0.818" r="0.818" transform="translate(5.021 5.048)" fill="#31183d"/>
      </g>
    </g>
    <g id="Group_525" data-name="Group 525" transform="translate(-1182.136 334.038)">
      <path id="Path_844-7" data-name="Path 844" d="M1644.147,477.836c-4.177,0-7.564.5-7.564,1.121s3.386,1.121,7.564,1.121,7.564-.5,7.564-1.121S1648.324,477.836,1644.147,477.836Zm0,1.961c-3.133,0-5.673-.376-5.673-.84s2.54-.841,5.673-.841,5.673.376,5.673.841S1647.28,479.8,1644.147,479.8Z" transform="translate(0 -46.529)" fill="url(#radial-gradient)"/>
      <g id="Group_517-7" data-name="Group 517" transform="translate(1643.62 415.614)">
        <path id="Path_845-7" data-name="Path 845" d="M1667.678,426.555l-3.129,6.246a2.374,2.374,0,0,1-.066-.337c0-3.727-.013-7.454.018-11.181a5.764,5.764,0,0,1,11.151-1.943,5.464,5.464,0,0,1-1.3,6.087,5.559,5.559,0,0,1-6.083,1.351C1668.08,426.717,1667.9,426.639,1667.678,426.555Zm2.571-2.279a2.9,2.9,0,1,0-2.884-2.925A2.9,2.9,0,0,0,1670.249,424.276Zm5.214-2.93a5.031,5.031,0,0,0-2.465-4.354,4.942,4.942,0,0,0-5.513.033,5.032,5.032,0,0,0-2.415,4.309c.446.163.591.053.632-.379a4.585,4.585,0,0,1,9.13.005C1674.871,421.347,1674.989,421.494,1675.463,421.346Z" transform="translate(-1664.482 -415.614)" fill="#31183d"/>
        <circle id="Ellipse_212-7" data-name="Ellipse 212" cx="0.818" cy="0.818" r="0.818" transform="translate(5.021 5.048)" fill="#31183d"/>
      </g>
    </g>
    <g id="Group_526" data-name="Group 526" transform="translate(-1141.136 343.005)">
      <path id="Path_844-8" data-name="Path 844" d="M1644.147,477.836c-4.177,0-7.564.5-7.564,1.121s3.386,1.121,7.564,1.121,7.564-.5,7.564-1.121S1648.324,477.836,1644.147,477.836Zm0,1.961c-3.133,0-5.673-.376-5.673-.84s2.54-.841,5.673-.841,5.673.376,5.673.841S1647.28,479.8,1644.147,479.8Z" transform="translate(0 -46.529)" fill="url(#radial-gradient)"/>
      <g id="Group_517-8" data-name="Group 517" transform="translate(1643.62 415.614)">
        <path id="Path_845-8" data-name="Path 845" d="M1667.678,426.555l-3.129,6.246a2.374,2.374,0,0,1-.066-.337c0-3.727-.013-7.454.018-11.181a5.764,5.764,0,0,1,11.151-1.943,5.464,5.464,0,0,1-1.3,6.087,5.559,5.559,0,0,1-6.083,1.351C1668.08,426.717,1667.9,426.639,1667.678,426.555Zm2.571-2.279a2.9,2.9,0,1,0-2.884-2.925A2.9,2.9,0,0,0,1670.249,424.276Zm5.214-2.93a5.031,5.031,0,0,0-2.465-4.354,4.942,4.942,0,0,0-5.513.033,5.032,5.032,0,0,0-2.415,4.309c.446.163.591.053.632-.379a4.585,4.585,0,0,1,9.13.005C1674.871,421.347,1674.989,421.494,1675.463,421.346Z" transform="translate(-1664.482 -415.614)" fill="#31183d"/>
        <circle id="Ellipse_212-8" data-name="Ellipse 212" cx="0.818" cy="0.818" r="0.818" transform="translate(5.021 5.048)" fill="#31183d"/>
      </g>
    </g>
    <g id="Group_530" data-name="Group 530" transform="translate(-1008.136 372.939)">
      <path id="Path_844-9" data-name="Path 844" d="M1644.147,477.836c-4.177,0-7.564.5-7.564,1.121s3.386,1.121,7.564,1.121,7.564-.5,7.564-1.121S1648.324,477.836,1644.147,477.836Zm0,1.961c-3.133,0-5.673-.376-5.673-.84s2.54-.841,5.673-.841,5.673.376,5.673.841S1647.28,479.8,1644.147,479.8Z" transform="translate(0 -46.529)" fill="url(#radial-gradient)"/>
      <g id="Group_517-9" data-name="Group 517" transform="translate(1643.62 415.614)">
        <path id="Path_845-9" data-name="Path 845" d="M1667.678,426.555l-3.129,6.246a2.374,2.374,0,0,1-.066-.337c0-3.727-.013-7.454.018-11.181a5.764,5.764,0,0,1,11.151-1.943,5.464,5.464,0,0,1-1.3,6.087,5.559,5.559,0,0,1-6.083,1.351C1668.08,426.717,1667.9,426.639,1667.678,426.555Zm2.571-2.279a2.9,2.9,0,1,0-2.884-2.925A2.9,2.9,0,0,0,1670.249,424.276Zm5.214-2.93a5.031,5.031,0,0,0-2.465-4.354,4.942,4.942,0,0,0-5.513.033,5.032,5.032,0,0,0-2.415,4.309c.446.163.591.053.632-.379a4.585,4.585,0,0,1,9.13.005C1674.871,421.347,1674.989,421.494,1675.463,421.346Z" transform="translate(-1664.482 -415.614)" fill="#31183d"/>
        <circle id="Ellipse_212-9" data-name="Ellipse 212" cx="0.818" cy="0.818" r="0.818" transform="translate(5.021 5.048)" fill="#31183d"/>
      </g>
    </g>
    <g id="Group_531" data-name="Group 531" transform="translate(-998.828 325.071)">
      <path id="Path_844-10" data-name="Path 844" d="M1644.147,477.836c-4.177,0-7.564.5-7.564,1.121s3.386,1.121,7.564,1.121,7.564-.5,7.564-1.121S1648.324,477.836,1644.147,477.836Zm0,1.961c-3.133,0-5.673-.376-5.673-.84s2.54-.841,5.673-.841,5.673.376,5.673.841S1647.28,479.8,1644.147,479.8Z" transform="translate(0 -46.529)" fill="url(#radial-gradient)"/>
      <g id="Group_517-10" data-name="Group 517" transform="translate(1643.62 415.614)">
        <path id="Path_845-10" data-name="Path 845" d="M1667.678,426.555l-3.129,6.246a2.374,2.374,0,0,1-.066-.337c0-3.727-.013-7.454.018-11.181a5.764,5.764,0,0,1,11.151-1.943,5.464,5.464,0,0,1-1.3,6.087,5.559,5.559,0,0,1-6.083,1.351C1668.08,426.717,1667.9,426.639,1667.678,426.555Zm2.571-2.279a2.9,2.9,0,1,0-2.884-2.925A2.9,2.9,0,0,0,1670.249,424.276Zm5.214-2.93a5.031,5.031,0,0,0-2.465-4.354,4.942,4.942,0,0,0-5.513.033,5.032,5.032,0,0,0-2.415,4.309c.446.163.591.053.632-.379a4.585,4.585,0,0,1,9.13.005C1674.871,421.347,1674.989,421.494,1675.463,421.346Z" transform="translate(-1664.482 -415.614)" fill="#31183d"/>
        <circle id="Ellipse_212-10" data-name="Ellipse 212" cx="0.818" cy="0.818" r="0.818" transform="translate(5.021 5.048)" fill="#31183d"/>
      </g>
    </g>
    <g id="Group_532" data-name="Group 532" transform="translate(-983.828 346.038)">
      <path id="Path_844-11" data-name="Path 844" d="M1644.147,477.836c-4.177,0-7.564.5-7.564,1.121s3.386,1.121,7.564,1.121,7.564-.5,7.564-1.121S1648.324,477.836,1644.147,477.836Zm0,1.961c-3.133,0-5.673-.376-5.673-.84s2.54-.841,5.673-.841,5.673.376,5.673.841S1647.28,479.8,1644.147,479.8Z" transform="translate(0 -46.529)" fill="url(#radial-gradient)"/>
      <g id="Group_517-11" data-name="Group 517" transform="translate(1643.62 415.614)">
        <path id="Path_845-11" data-name="Path 845" d="M1667.678,426.555l-3.129,6.246a2.374,2.374,0,0,1-.066-.337c0-3.727-.013-7.454.018-11.181a5.764,5.764,0,0,1,11.151-1.943,5.464,5.464,0,0,1-1.3,6.087,5.559,5.559,0,0,1-6.083,1.351C1668.08,426.717,1667.9,426.639,1667.678,426.555Zm2.571-2.279a2.9,2.9,0,1,0-2.884-2.925A2.9,2.9,0,0,0,1670.249,424.276Zm5.214-2.93a5.031,5.031,0,0,0-2.465-4.354,4.942,4.942,0,0,0-5.513.033,5.032,5.032,0,0,0-2.415,4.309c.446.163.591.053.632-.379a4.585,4.585,0,0,1,9.13.005C1674.871,421.347,1674.989,421.494,1675.463,421.346Z" transform="translate(-1664.482 -415.614)" fill="#31183d"/>
        <circle id="Ellipse_212-11" data-name="Ellipse 212" cx="0.818" cy="0.818" r="0.818" transform="translate(5.021 5.048)" fill="#31183d"/>
      </g>
    </g>
    <g id="Group_533" data-name="Group 533" transform="translate(-946.596 346.038)">
      <path id="Path_844-12" data-name="Path 844" d="M1644.147,477.836c-4.177,0-7.564.5-7.564,1.121s3.386,1.121,7.564,1.121,7.564-.5,7.564-1.121S1648.324,477.836,1644.147,477.836Zm0,1.961c-3.133,0-5.673-.376-5.673-.84s2.54-.841,5.673-.841,5.673.376,5.673.841S1647.28,479.8,1644.147,479.8Z" transform="translate(0 -46.529)" fill="url(#radial-gradient)"/>
      <g id="Group_517-12" data-name="Group 517" transform="translate(1643.62 415.614)">
        <path id="Path_845-12" data-name="Path 845" d="M1667.678,426.555l-3.129,6.246a2.374,2.374,0,0,1-.066-.337c0-3.727-.013-7.454.018-11.181a5.764,5.764,0,0,1,11.151-1.943,5.464,5.464,0,0,1-1.3,6.087,5.559,5.559,0,0,1-6.083,1.351C1668.08,426.717,1667.9,426.639,1667.678,426.555Zm2.571-2.279a2.9,2.9,0,1,0-2.884-2.925A2.9,2.9,0,0,0,1670.249,424.276Zm5.214-2.93a5.031,5.031,0,0,0-2.465-4.354,4.942,4.942,0,0,0-5.513.033,5.032,5.032,0,0,0-2.415,4.309c.446.163.591.053.632-.379a4.585,4.585,0,0,1,9.13.005C1674.871,421.347,1674.989,421.494,1675.463,421.346Z" transform="translate(-1664.482 -415.614)" fill="#31183d"/>
        <circle id="Ellipse_212-12" data-name="Ellipse 212" cx="0.818" cy="0.818" r="0.818" transform="translate(5.021 5.048)" fill="#31183d"/>
      </g>
    </g>
    <g id="Group_534" data-name="Group 534" transform="translate(-955.904 304.038)">
      <path id="Path_844-13" data-name="Path 844" d="M1644.147,477.836c-4.177,0-7.564.5-7.564,1.121s3.386,1.121,7.564,1.121,7.564-.5,7.564-1.121S1648.324,477.836,1644.147,477.836Zm0,1.961c-3.133,0-5.673-.376-5.673-.84s2.54-.841,5.673-.841,5.673.376,5.673.841S1647.28,479.8,1644.147,479.8Z" transform="translate(0 -46.529)" fill="url(#radial-gradient)"/>
      <g id="Group_517-13" data-name="Group 517" transform="translate(1643.62 415.614)">
        <path id="Path_845-13" data-name="Path 845" d="M1667.678,426.555l-3.129,6.246a2.374,2.374,0,0,1-.066-.337c0-3.727-.013-7.454.018-11.181a5.764,5.764,0,0,1,11.151-1.943,5.464,5.464,0,0,1-1.3,6.087,5.559,5.559,0,0,1-6.083,1.351C1668.08,426.717,1667.9,426.639,1667.678,426.555Zm2.571-2.279a2.9,2.9,0,1,0-2.884-2.925A2.9,2.9,0,0,0,1670.249,424.276Zm5.214-2.93a5.031,5.031,0,0,0-2.465-4.354,4.942,4.942,0,0,0-5.513.033,5.032,5.032,0,0,0-2.415,4.309c.446.163.591.053.632-.379a4.585,4.585,0,0,1,9.13.005C1674.871,421.347,1674.989,421.494,1675.463,421.346Z" transform="translate(-1664.482 -415.614)" fill="#31183d"/>
        <circle id="Ellipse_212-13" data-name="Ellipse 212" cx="0.818" cy="0.818" r="0.818" transform="translate(5.021 5.048)" fill="#31183d"/>
      </g>
    </g>
    <g id="Group_535" data-name="Group 535" transform="translate(-917.904 325.071)">
      <path id="Path_844-14" data-name="Path 844" d="M1644.147,477.836c-4.177,0-7.564.5-7.564,1.121s3.386,1.121,7.564,1.121,7.564-.5,7.564-1.121S1648.324,477.836,1644.147,477.836Zm0,1.961c-3.133,0-5.673-.376-5.673-.84s2.54-.841,5.673-.841,5.673.376,5.673.841S1647.28,479.8,1644.147,479.8Z" transform="translate(0 -46.529)" fill="url(#radial-gradient)"/>
      <g id="Group_517-14" data-name="Group 517" transform="translate(1643.62 415.614)">
        <path id="Path_845-14" data-name="Path 845" d="M1667.678,426.555l-3.129,6.246a2.374,2.374,0,0,1-.066-.337c0-3.727-.013-7.454.018-11.181a5.764,5.764,0,0,1,11.151-1.943,5.464,5.464,0,0,1-1.3,6.087,5.559,5.559,0,0,1-6.083,1.351C1668.08,426.717,1667.9,426.639,1667.678,426.555Zm2.571-2.279a2.9,2.9,0,1,0-2.884-2.925A2.9,2.9,0,0,0,1670.249,424.276Zm5.214-2.93a5.031,5.031,0,0,0-2.465-4.354,4.942,4.942,0,0,0-5.513.033,5.032,5.032,0,0,0-2.415,4.309c.446.163.591.053.632-.379a4.585,4.585,0,0,1,9.13.005C1674.871,421.347,1674.989,421.494,1675.463,421.346Z" transform="translate(-1664.482 -415.614)" fill="#31183d"/>
        <circle id="Ellipse_212-14" data-name="Ellipse 212" cx="0.818" cy="0.818" r="0.818" transform="translate(5.021 5.048)" fill="#31183d"/>
      </g>
    </g>
    <g id="Group_536" data-name="Group 536" transform="translate(-917.904 351.972)">
      <path id="Path_844-15" data-name="Path 844" d="M1644.147,477.836c-4.177,0-7.564.5-7.564,1.121s3.386,1.121,7.564,1.121,7.564-.5,7.564-1.121S1648.324,477.836,1644.147,477.836Zm0,1.961c-3.133,0-5.673-.376-5.673-.84s2.54-.841,5.673-.841,5.673.376,5.673.841S1647.28,479.8,1644.147,479.8Z" transform="translate(0 -46.529)" fill="url(#radial-gradient)"/>
      <g id="Group_517-15" data-name="Group 517" transform="translate(1643.62 415.614)">
        <path id="Path_845-15" data-name="Path 845" d="M1667.678,426.555l-3.129,6.246a2.374,2.374,0,0,1-.066-.337c0-3.727-.013-7.454.018-11.181a5.764,5.764,0,0,1,11.151-1.943,5.464,5.464,0,0,1-1.3,6.087,5.559,5.559,0,0,1-6.083,1.351C1668.08,426.717,1667.9,426.639,1667.678,426.555Zm2.571-2.279a2.9,2.9,0,1,0-2.884-2.925A2.9,2.9,0,0,0,1670.249,424.276Zm5.214-2.93a5.031,5.031,0,0,0-2.465-4.354,4.942,4.942,0,0,0-5.513.033,5.032,5.032,0,0,0-2.415,4.309c.446.163.591.053.632-.379a4.585,4.585,0,0,1,9.13.005C1674.871,421.347,1674.989,421.494,1675.463,421.346Z" transform="translate(-1664.482 -415.614)" fill="#31183d"/>
        <circle id="Ellipse_212-15" data-name="Ellipse 212" cx="0.818" cy="0.818" r="0.818" transform="translate(5.021 5.048)" fill="#31183d"/>
      </g>
    </g>
    <g id="Group_537" data-name="Group 537" transform="translate(-874.979 313.005)">
      <path id="Path_844-16" data-name="Path 844" d="M1644.147,477.836c-4.177,0-7.564.5-7.564,1.121s3.386,1.121,7.564,1.121,7.564-.5,7.564-1.121S1648.324,477.836,1644.147,477.836Zm0,1.961c-3.133,0-5.673-.376-5.673-.84s2.54-.841,5.673-.841,5.673.376,5.673.841S1647.28,479.8,1644.147,479.8Z" transform="translate(0 -46.529)" fill="url(#radial-gradient)"/>
      <g id="Group_517-16" data-name="Group 517" transform="translate(1643.62 415.614)">
        <path id="Path_845-16" data-name="Path 845" d="M1667.678,426.555l-3.129,6.246a2.374,2.374,0,0,1-.066-.337c0-3.727-.013-7.454.018-11.181a5.764,5.764,0,0,1,11.151-1.943,5.464,5.464,0,0,1-1.3,6.087,5.559,5.559,0,0,1-6.083,1.351C1668.08,426.717,1667.9,426.639,1667.678,426.555Zm2.571-2.279a2.9,2.9,0,1,0-2.884-2.925A2.9,2.9,0,0,0,1670.249,424.276Zm5.214-2.93a5.031,5.031,0,0,0-2.465-4.354,4.942,4.942,0,0,0-5.513.033,5.032,5.032,0,0,0-2.415,4.309c.446.163.591.053.632-.379a4.585,4.585,0,0,1,9.13.005C1674.871,421.347,1674.989,421.494,1675.463,421.346Z" transform="translate(-1664.482 -415.614)" fill="#31183d"/>
        <circle id="Ellipse_212-16" data-name="Ellipse 212" cx="0.818" cy="0.818" r="0.818" transform="translate(5.021 5.048)" fill="#31183d"/>
      </g>
    </g>
    <g id="Group_538" data-name="Group 538" transform="translate(-912.979 289.005)">
      <path id="Path_844-17" data-name="Path 844" d="M1644.147,477.836c-4.177,0-7.564.5-7.564,1.121s3.386,1.121,7.564,1.121,7.564-.5,7.564-1.121S1648.324,477.836,1644.147,477.836Zm0,1.961c-3.133,0-5.673-.376-5.673-.84s2.54-.841,5.673-.841,5.673.376,5.673.841S1647.28,479.8,1644.147,479.8Z" transform="translate(0 -46.529)" fill="url(#radial-gradient)"/>
      <g id="Group_517-17" data-name="Group 517" transform="translate(1643.62 415.614)">
        <path id="Path_845-17" data-name="Path 845" d="M1667.678,426.555l-3.129,6.246a2.374,2.374,0,0,1-.066-.337c0-3.727-.013-7.454.018-11.181a5.764,5.764,0,0,1,11.151-1.943,5.464,5.464,0,0,1-1.3,6.087,5.559,5.559,0,0,1-6.083,1.351C1668.08,426.717,1667.9,426.639,1667.678,426.555Zm2.571-2.279a2.9,2.9,0,1,0-2.884-2.925A2.9,2.9,0,0,0,1670.249,424.276Zm5.214-2.93a5.031,5.031,0,0,0-2.465-4.354,4.942,4.942,0,0,0-5.513.033,5.032,5.032,0,0,0-2.415,4.309c.446.163.591.053.632-.379a4.585,4.585,0,0,1,9.13.005C1674.871,421.347,1674.989,421.494,1675.463,421.346Z" transform="translate(-1664.482 -415.614)" fill="#31183d"/>
        <circle id="Ellipse_212-17" data-name="Ellipse 212" cx="0.818" cy="0.818" r="0.818" transform="translate(5.021 5.048)" fill="#31183d"/>
      </g>
    </g>
    <g id="Group_539" data-name="Group 539" transform="translate(-937.288 271.071)">
      <path id="Path_844-18" data-name="Path 844" d="M1644.147,477.836c-4.177,0-7.564.5-7.564,1.121s3.386,1.121,7.564,1.121,7.564-.5,7.564-1.121S1648.324,477.836,1644.147,477.836Zm0,1.961c-3.133,0-5.673-.376-5.673-.84s2.54-.841,5.673-.841,5.673.376,5.673.841S1647.28,479.8,1644.147,479.8Z" transform="translate(0 -46.529)" fill="url(#radial-gradient)"/>
      <g id="Group_517-18" data-name="Group 517" transform="translate(1643.62 415.614)">
        <path id="Path_845-18" data-name="Path 845" d="M1667.678,426.555l-3.129,6.246a2.374,2.374,0,0,1-.066-.337c0-3.727-.013-7.454.018-11.181a5.764,5.764,0,0,1,11.151-1.943,5.464,5.464,0,0,1-1.3,6.087,5.559,5.559,0,0,1-6.083,1.351C1668.08,426.717,1667.9,426.639,1667.678,426.555Zm2.571-2.279a2.9,2.9,0,1,0-2.884-2.925A2.9,2.9,0,0,0,1670.249,424.276Zm5.214-2.93a5.031,5.031,0,0,0-2.465-4.354,4.942,4.942,0,0,0-5.513.033,5.032,5.032,0,0,0-2.415,4.309c.446.163.591.053.632-.379a4.585,4.585,0,0,1,9.13.005C1674.871,421.347,1674.989,421.494,1675.463,421.346Z" transform="translate(-1664.482 -415.614)" fill="#31183d"/>
        <circle id="Ellipse_212-18" data-name="Ellipse 212" cx="0.818" cy="0.818" r="0.818" transform="translate(5.021 5.048)" fill="#31183d"/>
      </g>
    </g>
    <g id="Group_540" data-name="Group 540" transform="translate(-1044.288 286.104)">
      <path id="Path_844-19" data-name="Path 844" d="M1644.147,477.836c-4.177,0-7.564.5-7.564,1.121s3.386,1.121,7.564,1.121,7.564-.5,7.564-1.121S1648.324,477.836,1644.147,477.836Zm0,1.961c-3.133,0-5.673-.376-5.673-.84s2.54-.841,5.673-.841,5.673.376,5.673.841S1647.28,479.8,1644.147,479.8Z" transform="translate(0 -46.529)" fill="url(#radial-gradient)"/>
      <g id="Group_517-19" data-name="Group 517" transform="translate(1643.62 415.614)">
        <path id="Path_845-19" data-name="Path 845" d="M1667.678,426.555l-3.129,6.246a2.374,2.374,0,0,1-.066-.337c0-3.727-.013-7.454.018-11.181a5.764,5.764,0,0,1,11.151-1.943,5.464,5.464,0,0,1-1.3,6.087,5.559,5.559,0,0,1-6.083,1.351C1668.08,426.717,1667.9,426.639,1667.678,426.555Zm2.571-2.279a2.9,2.9,0,1,0-2.884-2.925A2.9,2.9,0,0,0,1670.249,424.276Zm5.214-2.93a5.031,5.031,0,0,0-2.465-4.354,4.942,4.942,0,0,0-5.513.033,5.032,5.032,0,0,0-2.415,4.309c.446.163.591.053.632-.379a4.585,4.585,0,0,1,9.13.005C1674.871,421.347,1674.989,421.494,1675.463,421.346Z" transform="translate(-1664.482 -415.614)" fill="#31183d"/>
        <circle id="Ellipse_212-19" data-name="Ellipse 212" cx="0.818" cy="0.818" r="0.818" transform="translate(5.021 5.048)" fill="#31183d"/>
      </g>
    </g>
    <g id="Group_527" data-name="Group 527" transform="translate(-1254.217 316.104)">
      <path id="Path_844-20" data-name="Path 844" d="M1644.147,477.836c-4.177,0-7.564.5-7.564,1.121s3.386,1.121,7.564,1.121,7.564-.5,7.564-1.121S1648.324,477.836,1644.147,477.836Zm0,1.961c-3.133,0-5.673-.376-5.673-.84s2.54-.841,5.673-.841,5.673.376,5.673.841S1647.28,479.8,1644.147,479.8Z" transform="translate(0 -46.529)" fill="url(#radial-gradient)"/>
      <g id="Group_517-20" data-name="Group 517" transform="translate(1643.62 415.614)">
        <path id="Path_845-20" data-name="Path 845" d="M1667.678,426.555l-3.129,6.246a2.374,2.374,0,0,1-.066-.337c0-3.727-.013-7.454.018-11.181a5.764,5.764,0,0,1,11.151-1.943,5.464,5.464,0,0,1-1.3,6.087,5.559,5.559,0,0,1-6.083,1.351C1668.08,426.717,1667.9,426.639,1667.678,426.555Zm2.571-2.279a2.9,2.9,0,1,0-2.884-2.925A2.9,2.9,0,0,0,1670.249,424.276Zm5.214-2.93a5.031,5.031,0,0,0-2.465-4.354,4.942,4.942,0,0,0-5.513.033,5.032,5.032,0,0,0-2.415,4.309c.446.163.591.053.632-.379a4.585,4.585,0,0,1,9.13.005C1674.871,421.347,1674.989,421.494,1675.463,421.346Z" transform="translate(-1664.482 -415.614)" fill="#31183d"/>
        <circle id="Ellipse_212-20" data-name="Ellipse 212" cx="0.818" cy="0.818" r="0.818" transform="translate(5.021 5.048)" fill="#31183d"/>
      </g>
    </g>
    <g id="Group_528" data-name="Group 528" transform="translate(-1308.985 331.104)">
      <path id="Path_844-21" data-name="Path 844" d="M1644.147,477.836c-4.177,0-7.564.5-7.564,1.121s3.386,1.121,7.564,1.121,7.564-.5,7.564-1.121S1648.324,477.836,1644.147,477.836Zm0,1.961c-3.133,0-5.673-.376-5.673-.84s2.54-.841,5.673-.841,5.673.376,5.673.841S1647.28,479.8,1644.147,479.8Z" transform="translate(0 -46.529)" fill="url(#radial-gradient)"/>
      <g id="Group_517-21" data-name="Group 517" transform="translate(1643.62 415.614)">
        <path id="Path_845-21" data-name="Path 845" d="M1667.678,426.555l-3.129,6.246a2.374,2.374,0,0,1-.066-.337c0-3.727-.013-7.454.018-11.181a5.764,5.764,0,0,1,11.151-1.943,5.464,5.464,0,0,1-1.3,6.087,5.559,5.559,0,0,1-6.083,1.351C1668.08,426.717,1667.9,426.639,1667.678,426.555Zm2.571-2.279a2.9,2.9,0,1,0-2.884-2.925A2.9,2.9,0,0,0,1670.249,424.276Zm5.214-2.93a5.031,5.031,0,0,0-2.465-4.354,4.942,4.942,0,0,0-5.513.033,5.032,5.032,0,0,0-2.415,4.309c.446.163.591.053.632-.379a4.585,4.585,0,0,1,9.13.005C1674.871,421.347,1674.989,421.494,1675.463,421.346Z" transform="translate(-1664.482 -415.614)" fill="#31183d"/>
        <circle id="Ellipse_212-21" data-name="Ellipse 212" cx="0.818" cy="0.818" r="0.818" transform="translate(5.021 5.048)" fill="#31183d"/>
      </g>
    </g>
    <g id="Group_529" data-name="Group 529" transform="translate(-1230.752 334.038)">
      <path id="Path_844-22" data-name="Path 844" d="M1644.147,477.836c-4.177,0-7.564.5-7.564,1.121s3.386,1.121,7.564,1.121,7.564-.5,7.564-1.121S1648.324,477.836,1644.147,477.836Zm0,1.961c-3.133,0-5.673-.376-5.673-.84s2.54-.841,5.673-.841,5.673.376,5.673.841S1647.28,479.8,1644.147,479.8Z" transform="translate(0 -46.529)" fill="url(#radial-gradient)"/>
      <g id="Group_517-22" data-name="Group 517" transform="translate(1643.62 415.614)">
        <path id="Path_845-22" data-name="Path 845" d="M1667.678,426.555l-3.129,6.246a2.374,2.374,0,0,1-.066-.337c0-3.727-.013-7.454.018-11.181a5.764,5.764,0,0,1,11.151-1.943,5.464,5.464,0,0,1-1.3,6.087,5.559,5.559,0,0,1-6.083,1.351C1668.08,426.717,1667.9,426.639,1667.678,426.555Zm2.571-2.279a2.9,2.9,0,1,0-2.884-2.925A2.9,2.9,0,0,0,1670.249,424.276Zm5.214-2.93a5.031,5.031,0,0,0-2.465-4.354,4.942,4.942,0,0,0-5.513.033,5.032,5.032,0,0,0-2.415,4.309c.446.163.591.053.632-.379a4.585,4.585,0,0,1,9.13.005C1674.871,421.347,1674.989,421.494,1675.463,421.346Z" transform="translate(-1664.482 -415.614)" fill="#31183d"/>
        <circle id="Ellipse_212-22" data-name="Ellipse 212" cx="0.818" cy="0.818" r="0.818" transform="translate(5.021 5.048)" fill="#31183d"/>
      </g>
    </g>
    <g id="Group_524" data-name="Group 524" transform="translate(-1235.601 399.84)">
      <path id="Path_844-23" data-name="Path 844" d="M1644.147,477.836c-4.177,0-7.564.5-7.564,1.121s3.386,1.121,7.564,1.121,7.564-.5,7.564-1.121S1648.324,477.836,1644.147,477.836Zm0,1.961c-3.133,0-5.673-.376-5.673-.84s2.54-.841,5.673-.841,5.673.376,5.673.841S1647.28,479.8,1644.147,479.8Z" transform="translate(0 -46.529)" fill="url(#radial-gradient)"/>
      <g id="Group_517-23" data-name="Group 517" transform="translate(1643.62 415.614)">
        <path id="Path_845-23" data-name="Path 845" d="M1667.678,426.555l-3.129,6.246a2.374,2.374,0,0,1-.066-.337c0-3.727-.013-7.454.018-11.181a5.764,5.764,0,0,1,11.151-1.943,5.464,5.464,0,0,1-1.3,6.087,5.559,5.559,0,0,1-6.083,1.351C1668.08,426.717,1667.9,426.639,1667.678,426.555Zm2.571-2.279a2.9,2.9,0,1,0-2.884-2.925A2.9,2.9,0,0,0,1670.249,424.276Zm5.214-2.93a5.031,5.031,0,0,0-2.465-4.354,4.942,4.942,0,0,0-5.513.033,5.032,5.032,0,0,0-2.415,4.309c.446.163.591.053.632-.379a4.585,4.585,0,0,1,9.13.005C1674.871,421.347,1674.989,421.494,1675.463,421.346Z" transform="translate(-1664.482 -415.614)" fill="#31183d"/>
        <circle id="Ellipse_212-23" data-name="Ellipse 212" cx="0.818" cy="0.818" r="0.818" transform="translate(5.021 5.048)" fill="#31183d"/>
      </g>
    </g>
  </g>
</svg>
