<svg xmlns="http://www.w3.org/2000/svg" width="25" height="24" viewBox="0 0 25 24">
  <g id="Group_571" data-name="Group 571" transform="translate(10386.852 -2002.5)">
    <path id="Polygon_22" data-name="Polygon 22" d="M13.7.875A3.835,3.835,0,0,1,18,2.279l.017.024a3.835,3.835,0,0,0,1.917,1.4l.036.012a3.835,3.835,0,0,1,2.64,3.644v.085a3.835,3.835,0,0,0,.722,2.24l.052.073a3.835,3.835,0,0,1,0,4.481l-.052.073a3.835,3.835,0,0,0-.722,2.24v.085a3.835,3.835,0,0,1-2.64,3.644l-.036.012a3.835,3.835,0,0,0-1.917,1.4L18,21.721a3.835,3.835,0,0,1-4.308,1.4h0a3.835,3.835,0,0,0-2.39,0h0A3.835,3.835,0,0,1,7,21.721L6.98,21.7a3.835,3.835,0,0,0-1.917-1.4l-.036-.012a3.835,3.835,0,0,1-2.64-3.644v-.085a3.835,3.835,0,0,0-.722-2.24l-.052-.073a3.835,3.835,0,0,1,0-4.481l.052-.073a3.835,3.835,0,0,0,.722-2.24V7.362a3.835,3.835,0,0,1,2.64-3.644l.036-.012A3.835,3.835,0,0,0,6.98,2.3L7,2.279A3.835,3.835,0,0,1,11.3.875h0a3.835,3.835,0,0,0,2.39,0Z" transform="translate(-10386.852 2002.5)" fill="#432968"/>
    <text id="_" data-name="%" transform="translate(-10379.852 2020.5)" fill="#fff" font-size="16" font-family="Roboto-Medium, Roboto" font-weight="500"><tspan x="0" y="0">%</tspan></text>
  </g>
</svg>
