<svg xmlns="http://www.w3.org/2000/svg" width="41.837" height="28.32" viewBox="0 0 41.837 28.32">
  <g id="Group_567" data-name="Group 567" transform="translate(-700.975 2031.901)">
    <path id="Path_865" data-name="Path 865" d="M767.494-1971.44a13.17,13.17,0,0,1,5.128,12.176c-.221,2.315-1.774,3.754-4.454,4a59.967,59.967,0,0,1-13.456-.154c-3.381-.448-4.818-2.284-4.668-5.674a12.9,12.9,0,0,1,5.272-10.295A8.279,8.279,0,0,0,767.494-1971.44Z" transform="translate(-39.454 -48.624)" fill="#432968"/>
    <path id="Path_866" data-name="Path 866" d="M775.335-2025.535a6.316,6.316,0,0,1,6.4-6.366,6.317,6.317,0,0,1,6.393,6.467,6.356,6.356,0,0,1-6.446,6.33A6.356,6.356,0,0,1,775.335-2025.535Z" transform="translate(-59.801)" fill="#432968"/>
    <path id="Path_867" data-name="Path 867" d="M859.5-1960.816a15.53,15.53,0,0,0-3.381-11.114,6.452,6.452,0,0,0,7.425-1.471,9.453,9.453,0,0,1,3.8,5.876,12.169,12.169,0,0,1,.24,2.71c-.022,2.275-.9,3.331-3.134,3.772a17.777,17.777,0,0,1-2.619.22C861.087-1960.789,860.343-1960.816,859.5-1960.816Z" transform="translate(-124.77 -47.047)" fill="#432968"/>
    <path id="Path_868" data-name="Path 868" d="M712.525-1971.858a15.406,15.406,0,0,0-3.381,11.079c-2.231.008-4.4.221-6.429-.813a3.047,3.047,0,0,1-1.622-2.313,10.063,10.063,0,0,1,3.991-9.368A6.428,6.428,0,0,0,712.525-1971.858Z" transform="translate(0 -47.15)" fill="#432968"/>
    <path id="Path_869" data-name="Path 869" d="M730.363-2015.213a4.934,4.934,0,0,1-4.919,5,5,5,0,0,1-4.944-4.907,4.927,4.927,0,0,1,4.945-4.976A4.877,4.877,0,0,1,730.363-2015.213Z" transform="translate(-15.702 -9.496)" fill="#432968"/>
    <path id="Path_870" data-name="Path 870" d="M850.006-2020.1a4.936,4.936,0,0,1,4.977,4.847,5,5,0,0,1-4.913,5.036,4.933,4.933,0,0,1-4.951-4.971A4.878,4.878,0,0,1,850.006-2020.1Z" transform="translate(-115.924 -9.493)" fill="#432968"/>
  </g>
</svg>
