<svg xmlns="http://www.w3.org/2000/svg" width="30.019" height="30.029" viewBox="0 0 30.019 30.029">
  <g id="Group_558" data-name="Group 558" transform="translate(-1864.347 864.705)">
    <path id="Path_89" data-name="Path 89" d="M1953.535-781.873v-1.345h-1.392v-1.406h2.836v-1.417h-7.139v1.461h-2.776l0,0c-.03-.392-.084-.783-.086-1.175,0-.586.031-1.173.05-1.759l-.017.015h1.35v-1.453h-1.35l.018.016q.012-.711.024-1.424h2.8v-1.427h1.4v1.375h1.419v-2.84l-.014.016,4.356-.039v1.43h1.387v-1.416H1955v-1.434h-2.9V-797.5h-4.273v1.388c-.856,0-1.652-.01-2.447.01-.135,0-.38.13-.382.205-.027.869-.017,1.74-.017,2.662h1.38v1.432h-1.425c.047.527.089.995.13,1.462h-1.493v-1.462h-4.292v-1.445h4.267v-11.4h1.521l-.01-.008c-.026.055-.076.11-.076.165q0,1.965,0,3.929a.537.537,0,0,0,.058.152h1.324v-2.8h1.456v2.786l1.455.105-.009-.012v1.392h7.148v1.405h1.46v1.4l.015-.011-1.427.069v1.386h1.425l-.011-.013v2.933h1.5l-.012-.01c-.029.407-.071.813-.082,1.22-.014.524,0,1.048,0,1.621H1957.9v2.831l1.475.1-.009-.008c-.035.437-.071.873-.112,1.374h2.85v1.424h-4.224v2.828h-1.445v-1.41c-.827,0-1.589,0-2.351,0a4.823,4.823,0,0,1-.558-.068Zm.027-7.06v-1.417h-1.4v1.4h1.413v1.422h2.823v-1.408Zm-4.295,1.4h1.386v-1.385h-1.386Zm5.72-9.97h-1.4v1.354h1.4Z" transform="translate(-67.741 -54.281)" fill="#fff"/>
    <path id="Path_90" data-name="Path 90" d="M1874.362-864.667v9.959h-9.987c-.008-.162-.024-.318-.024-.474q0-4.511,0-9.021c0-.3,0-.5.416-.5,3.087.016,6.174.009,9.261.01C1874.118-864.7,1874.212-864.68,1874.362-864.667Zm-1.436,8.561v-7.115a.865.865,0,0,0-.164-.038c-2.205,0-4.411,0-6.616-.011-.366,0-.364.193-.364.454,0,2.11,0,4.219,0,6.329,0,.123.022.246.035.381Z" transform="translate(0 0)" fill="#fff"/>
    <path id="Path_91" data-name="Path 91" d="M2073.272-864.4h9.944v9.983h-9.944Zm8.5,8.567v-7.116h-7.053v7.116Z" transform="translate(-188.861 -0.279)" fill="#fff"/>
    <path id="Path_92" data-name="Path 92" d="M1864.611-645.69v-9.945h9.983v9.945Zm1.434-1.449h7.118V-654.2h-7.118Z" transform="translate(-0.239 -188.992)" fill="#fff"/>
    <path id="Path_93" data-name="Path 93" d="M1985.71-858.553c-.032-.279-.086-.557-.092-.836-.013-.683,0-1.367,0-2.082h-1.374v-2.816h7.06v2.8h-1.379v1.448h1.377v2.849h-1.4v-1.4h-1.418v-1.4h-1.434v1.43H1985.7Zm2.727-2.945v-1.357h-1.375v1.357Z" transform="translate(-108.379 -0.378)" fill="#fff"/>
    <path id="Path_94" data-name="Path 94" d="M1871.906-730.3c-.019.424-.037.847-.059,1.325h2.852v1.42h-4.254v2.842h-5.713V-727.5h1.385v1.348h2.875c0-.637.006-1.27,0-1.9-.01-.748-.031-1.5-.048-2.244l0,0c.647-.031,1.294-.078,1.942-.087a9.819,9.819,0,0,1,1.029.089Z" transform="translate(-0.348 -121.42)" fill="#fff"/>
    <path id="Path_95" data-name="Path 95" d="M1985.624-596.279c-.038.432-.076.865-.118,1.347h1.433v1.409h1.415v1.412h-4.2v-4.242l1.474.078Z" transform="translate(-108.302 -242.581)" fill="#fff"/>
    <path id="Path_96" data-name="Path 96" d="M1868.916-743.308c-.325-.03-.65-.078-.975-.085-.589-.014-1.178,0-1.828,0v1.387H1864.7v-2.764h4.278c-.023.5-.046.982-.069,1.469Z" transform="translate(-0.321 -108.414)" fill="#fff"/>
    <path id="Path_97" data-name="Path 97" d="M2147.829-743.382v-1.376h2.789v4.2h-1.4v-2.826Z" transform="translate(-256.258 -108.428)" fill="#fff"/>
    <path id="Path_98" data-name="Path 98" d="M1938.819-743.247c-.023-.475-.045-.95-.07-1.465h2.858v1.371c-.779,0-1.54-.005-2.3,0a2.927,2.927,0,0,0-.492.087Z" transform="translate(-67.257 -108.47)" fill="#fff"/>
    <path id="Path_99" data-name="Path 99" d="M2043.3-773.211v-1.453h1.377v1.358l-1.388.082Z" transform="translate(-161.759 -81.394)" fill="#fff"/>
    <path id="Path_100" data-name="Path 100" d="M2163.978-654.322h-1.368v-1.4h1.368Z" transform="translate(-269.62 -188.917)" fill="#fff"/>
    <path id="Path_101" data-name="Path 101" d="M1985.585-639.63h-1.439v-1.422h1.439l-.018-.016v1.453Z" transform="translate(-108.295 -202.16)" fill="#fff"/>
    <path id="Path_102" data-name="Path 102" d="M2074.694-567.513v1.488h-1.369v-1.382c.472-.032.926-.062,1.379-.094Z" transform="translate(-188.909 -268.651)" fill="#fff"/>
    <path id="Path_103" data-name="Path 103" d="M2132.936-716.091h1.368v1.431h-1.366l.011.013q0-.727,0-1.455Z" transform="translate(-242.796 -134.332)" fill="#fff"/>
    <path id="Path_104" data-name="Path 104" d="M2162.538-566.5h1.382v1.377h-1.382Z" transform="translate(-269.555 -269.57)" fill="#fff"/>
    <path id="Path_105" data-name="Path 105" d="M2147.293-684.284c-.045-.476-.09-.952-.137-1.459h1.423v1.446h-1.3Z" transform="translate(-255.65 -161.776)" fill="#fff"/>
    <path id="Path_106" data-name="Path 106" d="M2043.232-579.8v-1.343h1.385v1.343Z" transform="translate(-161.706 -256.335)" fill="#fff"/>
    <path id="Path_107" data-name="Path 107" d="M2147.275-624.191c-.041-.469-.083-.937-.128-1.445h1.413v1.35l-1.295.086Z" transform="translate(-255.642 -216.11)" fill="#fff"/>
    <path id="Path_108" data-name="Path 108" d="M2044.654-699.056h-1.4v-1.4h1.389c0,.477,0,.948,0,1.419Z" transform="translate(-161.724 -148.473)" fill="#fff"/>
    <path id="Path_109" data-name="Path 109" d="M1894.366-834.788h4.256v4.258h-4.256Z" transform="translate(-27.137 -27.044)" fill="#fff"/>
    <path id="Path_110" data-name="Path 110" d="M2107.541-834.723v4.275h-4.217v-4.275Z" transform="translate(-216.027 -27.103)" fill="#fff"/>
    <path id="Path_111" data-name="Path 111" d="M1894.375-625.789h4.255v4.232h-4.255Z" transform="translate(-27.145 -215.972)" fill="#fff"/>
  </g>
</svg>
