<svg xmlns="http://www.w3.org/2000/svg" xmlns:xlink="http://www.w3.org/1999/xlink" width="50" height="50" viewBox="0 0 50 50">
  <defs>
    <linearGradient id="linear-gradient" x1="0.5" x2="0.5" y2="1" gradientUnits="objectBoundingBox">
      <stop offset="0" stop-color="#fc9433" stop-opacity="0.09"/>
      <stop offset="1" stop-color="#432968" stop-opacity="0.09"/>
    </linearGradient>
  </defs>
  <g id="Group_578" data-name="Group 578" transform="translate(-923 -586)">
    <circle id="Ellipse_222" data-name="Ellipse 222" cx="25" cy="25" r="25" transform="translate(923 586)" opacity="0.9" fill="url(#linear-gradient)"/>
    <g id="Group_564" data-name="Group 564" transform="translate(964.983 1589.416)">
      <path id="Path_856" data-name="Path 856" d="M-24.891-980.789l2.077-.184-3.511,5.511-4.436-4.765c.526-.059.961-.135,1.4-.147.342-.009.479-.129.532-.471a11.676,11.676,0,0,1,6.818-9.166,11.888,11.888,0,0,1,15.594,5.5,25.487,25.487,0,0,1,1.02,2.93c.037.112-.035.259-.056.389-.1-.1-.245-.183-.291-.3a9.883,9.883,0,0,0-8.145-6.617,9.983,9.983,0,0,0-10.53,6.022C-24.577-981.7-24.706-981.3-24.891-980.789Z" transform="translate(0)" fill="#432968"/>
      <path id="Path_857" data-name="Path 857" d="M11.281-885.9l-2.048.142,3.5-5.493,4.455,4.793c-.544.043-.969.1-1.394.1-.358,0-.507.14-.56.5A11.933,11.933,0,0,1,4.727-875.654,11.929,11.929,0,0,1-7.8-883.673a13.057,13.057,0,0,1-.355-1.312,2.048,2.048,0,0,1,.019-.525c.111.133.271.248.327.4a9.883,9.883,0,0,0,2.465,3.8,10,10,0,0,0,16.257-3.54C11.039-885.158,11.137-885.482,11.281-885.9Z" transform="translate(-20.393 -90.135)" fill="#432968"/>
    </g>
  </g>
</svg>
