<svg xmlns="http://www.w3.org/2000/svg" width="27.5" height="21.389" viewBox="0 0 27.5 21.389">
  <path id="Icon_awesome-shopping-basket" data-name="Icon awesome-shopping-basket" d="M27.5,11.035V11.8a1.146,1.146,0,0,1-1.146,1.146h-.382l-1.247,8.727a2.292,2.292,0,0,1-2.269,1.968H5.043a2.292,2.292,0,0,1-2.269-1.968L1.528,12.944H1.146A1.146,1.146,0,0,1,0,11.8v-.764A1.146,1.146,0,0,1,1.146,9.889H4.361l5.1-7.01a1.528,1.528,0,1,1,2.471,1.8L8.139,9.889H19.361L15.57,4.676a1.528,1.528,0,0,1,2.471-1.8l5.1,7.01h3.215A1.146,1.146,0,0,1,27.5,11.035Zm-12.6,8.4V14.09a1.146,1.146,0,1,0-2.292,0v5.347a1.146,1.146,0,1,0,2.292,0Zm5.347,0V14.09a1.146,1.146,0,1,0-2.292,0v5.347a1.146,1.146,0,1,0,2.292,0Zm-10.694,0V14.09a1.146,1.146,0,1,0-2.292,0v5.347a1.146,1.146,0,1,0,2.292,0Z" transform="translate(0 -2.25)" fill="#432968"/>
</svg>
