<svg xmlns="http://www.w3.org/2000/svg" xmlns:xlink="http://www.w3.org/1999/xlink" width="50" height="50" viewBox="0 0 50 50">
  <defs>
    <linearGradient id="linear-gradient" x1="0.5" x2="0.5" y2="1" gradientUnits="objectBoundingBox">
      <stop offset="0" stop-color="#fc9433" stop-opacity="0.09"/>
      <stop offset="1" stop-color="#432968" stop-opacity="0.09"/>
    </linearGradient>
  </defs>
  <g id="Group_580" data-name="Group 580" transform="translate(-1087 -586)">
    <circle id="Ellipse_224" data-name="Ellipse 224" cx="25" cy="25" r="25" transform="translate(1087 586)" opacity="0.9" fill="url(#linear-gradient)"/>
    <path id="Path_858" data-name="Path 858" d="M-610.227-1460.156a4.828,4.828,0,0,1,.089,1.8c-.007.053.1.149.176.182,1.485.649,2.975,1.285,4.457,1.939a.52.52,0,0,0,.627-.077,4.3,4.3,0,0,1,4.864-.5,4.282,4.282,0,0,1,2.469,4.2,4.514,4.514,0,0,1-4.16,4.336,4.532,4.532,0,0,1-4.818-3.867,7.042,7.042,0,0,1,.028-1.431c.011-.167-.011-.245-.173-.313q-2.247-.958-4.485-1.936a.308.308,0,0,0-.387.073,4.346,4.346,0,0,1-4.591.946,4.344,4.344,0,0,1-2.964-3.635,4.525,4.525,0,0,1,3.907-5.1,4.454,4.454,0,0,1,3.448,1.005.232.232,0,0,0,.3.033q2.442-1.3,4.89-2.587c.136-.071.161-.141.124-.291a4.52,4.52,0,0,1,3.876-5.644,4.525,4.525,0,0,1,5.01,4.595,4.33,4.33,0,0,1-2.566,3.974,4.34,4.34,0,0,1-4.624-.429c-.1-.071-.176-.114-.306-.044q-2.538,1.356-5.083,2.7C-610.152-1460.208-610.185-1460.183-610.227-1460.156Zm5.851,7.359a2.321,2.321,0,0,0,2.336,2.331,2.325,2.325,0,0,0,2.307-2.31,2.327,2.327,0,0,0-2.324-2.346A2.328,2.328,0,0,0-604.376-1452.8Zm-7.92-6.232a2.331,2.331,0,0,0-2.315-2.356,2.329,2.329,0,0,0-2.328,2.343,2.323,2.323,0,0,0,2.327,2.315A2.326,2.326,0,0,0-612.3-1459.029Zm7.92-7.488a2.33,2.33,0,0,0,2.322,2.324,2.329,2.329,0,0,0,2.322-2.349,2.32,2.32,0,0,0-2.335-2.307A2.321,2.321,0,0,0-604.376-1466.516Z" transform="translate(1720.148 2071.056)" fill="#432968"/>
  </g>
</svg>
