<svg xmlns="http://www.w3.org/2000/svg" xmlns:xlink="http://www.w3.org/1999/xlink" width="251.266" height="248.785" viewBox="0 0 251.266 248.785">
  <defs>
    <linearGradient id="linear-gradient" x1="0.629" y1="-0.088" x2="0.054" y2="0.703" gradientUnits="objectBoundingBox">
      <stop offset="0" stop-color="#fc9433" stop-opacity="0.11"/>
      <stop offset="1" stop-color="#432968" stop-opacity="0.11"/>
    </linearGradient>
  </defs>
  <g id="Group_507" data-name="Group 507" transform="translate(-162.319 -761.363)">
    <path id="Path_375" data-name="Path 375" d="M140.994-30.331C154.56-6.1,135.11,32.37,111.738,67.025s-50.668,65.492-81.559,67.254c-30.728,1.909-65.215-25.257-77.637-54.332C-60.044,51.019-50.564,20.182-33.4-5.809-16.24-31.947,8.767-53.092,44.561-58.819,80.519-64.4,127.265-54.413,140.994-30.331Z" transform="translate(319.504 935.776) rotate(-161)" fill="url(#linear-gradient)"/>
    <line id="Line_31" data-name="Line 31" x2="136.108" y2="0.209" transform="translate(224.392 1006.291)" fill="none" stroke="#a187ac" stroke-width="1"/>
    <g id="Group_236" data-name="Group 236" transform="translate(277.741 983.368)">
      <path id="Path_304" data-name="Path 304" d="M1433.877,1095.4a23.119,23.119,0,0,0,4.045,9.739c.15.225.3.374.45.6.374.45.749.824,1.124,1.2a3.766,3.766,0,0,0,.6.524,22.238,22.238,0,0,0,6.068,3.671c4.719,2.022,4.944,7.191,4.944,7.191l-37.006-.225c.449-6.143.449-17.754.449-17.754C1422.266,1098.022,1425.936,1096.673,1433.877,1095.4Z" transform="translate(-1414.1 -1095.4)" fill="#432968"/>
    </g>
    <g id="Group_237" data-name="Group 237" transform="translate(296.94 993.106)">
      <path id="Path_305" data-name="Path 305" d="M1444.352,1108.4c.15.225.3.375.449.6-1.5.674-3,1.423-4.495,2.1-.449.225-.824-.449-.375-.6C1441.43,1109.748,1442.929,1109.074,1444.352,1108.4Z" transform="translate(-1439.729 -1108.4)" fill="#fff"/>
    </g>
    <g id="Group_238" data-name="Group 238" transform="translate(298.214 994.829)">
      <path id="Path_306" data-name="Path 306" d="M1446.427,1110.7a3.767,3.767,0,0,0,.6.525c-1.648.824-3.371,1.573-5.019,2.4-.449.225-.824-.449-.375-.6C1443.205,1112.273,1444.779,1111.524,1446.427,1110.7Z" transform="translate(-1441.429 -1110.7)" fill="#fff"/>
    </g>
    <g id="Group_239" data-name="Group 239" transform="translate(272.422 898.073)">
      <path id="Path_307" data-name="Path 307" d="M1435.536,986.529c5.028,39.478.989,88.021.989,88.021l-25.779,1.723s-3.746-60.679-3.567-88.546C1404.376,974.543,1435.536,986.529,1435.536,986.529Z" transform="translate(-1407 -981.54)" fill="#352e53"/>
    </g>
    <g id="Group_240" data-name="Group 240" transform="translate(228.063 983.368)">
      <path id="Path_308" data-name="Path 308" d="M1384.341,1100.344s0,11.611.449,17.754l-37.006.225s.225-5.169,4.944-7.191a22.23,22.23,0,0,0,6.068-3.671,3.756,3.756,0,0,0,.6-.524c.375-.375.749-.749,1.124-1.2.15-.225.3-.375.449-.6a23.119,23.119,0,0,0,4.045-9.739C1372.954,1096.673,1376.625,1098.022,1384.341,1100.344Z" transform="translate(-1347.784 -1095.4)" fill="#432968"/>
    </g>
    <g id="Group_241" data-name="Group 241" transform="translate(240.798 993.106)">
      <path id="Path_309" data-name="Path 309" d="M1369.653,1110.5c.449.15.075.824-.375.6-1.5-.674-3-1.423-4.495-2.1.15-.225.3-.375.449-.6C1366.657,1109.074,1368.155,1109.748,1369.653,1110.5Z" transform="translate(-1364.784 -1108.4)" fill="#fff"/>
    </g>
    <g id="Group_242" data-name="Group 242" transform="translate(239 994.829)">
      <path id="Path_310" data-name="Path 310" d="M1367.778,1113.022c.45.15.075.824-.375.6-1.648-.824-3.371-1.573-5.019-2.4a3.763,3.763,0,0,0,.6-.525C1364.631,1111.524,1366.2,1112.273,1367.778,1113.022Z" transform="translate(-1362.384 -1110.7)" fill="#fff"/>
    </g>
    <g id="Group_243" data-name="Group 243" transform="translate(239.328 899.695)">
      <path id="Path_311" data-name="Path 311" d="M1400.309,990.668c-.923,5.3-4.213,18.111-4.077,34.459.205,24.557-7.824,51.689-7.824,51.689l-24.322-1.723s-3.329-48.543.816-88.021C1364.9,987.072,1402.619,977.484,1400.309,990.668Z" transform="translate(-1362.822 -983.705)" fill="#352e53"/>
    </g>
    <g id="Group_244" data-name="Group 244" transform="translate(324.176 899.267)">
      <path id="Path_312" data-name="Path 312" d="M1490.22,986.393c1.356,6.048,3.753,10.82.9,12.265,0,0-1.379,3.153-2.73,1.987.342,3,1.82,4.948.261,5.819-2.561,1.474-6.737-10.387-6.737-10.387l-1.19,1.879s2.26,3.522,1.058,4.929c-1.166,1.351-6.007-3.962-5.681-9.486.243-4.415.542-10.265.542-10.265Z" transform="translate(-1476.086 -983.133)" fill="#ffcc3e"/>
    </g>
    <g id="Group_245" data-name="Group 245" transform="translate(288.828 848.551)">
      <path id="Path_313" data-name="Path 313" d="M1479.166,967.547c-3-11.986-3.236-8.93-5.179-21.459a19.767,19.767,0,0,0-10.437-14.565c-14.454-7.454-26.668-16.863-34.65-16.039l2.4,16.406s7.941,16.406,22.624,19.627,9.514,20.526,8.765,22.773C1468.678,972.791,1482.612,970.468,1479.166,967.547Z" transform="translate(-1428.9 -915.433)" fill="#fc9433"/>
    </g>
    <g id="Group_246" data-name="Group 246" transform="translate(334.98 912.717)">
      <path id="Path_314" data-name="Path 314" d="M1492.345,1004.742a12.324,12.324,0,0,0-1.206-3.474.337.337,0,1,0-.591.322,11.132,11.132,0,0,1,1.165,3.294C1491.759,1005.3,1492.426,1005.1,1492.345,1004.742Z" transform="translate(-1490.508 -1001.088)" fill="#432968"/>
    </g>
    <g id="Group_247" data-name="Group 247" transform="translate(338.307 910.678)">
      <path id="Path_315" data-name="Path 315" d="M1496.374,1001.415l-.773-2.813c-.136-.4-.768-.255-.632.142l.773,2.813C1495.787,1001.973,1496.42,1001.832,1496.374,1001.415Z" transform="translate(-1494.95 -998.366)" fill="#432968"/>
    </g>
    <g id="Group_248" data-name="Group 248" transform="translate(267.928 838.489)">
      <path id="Path_316" data-name="Path 316" d="M1401.749,902l-.749,5.019,8.579,1.573.411-6.517Z" transform="translate(-1401 -902)" fill="#ffcc3e"/>
    </g>
    <g id="Group_249" data-name="Group 249" transform="translate(240.96 841.506)">
      <path id="Path_317" data-name="Path 317" d="M1408.449,909c-7.941-6.194-22.16-1.874-28.466,5.244C1367.173,928.7,1365,971.18,1365,971.18l62.7-.605s-3.9-47.894-9.514-55.977C1414.442,912,1414.442,912,1408.449,909Z" transform="translate(-1365 -906.028)" fill="#fc9433"/>
    </g>
    <g id="Group_250" data-name="Group 250" transform="translate(295.102 853.227)">
      <path id="Path_318" data-name="Path 318" d="M1440.815,942.53c-.225,0-.524-.25-.524-.748,0-.125-.974-7.481-3-18.953-.075-.5.075-1,.374-1.122s.6.125.674.623c2.1,11.6,3,18.953,3,19.078a1.078,1.078,0,0,1-.449,1.122Z" transform="translate(-1437.275 -921.674)" fill="#fff"/>
    </g>
    <path id="Path_319" data-name="Path 319" d="M1412.658,888.29c-1.9,5.693-5.7,10.24-12.707,7.226a10.766,10.766,0,0,1-5.82-13.345c1.9-5.693,7.552-8.934,12.707-7.226S1414.558,882.6,1412.658,888.29Z" transform="translate(-1131.204 -56.61)" fill="#ffcc3e"/>
    <g id="Group_254" data-name="Group 254" transform="translate(269.605 827.022)">
      <circle id="Ellipse_130" data-name="Ellipse 130" cx="0.749" cy="0.749" r="0.749" fill="#030047"/>
    </g>
    <g id="Group_255" data-name="Group 255" transform="translate(276.348 827.022)">
      <circle id="Ellipse_131" data-name="Ellipse 131" cx="0.749" cy="0.749" r="0.749" transform="translate(0)" fill="#030047"/>
    </g>
    <g id="Group_256" data-name="Group 256" transform="translate(273.103 829.643)">
      <path id="Path_320" data-name="Path 320" d="M1408.917,894.058a18.559,18.559,0,0,1-.183-4.831c.072-.474-.669-.5-.741-.029a17.464,17.464,0,0,0,.23,4.992C1408.364,894.672,1409.058,894.54,1408.917,894.058Z" transform="translate(-1407.908 -888.856)" fill="#030047"/>
    </g>
    <g id="Group_258" data-name="Group 258" transform="translate(259.637 816.219)">
      <path id="Path_322" data-name="Path 322" d="M1409.473,879.605c-2.43.2-11.172-2.375-11.664,2.68-.163,1.278.243,2.163-1.074,2.374-1.325,0-2.257,4.639-2.257,4.639a9.14,9.14,0,0,0-3.832-.721.739.739,0,0,1-.709-.727c-.15-5.367,4.017-14.522,6.206-14.354,0,0,17.924-3.93,18.8,2.292C1415.687,881.273,1409.473,879.605,1409.473,879.605Z" transform="translate(-1389.933 -872.273)" fill="#2e2e53"/>
    </g>
    <path id="Path_323" data-name="Path 323" d="M1408.5,1017.608s3.221-7.117,1.8-14.608" transform="translate(-1134.954 -88.851)" fill="none" stroke="#030047" stroke-linecap="round" stroke-miterlimit="10" stroke-width="1"/>
    <g id="Group_259" data-name="Group 259" transform="translate(221.75 846.504)">
      <path id="Path_324" data-name="Path 324" d="M1388.531,963.19c-.674-2.322-10.712-5.993-11.237-8.315-3.221,1.8-6.218-.225-9.064-1.2-12.66-1.049-10.787-17.08-1.723-24.2a26.087,26.087,0,0,0,9.888-16.78c-14.308.6-28.092,9.214-34.459,26.594-7.192,19.777,2.172,29.815,9.589,33.336,7.341,3.446,28.017,2.172,28.017,2.172.225.375,2.023-2.772,2.4-3.071C1383.962,969.108,1389.505,966.487,1388.531,963.19Z" transform="translate(-1339.357 -912.7)" fill="#fc9433"/>
    </g>
    <g id="Group_260" data-name="Group 260" transform="translate(241.148 866.356)">
      <path id="Path_325" data-name="Path 325" d="M1395.028,966.468a.451.451,0,0,1-.3-.075c-.075-.075-7.416-4.495-23.672-6.817a6.169,6.169,0,0,1-4.869-3.371c-1.873-3.746-.9-9.963,2.622-16.705a.553.553,0,0,1,.974.524c-3.371,6.292-4.345,12.36-2.622,15.731a5.02,5.02,0,0,0,4.045,2.772c16.556,2.4,23.822,6.742,24.122,6.967a.467.467,0,0,1,.15.749A.453.453,0,0,1,1395.028,966.468Z" transform="translate(-1365.252 -939.2)" fill="#fff"/>
    </g>
    <g id="Group_261" data-name="Group 261" transform="translate(233.449 905.965)">
      <path id="Path_326" data-name="Path 326" d="M1366.006,995.015h0a46.692,46.692,0,0,1-10.638-1.873.545.545,0,1,1,.3-1.049,44.686,44.686,0,0,0,10.338,1.873.579.579,0,0,1,.524.6A.5.5,0,0,1,1366.006,995.015Z" transform="translate(-1354.975 -992.075)" fill="#fff"/>
    </g>
    <g id="Group_262" data-name="Group 262" transform="translate(262.984 894.747)">
      <path id="Path_327" data-name="Path 327" d="M1403.165,977.1c-3.97,2.922-6.068,8.54-8.765,12.96.6,1.423.974,1.5,4.2,1.948,5.843.749,5.693,4.794,8.615,4.794,2.922-.075,3-1.648,3-1.648a4.751,4.751,0,0,0,4.57-2.547C1423.016,989.535,1408.334,977.325,1403.165,977.1Z" transform="translate(-1394.4 -977.1)" fill="#ffcc3e"/>
    </g>
    <g id="Group_263" data-name="Group 263" transform="translate(273.792 905.745)">
      <path id="Path_328" data-name="Path 328" d="M1413.751,997.563a22.675,22.675,0,0,0-4.27-5.693c-.375-.3-.9.225-.524.524a20.43,20.43,0,0,1,4.2,5.544C1413.377,998.387,1413.976,998.013,1413.751,997.563Z" transform="translate(-1408.828 -991.781)" fill="#432968"/>
    </g>
    <g id="Group_264" data-name="Group 264" transform="translate(277.687 902.224)">
      <path id="Path_329" data-name="Path 329" d="M1419.625,994.137c-.824-3-2.622-5.019-4.944-6.967-.375-.3-.9.225-.524.524a13.687,13.687,0,0,1,4.719,6.667C1419.1,994.811,1419.775,994.586,1419.625,994.137Z" transform="translate(-1414.028 -987.081)" fill="#432968"/>
    </g>
    <rect id="Rectangle_1074" data-name="Rectangle 1074" width="3.71" height="10.799" transform="translate(318.733 927.262) rotate(-49.17)" fill="#fc9433"/>
    <rect id="Rectangle_1072" data-name="Rectangle 1072" width="3.71" height="9.573" transform="translate(371.262 977.46) rotate(-49.17)" fill="#fc9433"/>
    <path id="Path_149" data-name="Path 149" d="M-1216.271-120.828v.218q-.007.82-.047,1.632a36.355,36.355,0,0,1-38.155,34.461,36.355,36.355,0,0,1-34.434-33.987q-.074-1.154-.074-2.325a36.176,36.176,0,0,1,6.685-21.014q.523-.742,1.088-1.457c.26-.331.527-.655.8-.977a36.362,36.362,0,0,1,50.665-4.808c.438.354.868.72,1.289,1.093q.5.449.992.918a36.255,36.255,0,0,1,11.07,23.188Q-1216.271-122.371-1216.271-120.828Z" transform="translate(1603.045 1074.574)" fill="#e2ada6" opacity="0.53"/>
    <path id="Path_152" data-name="Path 152" d="M-1269.57-48.34a40.977,40.977,0,0,1-40.93-40.931,40.8,40.8,0,0,1,10.921-27.834l.906.841a39.563,39.563,0,0,0-10.591,26.993,39.739,39.739,0,0,0,39.694,39.694,39.381,39.381,0,0,0,28.5-12.061l.888.861A40.607,40.607,0,0,1-1269.57-48.34Z" transform="translate(1619.989 1043.016)" fill="#fc9433"/>
    <rect id="Rectangle_1073" data-name="Rectangle 1073" width="10.387" height="12.48" transform="translate(345.968 993.811)" fill="#fc9433"/>
    <path id="Path_153" data-name="Path 153" d="M-1281.208-95.5a.2.2,0,0,1,.049.03c.2.161-.049.47-.02.725.035.326.47.4.8.43s.745.3.589.591a3.645,3.645,0,0,1-2.505-.319,36.176,36.176,0,0,0-6.685,21.014q0,1.172.074,2.325a.943.943,0,0,0,.225.121,4.808,4.808,0,0,1,.762.21c.181.106.3.294.482.393.517.282,1.234-.26,1.716.077a4.384,4.384,0,0,1,.354.361c.445.386,1.177.126,1.691.415a2,2,0,0,1,.68.893,2.873,2.873,0,0,0,2.107,1.734,5.649,5.649,0,0,1,.9.03c.292.067.579.321.532.616-.082.507.168,1.061.1,1.568-.121.927-1.435,1.333-1.546,2.26a5.611,5.611,0,0,1-.035.611c-.059.242-.242.44-.307.683a1.3,1.3,0,0,0,.564,1.222,3.332,3.332,0,0,1,.989,1.007,5.184,5.184,0,0,1,.173,1.486,3.557,3.557,0,0,0,2.05,2.409,2.141,2.141,0,0,1,.8.584,3.227,3.227,0,0,1,.307,1.259c.2,1.046,1.083,1.909,1.108,2.975a6.33,6.33,0,0,1-.655,2.161,4.989,4.989,0,0,0-.225,2.335,36.526,36.526,0,0,0,4.484,3.252,1.309,1.309,0,0,0,.185-.415.822.822,0,0,0-.383-.851,2.034,2.034,0,0,0,.71-.455.7.7,0,0,0,.128-.786,1.375,1.375,0,0,0,1.239-.252,1.108,1.108,0,0,0,.124-1.007,4.146,4.146,0,0,1-.248-1.024,18.424,18.424,0,0,0,3.022-.1,1.963,1.963,0,0,0-.92-1.153,1.593,1.593,0,0,0,1.011-1.058,2.7,2.7,0,0,0,.02-1.368.73.73,0,0,1-.015-.356.7.7,0,0,1,.361-.349l2.255-1.3a1.361,1.361,0,0,0,.361-.265,1.076,1.076,0,0,0,.079-1.041,5.25,5.25,0,0,1-.361-1.029c-.138-1.081,1.019-1.857,1.41-2.876a4.321,4.321,0,0,0,.213-1.259,1.5,1.5,0,0,0-.317-1.286c-.339-.284-.865-.22-1.219-.485-.324-.242-.435-.71-.789-.905-.322-.178-.722-.064-1.081-.148-.628-.146-1.024-.871-1.667-.937-.361-.04-.772.139-1.068-.072-.262-.188-.272-.561-.322-.878a2.453,2.453,0,0,0-1.979-1.983,2.764,2.764,0,0,1-1.1-.242c-.322-.208-.467-.6-.722-.885a3.021,3.021,0,0,0-1.65-.769q-1.224-.286-2.446-.574c-.433-.1-.992-.158-1.227.223a1.675,1.675,0,0,0-.143.458,1.419,1.419,0,0,1-1.331,1,1.573,1.573,0,0,0-.925-.717,5.8,5.8,0,0,1-.752-.178,1.053,1.053,0,0,1-.483-1.409q.013-.026.028-.052a1.312,1.312,0,0,0-.225-1.575,2.129,2.129,0,0,0-1.575-.428c-.146-.319.1-.678.361-.91s.584-.458.641-.8c.092-.544-.6-.957-1.13-.8a1.968,1.968,0,0,0-1.086,1.18,3.557,3.557,0,0,1-.438.839.86.86,0,0,1-.831.341c-.436-.111-.6-.628-.7-1.063a6.939,6.939,0,0,1-.232-1.783,2.327,2.327,0,0,1,.673-1.622,3.509,3.509,0,0,1,2.8-.492.713.713,0,0,1,.074-.94,1.069,1.069,0,0,1,.969-.237,1.331,1.331,0,0,1,.75.448,6.952,6.952,0,0,1,.564,1.175c.21.383.68.71,1.063.5a.9.9,0,0,0,.3-1.007,3.748,3.748,0,0,1-.23-1.1c.057-.715.8-1.147,1.457-1.442s1.4-.692,1.509-1.4a1.312,1.312,0,0,1,.079-.406.794.794,0,0,1,.294-.277,24.772,24.772,0,0,1,6.044-3.235c.114-.037.126,0,.242-.025.163-.094.054-.354-.1-.458s-.364-.185-.4-.368c-.027-.134.052-.267.072-.4a.5.5,0,0,0-.471-.534.5.5,0,0,0-.19.024c-.176-.232.171-.5.453-.581a12.355,12.355,0,0,1,2.584-.421.461.461,0,0,1,.294.05.35.35,0,0,1,.022.48,2.708,2.708,0,0,1-.393.359,1.081,1.081,0,0,0-.282,1.086,2.464,2.464,0,0,0,1.459.391c.5-.082.952-.65.715-1.1-.22-.423-.885-.519-1-.982-.133-.542.633-1.024.46-1.553-.074-.233-.307-.371-.485-.537a1.463,1.463,0,0,1-.319-1.617,1.842,1.842,0,0,1-1.612-.5c-.386-.388-.693-1-1.242-.984-.5.015-.935.6-1.4.423-.116-.045-.237-.134-.349-.082a.288.288,0,0,0-.131.215c-.119.571.087,1.222-.225,1.716-.339.537-1.123.611-1.533,1.1-.223.262-.309.616-.514.893s-.638.455-.885.213a1.219,1.219,0,0,0-.331-1.484,3.191,3.191,0,0,0-.732-.356,4.334,4.334,0,0,1-.819-.455.81.81,0,0,1-.3-.321.74.74,0,0,1,.02-.509,2.082,2.082,0,0,1,1.655-1.37c.326-.044.707-.03.925-.279.114-.131.173-.331.342-.383a.5.5,0,0,1,.314.037l1.222.43a.835.835,0,0,0,.435.072.293.293,0,0,0,.255-.309c-.04-.2-.351-.3-.322-.5a.322.322,0,0,1,.1-.173,4.37,4.37,0,0,1,3.465-1.368c.153.255-.089.554-.295.769s-.366.6-.119.769a.652.652,0,0,0,.324.074,2.827,2.827,0,0,1,.865.262c.423.183.838.386,1.244.6a1.568,1.568,0,0,1,.03-.8.544.544,0,0,1,.643-.349c.242.094.366.415.626.445.344.04.48-.47.336-.786s-.43-.579-.453-.927c-.017-.233.072-.522-.114-.663a.492.492,0,0,0-.22-.079l-4.662-.856c-.277-.052-.675-.013-.687.267-.007.158.134.314.072.458s-.285.141-.443.2a.6.6,0,0,0-.346.636,1.732,1.732,0,0,0,.292.715c-.3-.126-.762-.148-1.066-.277a4.11,4.11,0,0,0-.267-1.026.362.362,0,0,0-.411-.307.376.376,0,0,0-.062.015l-1.2.183a.465.465,0,0,0-.275.106c-.156.166,0,.43-.007.658a.616.616,0,0,1-.477.532,1.8,1.8,0,0,1-.761-.01l-1.682-.26a2.756,2.756,0,0,0,1.271-.851c.223-.262.341-.752.02-.876a.768.768,0,0,0-.292-.022c-.762.005-1.363-.631-2.075-.9a2.039,2.039,0,0,0-.7-.128Z" transform="translate(1603.045 1026.77)" fill="#f5e8e5"/>
    <path id="Path_150" data-name="Path 150" d="M-1122-89.829a.894.894,0,0,1-.757.359c-.774-.067-1.1-1.182-1.867-1.308a.3.3,0,0,0-.2.02c-.114.062-.134.215-.141.344a4.262,4.262,0,0,0,.19,1.89c.364.861,1.306,1.583,1.108,2.5a3.886,3.886,0,0,1-1.867-2.832,19.909,19.909,0,0,0-.742-3.43c-.344.438-1.061.077-1.373-.383-.3-.435-.48-.94-.767-1.383a1.7,1.7,0,0,0-1.251-.861,2.245,2.245,0,0,0-1.452.712,3.363,3.363,0,0,0-.9,1,4.564,4.564,0,0,0-.233,1.951,2.977,2.977,0,0,1-.653,1.991,1.443,1.443,0,0,1-1.922.233,2.171,2.171,0,0,1-.537-.967,47.123,47.123,0,0,1-1.454-5.189c-.089.4-.443.917-.779.682a.692.692,0,0,1-.178-.232,5.2,5.2,0,0,0-2.963-2.082c-1.172-.381-2.406-.559-3.566-.98a9.124,9.124,0,0,1-1.852-.922,1.459,1.459,0,0,0-.089,1.489,1.193,1.193,0,0,0,1.341.562c.257-.084.475-.262.729-.351a.571.571,0,0,1,.71.2c.109.235-.054.519.027.767.121.373.687.4.885.744a.689.689,0,0,1-.186.8,3.325,3.325,0,0,1-.747.46,14.868,14.868,0,0,0-2.149,1.865,2.6,2.6,0,0,1-2.619.67c.205-1.046-1.039-1.813-1.269-2.854-.077-.344-.037-.707-.144-1.041a3.387,3.387,0,0,0-.937-1.182,4.647,4.647,0,0,1-1.274-3.376,4.686,4.686,0,0,0,0-1.288.966.966,0,0,0-.875-.806c-.982.045-2.221.119-2.735-.72a.772.772,0,0,1,0-.967.934.934,0,0,1,.71-.121l2.216.218a2.465,2.465,0,0,0,1.521-.178c.445-.27.638-.989.225-1.308-.3-.232-.838-.22-.927-.589-.072-.309.27-.658.084-.918-.131-.183-.428-.134-.609,0a3.957,3.957,0,0,1-.512.448,1.561,1.561,0,0,1-1.155-.111c-.381-.119-.89-.129-1.073.225-.208.393.181.913-.022,1.308-.272.522-1.187.225-1.568.675-.435.514.3,1.286.151,1.944a1.211,1.211,0,0,1-1.194-.067,1.156,1.156,0,0,1-.5-1.078c.035-.3.191-.6.087-.88a1.028,1.028,0,0,0-.522-.477q-1.076-.6-2.152-1.19a.971.971,0,0,0,.369,1.108,3.834,3.834,0,0,1,.918.853,1.122,1.122,0,0,1-.421,1.479.261.261,0,0,1-.215.037.3.3,0,0,1-.138-.185,4.576,4.576,0,0,0-1.86-2.436,2.209,2.209,0,0,0-2.82.45c-.141.2-.237.435-.361.651a3.754,3.754,0,0,1-3.381,1.645.652.652,0,0,1-.369-.087c-.213-.146-.2-.458-.171-.715.047-.364.092-.725.139-1.088a.871.871,0,0,1,.24-.6c.245-.193.6-.072.908-.077a1.143,1.143,0,0,0,1.041-.8,1.292,1.292,0,0,0-.361-1.286c-.141-.134-.331-.3-.257-.482a.4.4,0,0,1,.28-.188c.557-.161,1.148-.2,1.694-.4a1.762,1.762,0,0,0,1.212-1.147c.04-.173.057-.383.213-.47a.686.686,0,0,1,.247-.05,1.2,1.2,0,0,0,1.031-1.254.787.787,0,0,1,.885.148,2.457,2.457,0,0,0,.786.537c.576.158,1.133-.354,1.731-.356a2.166,2.166,0,0,0,.747,0c.24-.087.383-.324.566-.5s.507-.284.678-.094c-.049-.358-.1-.715-.146-1.071a2.1,2.1,0,0,0,1.714-.312l-1.867-.631a.4.4,0,0,1-.176-.094c-.136-.146,0-.373.109-.539.265-.4.309-1.054-.126-1.251a1.062,1.062,0,0,0-.92.186l-1.365.759c-.042.26.274.408.47.581a.788.788,0,0,1,.067,1.113.788.788,0,0,1-.581.265.986.986,0,0,1,.176.833l-.917.067a.394.394,0,0,1-.3-.059c-.1-.087-.084-.24-.109-.368a.8.8,0,0,0-.673-.586,2.325,2.325,0,0,0-.937.087.571.571,0,0,1-.406-.01.4.4,0,0,1-.158-.2,1.034,1.034,0,0,1,.208-.994,5.7,5.7,0,0,1,.781-.72,4.555,4.555,0,0,0,1.358-2.1c.5-.213,1.026-.5,1.533-.712a6.113,6.113,0,0,1,1.274-.428,6.017,6.017,0,0,1,1.249-.06c.569.01,1.14.02,1.709.032a4.106,4.106,0,0,1,1.5.215,1.4,1.4,0,0,1,.913,1.115.343.343,0,0,1-.111.314.4.4,0,0,1-.215.05c-.472.015-.673.134-1.145.151a1.932,1.932,0,0,0,1.071.712c.767.1,1.318-.695,1.672-1.385a.675.675,0,0,0,.7.626,1.424,1.424,0,0,0,.532-.208,10.458,10.458,0,0,1,4.958-1.281.534.534,0,0,1,.408-.589c.354-.069.67.235.841.552a2.962,2.962,0,0,0,.547.92c.27.237.791.225.9-.116s-.24-.611-.524-.806-.586-.552-.393-.839a25.435,25.435,0,0,1,4.412-.71,1.877,1.877,0,0,0,.742-.129.577.577,0,0,0,.346-.611,1.686,1.686,0,0,1-1.756-.663,15.092,15.092,0,0,1,4.6.106l1.289,1.093c-.245.255-.571.495-.393.749a.548.548,0,0,0,.453.156c.312.005.623.013.932.013a36.256,36.256,0,0,1,11.07,23.188,1.094,1.094,0,0,0-.93,1.212,4.809,4.809,0,0,0,.9,1.773,2.68,2.68,0,0,1,.153.289Z" transform="translate(1508.728 1045.425)" fill="#f5e8e5"/>
    <circle id="Ellipse_71" data-name="Ellipse 71" cx="3.521" cy="3.521" r="3.521" transform="translate(365.778 934.09)" fill="#dc7658"/>
    <path id="Path_151" data-name="Path 151" d="M-1011.037-144.837a6.561,6.561,0,0,0-9.278.115c-2.531,2.594-6.143,15.693-6.143,15.693s13.006-3.936,15.536-6.53A6.561,6.561,0,0,0-1011.037-144.837Zm-6.817,6.988a3.041,3.041,0,0,1-.053-4.3,3.04,3.04,0,0,1,4.3-.053,3.041,3.041,0,0,1,.053,4.3h0A3.041,3.041,0,0,1-1017.853-137.849Z" transform="translate(1396.339 1066.32)" fill="#fc9433"/>
  </g>
</svg>
