<svg xmlns="http://www.w3.org/2000/svg" xmlns:xlink="http://www.w3.org/1999/xlink" width="164" height="164" viewBox="0 0 164 164">
  <defs>
    <linearGradient id="linear-gradient" x1="0.5" x2="0.5" y2="1" gradientUnits="objectBoundingBox">
      <stop offset="0" stop-color="#fc9433" stop-opacity="0.09"/>
      <stop offset="1" stop-color="#432968" stop-opacity="0.09"/>
    </linearGradient>
    <linearGradient id="linear-gradient-2" x1="0.5" x2="0.5" y2="1" gradientUnits="objectBoundingBox">
      <stop offset="0" stop-color="#fc9433"/>
      <stop offset="1" stop-color="#221534"/>
    </linearGradient>
  </defs>
  <g id="Group_515" data-name="Group 515" transform="translate(-191 -1954)">
    <circle id="Ellipse_188" data-name="Ellipse 188" cx="82" cy="82" r="82" transform="translate(191 1954)" opacity="0.9" fill="url(#linear-gradient)"/>
    <g id="Group_496" data-name="Group 496" transform="translate(14 10)">
      <g id="Group_485" data-name="Group 485" transform="translate(215 1982)" opacity="0.89">
        <path id="Path_752" data-name="Path 752" d="M-2137.343-2245a11.463,11.463,0,0,1,1.3,1.255c1.047,1.376.854,3.1-.62,4.59,0-.836.017-1.5,0-2.153a2.128,2.128,0,0,0-2.107-2.174,2.089,2.089,0,0,0-2.1,2.152c-.025.65,0,1.3,0,1.977-1.5-.779-1.754-3.153-.5-4.584a12.257,12.257,0,0,1,1.2-1.062Z" transform="translate(2199.998 2245)" fill="url(#linear-gradient-2)"/>
        <path id="Path_753" data-name="Path 753" d="M-2244.263-2245c1.878,1.554,2.388,2.8,1.743,4.435a13.085,13.085,0,0,1-.962,1.6c-.251-2.031.521-4.492-2.247-4.451-2.658.041-1.914,2.437-2.105,4.106a3.181,3.181,0,0,1-.234-4.863c.3-.3.643-.556.966-.832Z" transform="translate(2283.559 2245)" fill="url(#linear-gradient-2)"/>
        <path id="Path_754" data-name="Path 754" d="M-2190.907-2245c1.467.925,2.392,2.145,1.963,3.974a9.07,9.07,0,0,1-.773,1.685l-.346-.092c0-.6.028-1.2-.006-1.79a2.231,2.231,0,0,0-2.184-2.259,2.249,2.249,0,0,0-2.146,2.3c-.024.573,0,1.148,0,1.768a3.116,3.116,0,0,1,0-4.956c.278-.228.584-.421.878-.63Z" transform="translate(2241.773 2245)" fill="url(#linear-gradient-2)"/>
        <path id="Path_755" data-name="Path 755" d="M-2407-1977.6c.921-.885,1.868-1.788,3.282-1.514a15.866,15.866,0,0,1,2.248.782l-.084.457c-.653,0-1.307-.023-1.959,0a2.1,2.1,0,0,0-2.183,2.08,2.148,2.148,0,0,0,2.255,2.141c.612.015,1.225,0,1.875,0-1.161,1.9-3.7,1.652-5.433-.46Z" transform="translate(2407 2037.2)" fill="url(#linear-gradient-2)"/>
        <path id="Path_756" data-name="Path 756" d="M-2407-2084.506c.887-.787,1.755-1.708,3.071-1.51a16.113,16.113,0,0,1,2.474.772l-.086.488c-.648,0-1.3-.012-1.945,0a2.116,2.116,0,0,0-2.21,2.159,2.1,2.1,0,0,0,2.214,2.046c.638.014,1.277,0,1.99,0a3.182,3.182,0,0,1-4.718.452c-.264-.232-.526-.467-.789-.7Z" transform="translate(2407 2120.745)" fill="url(#linear-gradient-2)"/>
        <path id="Path_757" data-name="Path 757" d="M-2297.891-2245c2.259,1.546,2.761,3.6,1.317,5.393a4.088,4.088,0,0,1-.438.356c0-.748.018-1.338,0-1.926a2.234,2.234,0,0,0-2.134-2.3,2.225,2.225,0,0,0-2.193,2.246c-.038.578-.006,1.16-.006,1.768a2.663,2.663,0,0,1-.934-3.562,10.548,10.548,0,0,1,1.774-1.971Z" transform="translate(2325.397 2245)" fill="url(#linear-gradient-2)"/>
        <path id="Path_758" data-name="Path 758" d="M-2407-2137.867c1-1.166,2.173-1.941,3.779-1.525a4.68,4.68,0,0,1,1.63.917c-1.78.28-3.972-.2-4.074,2.5-.053,1.406.9,1.844,3.979,2.1-.874,1.472-3.223,1.581-4.656.21-.233-.222-.438-.473-.657-.71Z" transform="translate(2407 2162.536)" fill="url(#linear-gradient-2)"/>
        <path id="Path_759" data-name="Path 759" d="M-2407-2031.06c1.663-1.869,3.482-2.2,5.114-.935a5.767,5.767,0,0,1,.458.495c-.79,0-1.381-.018-1.971,0a2.241,2.241,0,0,0-2.3,2.134,2.222,2.222,0,0,0,2.239,2.189c.6.036,1.2.006,1.9.006a3.215,3.215,0,0,1-4.767.292c-.233-.221-.45-.46-.675-.692Z" transform="translate(2407 2079.088)" fill="url(#linear-gradient-2)"/>
        <path id="Path_760" data-name="Path 760" d="M-2247.962-1864.028a13.567,13.567,0,0,1-1.057-2.533,2.852,2.852,0,0,1,1.248-2.781c0,.848-.014,1.5,0,2.158a2.042,2.042,0,0,0,2.113,2.126,2.049,2.049,0,0,0,2.088-2.152c.016-.638,0-1.276,0-1.99a3.113,3.113,0,0,1,.769,4.285c-.19.3-.388.592-.583.887Z" transform="translate(2283.547 1951.352)" fill="url(#linear-gradient-2)"/>
        <path id="Path_761" data-name="Path 761" d="M-2141.014-1863.892c-1.393-2.072-1.481-3.474-.3-4.931a3.5,3.5,0,0,1,.474-.345c0,.815-.021,1.472,0,2.127a2.019,2.019,0,0,0,2.122,2.118,2.066,2.066,0,0,0,2.091-2.166c.017-.615,0-1.23,0-1.87,1.723.917,1.69,3.279-.024,5.068Z" transform="translate(2199.958 1951.216)" fill="url(#linear-gradient-2)"/>
        <path id="Path_762" data-name="Path 762" d="M-2301.243-1863.706c-1.564-2-1.605-3.668.029-5.224,0,.732-.025,1.328.005,1.92a2.139,2.139,0,0,0,2.245,2.274,2.154,2.154,0,0,0,2.089-2.32c.019-.571,0-1.143,0-1.77,1.68,1.221,1.648,3.148,0,5.12Z" transform="translate(2325.257 1951.03)" fill="url(#linear-gradient-2)"/>
        <path id="Path_763" data-name="Path 763" d="M-2194.388-1863.863c-1.6-1.949-1.663-3.588,0-5.268,0,.755-.016,1.343,0,1.929a2.155,2.155,0,0,0,2.1,2.308,2.137,2.137,0,0,0,2.233-2.282c.027-.578,0-1.159,0-1.776,1.644,1.046,1.63,3.076.028,5.09Z" transform="translate(2241.761 1951.187)" fill="url(#linear-gradient-2)"/>
        <path id="Path_764" data-name="Path 764" d="M-2027.594-2079.654c-2.039.74-3.145.562-4.355-.844.8,0,1.466.019,2.131,0a2.038,2.038,0,0,0,2.071-2.061,2.041,2.041,0,0,0-2.1-2.139c-.645-.019-1.29,0-1.982,0,.841-1.371,2.148-1.609,4.235-.842Z" transform="translate(2113.826 2120.696)" fill="url(#linear-gradient-2)"/>
        <path id="Path_765" data-name="Path 765" d="M-2027.846-1972.75c-1.537.588-3,.706-4.426-.85.843,0,1.473.016,2.1,0a2.072,2.072,0,0,0,2.172-2.078,2.021,2.021,0,0,0-2.089-2.142c-.642-.031-1.287-.005-1.99-.005.841-1.372,2.32-1.624,4.232-.815Z" transform="translate(2114.079 2037.152)" fill="url(#linear-gradient-2)"/>
        <path id="Path_766" data-name="Path 766" d="M-2027.653-2026.267a3.17,3.17,0,0,1-4.245-.621c1.709-.224,4.128.438,4.033-2.339-.088-2.57-2.36-1.955-4.16-2.105,1.368-1.479,2.849-1.27,4.371-.83Z" transform="translate(2113.885 2078.88)" fill="url(#linear-gradient-2)"/>
        <path id="Path_767" data-name="Path 767" d="M-2027.746-2133.217a3.256,3.256,0,0,1-4.4-.654c.752,0,1.339.017,1.924,0a2.156,2.156,0,0,0,2.322-2.193,2.142,2.142,0,0,0-2.263-2.143c-.578-.03-1.159-.005-1.768-.005.765-1.319,2.459-1.574,4.183-.677Z" transform="translate(2113.979 2162.47)" fill="url(#linear-gradient-2)"/>
        <path id="Path_768" data-name="Path 768" d="M-2189.513-1906.655c0,1.454.01,2.831,0,4.208-.01,1.107-.449,1.656-1.288,1.659s-1.291-.548-1.3-1.64c-.01-1.378,0-2.756,0-4.118-1.712-.493-1.713-.493-1.713-2.314,0-1.2,0-2.4,0-3.6,0-.979.443-1.484,1.456-1.464s2.035-.008,3.052.008c1.134.018,1.468.354,1.486,1.526.02,1.307.01,2.615,0,3.923C-2187.829-1907.054-2188.012-1906.851-2189.513-1906.655Z" transform="translate(2240.358 1986.199)" fill="url(#linear-gradient-2)"/>
        <path id="Path_769" data-name="Path 769" d="M-2069.7-2135.984c1.495,0,2.87.007,4.246,0,.888-.006,1.616.212,1.69,1.256.062.863-.555,1.329-1.709,1.334-1.375.007-2.75,0-4.108,0-.3,1.589-.447,1.71-2,1.712-1.271,0-2.543.016-3.814,0-1.113-.018-1.479-.4-1.5-1.529-.015-1.017.007-2.034-.005-3.051-.011-.883.4-1.389,1.287-1.4,1.562-.022,3.124-.018,4.686,0C-2069.918-2137.656-2069.649-2137-2069.7-2135.984Z" transform="translate(2148.962 2161.112)" fill="url(#linear-gradient-2)"/>
        <path id="Path_770" data-name="Path 770" d="M-2069.666-2026.6c-.177,1.48-.38,1.675-1.712,1.685s-2.689.021-4.033,0c-1.168-.023-1.481-.352-1.5-1.51q-.023-1.471,0-2.943c.016-1.143.419-1.54,1.594-1.55,1.235-.01,2.47.012,3.705.017,1.568.006,1.724.133,1.994,1.717,1.394,0,2.8-.008,4.216,0,1.091.008,1.656.464,1.612,1.316-.051.982-.712,1.264-1.568,1.267C-2066.769-2026.6-2068.181-2026.6-2069.666-2026.6Z" transform="translate(2148.98 2077.66)" fill="url(#linear-gradient-2)"/>
        <path id="Path_771" data-name="Path 771" d="M-2296.336-1906.67c0,1.491-.007,2.9,0,4.317.006.878-.3,1.526-1.269,1.55-.98.025-1.31-.638-1.318-1.5-.013-1.446,0-2.892,0-4.319-1.539-.259-1.682-.427-1.687-1.917,0-1.307,0-2.615,0-3.922,0-.978.434-1.483,1.453-1.459s2.034-.009,3.05.007c1.092.018,1.474.411,1.488,1.54.016,1.307.008,2.615,0,3.922C-2294.625-1907.061-2294.817-1906.852-2296.336-1906.67Z" transform="translate(2323.839 1986.203)" fill="url(#linear-gradient-2)"/>
        <path id="Path_772" data-name="Path 772" d="M-2192.108-2228.15c0-1.4,0-2.747,0-4.09.006-1.177.452-1.766,1.31-1.751s1.273.6,1.279,1.8c.007,1.341,0,2.683,0,4,1.59.367,1.689.489,1.692,2.061,0,1.309.009,2.618,0,3.927-.008.866-.384,1.348-1.332,1.314-1.089-.04-2.183-.04-3.272,0-.993.037-1.388-.456-1.389-1.378q0-1.964,0-3.927C-2193.817-2227.679-2193.649-2227.88-2192.108-2228.15Z" transform="translate(2240.361 2236.395)" fill="url(#linear-gradient-2)"/>
        <path id="Path_773" data-name="Path 773" d="M-2391.12-2026.585c-1.4,0-2.739.007-4.081,0-1.18-.008-1.777-.453-1.778-1.3s.594-1.279,1.779-1.283c1.343,0,2.686,0,4.011,0,.4-1.627.5-1.708,2.146-1.718q1.909-.012,3.819-.014c.929,0,1.4.386,1.347,1.4-.061,1.088-.038,2.183,0,3.273q.046,1.307-1.208,1.324c-1.564.024-3.129.01-4.693,0C-2390.844-2024.909-2391.044-2025.681-2391.12-2026.585Z" transform="translate(2399.167 2077.643)" fill="url(#linear-gradient-2)"/>
        <path id="Path_774" data-name="Path 774" d="M-2298.933-2228.115c0-1.372,0-2.642,0-3.911,0-1.356.431-1.985,1.328-1.967.863.018,1.258.615,1.26,1.911s0,2.611,0,3.9c1.582.335,1.716.5,1.718,2.028,0,1.272-.007,2.545,0,3.817.007.974-.385,1.491-1.435,1.448-1.089-.045-2.182-.038-3.271,0-.824.026-1.254-.365-1.27-1.141-.034-1.6-.022-3.2-.007-4.8C-2300.6-2227.849-2299.873-2228.059-2298.933-2228.115Z" transform="translate(2323.846 2236.396)" fill="url(#linear-gradient-2)"/>
        <path id="Path_775" data-name="Path 775" d="M-2391.157-2133.374c-1.36,0-2.737-.014-4.115.005-.905.012-1.607-.24-1.691-1.261-.07-.847.569-1.321,1.733-1.33,1.342-.011,2.684,0,4.007,0,.514-1.681.531-1.694,2.276-1.695,1.236,0,2.472,0,3.708,0,.93,0,1.41.4,1.372,1.39-.042,1.089-.035,2.181,0,3.271.027.87-.383,1.309-1.213,1.323-1.562.027-3.127.039-4.688,0C-2390.664-2131.7-2390.857-2131.982-2391.157-2133.374Z" transform="translate(2399.158 2161.091)" fill="url(#linear-gradient-2)"/>
        <path id="Path_776" data-name="Path 776" d="M-2069.63-2082.338c1.464,0,2.874.017,4.282-.006.864-.014,1.533.183,1.578,1.2.038.867-.458,1.249-1.623,1.256-1.407.009-2.815,0-4.2,0-.314,1.731-.32,1.736-2.077,1.737-1.27,0-2.54-.022-3.809.007-.958.022-1.417-.419-1.422-1.358,0-1.088-.013-2.177,0-3.265a1.167,1.167,0,0,1,1.354-1.307c1.378.025,2.757,0,4.136.006C-2069.944-2084.064-2069.844-2083.973-2069.63-2082.338Z" transform="translate(2148.968 2119.206)" fill="url(#linear-gradient-2)"/>
        <path id="Path_777" data-name="Path 777" d="M-2242.875-1906.582c0,1.419-.017,2.863.006,4.307.014.9-.281,1.51-1.282,1.482-.945-.027-1.19-.642-1.178-1.48.02-1.445.005-2.89.005-4.312-1.733-.359-1.734-.359-1.735-2.072,0-1.306.014-2.612,0-3.918a1.165,1.165,0,0,1,1.324-1.336c1.052-.007,2.1.008,3.156,0,.982-.011,1.476.413,1.451,1.439-.031,1.269-.006,2.539-.006,3.809C-2241.139-1906.944-2241.14-1906.944-2242.875-1906.582Z" transform="translate(2281.979 1986.194)" fill="url(#linear-gradient-2)"/>
        <path id="Path_778" data-name="Path 778" d="M-2069.629-1972.923c-.228,1.639-.336,1.733-1.881,1.734-1.344,0-2.689-.012-4.033,0a1.184,1.184,0,0,1-1.354-1.323c-.015-1.09-.008-2.18,0-3.27,0-.871.378-1.345,1.321-1.323,1.38.032,2.761.005,4.141.007,1.535,0,1.567.031,1.823,1.665,1.306,0,2.638-.013,3.97.008.43.007,1.007-.045,1.253.2a1.74,1.74,0,0,1,.522,1.369,1.538,1.538,0,0,1-1.124.89C-2066.508-1972.859-2068.034-1972.923-2069.629-1972.923Z" transform="translate(2148.969 2035.586)" fill="url(#linear-gradient-2)"/>
        <path id="Path_779" data-name="Path 779" d="M-2135.9-1906.636c0,1.488-.018,2.9.006,4.314.015.89-.258,1.528-1.25,1.538-1.022.01-1.249-.7-1.251-1.545,0-1.413,0-2.827,0-4.216-1.674-.441-1.675-.441-1.675-2.117,0-1.308.022-2.617-.006-3.925-.02-.938.449-1.318,1.327-1.318,1.09,0,2.181-.008,3.271,0,.813.008,1.307.383,1.31,1.249,0,1.563.021,3.126-.006,4.688C-2134.192-1907-2134.421-1906.838-2135.9-1906.636Z" transform="translate(2198.349 1986.189)" fill="url(#linear-gradient-2)"/>
        <path id="Path_780" data-name="Path 780" d="M-2242.863-2228.113c1.668.342,1.736.423,1.737,2.008,0,1.343-.01,2.686,0,4.029.008.852-.358,1.275-1.243,1.255-1.161-.025-2.323-.02-3.484,0a1.027,1.027,0,0,1-1.2-1.183c.007-1.306,0-2.613,0-3.92,0-1.784,0-1.784,1.735-2.225,0-1.388.017-2.8-.006-4.21-.015-.89.291-1.551,1.251-1.54s1.225.708,1.211,1.58C-2242.879-2230.911-2242.863-2229.5-2242.863-2228.113Z" transform="translate(2281.966 2236.323)" fill="url(#linear-gradient-2)"/>
        <path id="Path_781" data-name="Path 781" d="M-2138.409-2228.2c0-1.35-.012-2.726,0-4.1.013-1.117.463-1.724,1.267-1.667,1.04.074,1.253.782,1.233,1.69-.032,1.376-.008,2.754-.008,4.11,1.668.346,1.731.427,1.732,2.122,0,1.309,0,2.617,0,3.926,0,.857-.4,1.262-1.27,1.243-1.126-.025-2.254-.03-3.38,0-.952.027-1.289-.429-1.266-1.333.034-1.308.009-2.617.01-3.926C-2140.085-2227.779-2140.085-2227.779-2138.409-2228.2Z" transform="translate(2198.365 2236.38)" fill="url(#linear-gradient-2)"/>
        <path id="Path_782" data-name="Path 782" d="M-2391.129-1975.44c.414-1.661.414-1.661,2.069-1.662,1.308,0,2.617.023,3.925-.009.908-.022,1.351.326,1.323,1.274-.034,1.162-.016,2.326-.006,3.489a1.011,1.011,0,0,1-1.137,1.146c-1.6.012-3.2,0-4.8,0-1.127,0-1.175-.868-1.32-1.73-1.434,0-2.848-.019-4.261.007-.893.016-1.546-.292-1.561-1.247-.015-.985.709-1.261,1.556-1.268C-2393.927-1975.449-2392.515-1975.44-2391.129-1975.44Z" transform="translate(2399.101 2035.595)" fill="url(#linear-gradient-2)"/>
        <path id="Path_783" data-name="Path 783" d="M-2391.118-2079.878c-1.39,0-2.8-.018-4.214.006-.885.015-1.558-.274-1.554-1.239s.689-1.24,1.568-1.225c1.411.024,2.823.006,4.211.006.37-1.692.418-1.729,2.128-1.729,1.308,0,2.616.012,3.923,0,.859-.011,1.27.357,1.25,1.243-.028,1.2-.022,2.4,0,3.6a.953.953,0,0,1-1.052,1.1c-1.67.016-3.342.018-5.011-.029C-2390.631-2078.178-2390.783-2078.441-2391.118-2079.878Z" transform="translate(2399.094 2119.196)" fill="url(#linear-gradient-2)"/>
        <path id="Path_784" data-name="Path 784" d="M-2271.629-2155.069a8.58,8.58,0,0,0-.073-1.412,2.8,2.8,0,0,0-2.933-2.5q-22.2-.011-44.409,0a2.79,2.79,0,0,0-2.931,2.951q-.016,11.129-.005,22.257,0,11.02,0,22.039a2.869,2.869,0,0,0,2.741,3.067,9.533,9.533,0,0,0,1.09.025q21.332,0,42.663,0c2.846,0,3.858-1.021,3.858-3.883Q-2271.626-2133.8-2271.629-2155.069Z" transform="translate(2340.543 2177.767)" fill="url(#linear-gradient-2)"/>
      </g>
      <path id="Path_749" data-name="Path 749" d="M-3817.584-7002.791c-.242,7.208.5,14.107,5.823,19.363,4.921,4.861,6.851,4.78,11.9.035,3.541-3.328,4.986-7.794,5.561-12.515.272-2.229.266-4.493.4-6.916-4.958.326-9.241-.384-11.8-4.962C-3809.665-7003.309-3811.293-7002.614-3817.584-7002.791Zm1.6,1.739c3.977-.062,7.469-.919,10.186-3.9,2.747,3.049,6.276,3.815,10.153,3.917-.035,6.3-.928,12.232-5.624,16.665-4.1,3.865-5.017,3.872-9.156-.068C-3815.052-6988.84-3815.934-6994.729-3815.987-7001.052Z" transform="translate(4063.463 9019.328)" fill="#fff"/>
      <path id="Path_785" data-name="Path 785" d="M1945.792,2083.583l1.482,2.038,7.409-5.372" transform="translate(-1692.535 -56.008)" fill="none" stroke="#fff" stroke-linecap="round" stroke-linejoin="round" stroke-width="2"/>
    </g>
  </g>
</svg>
