<svg xmlns="http://www.w3.org/2000/svg" width="22.823" height="18.537" viewBox="0 0 22.823 18.537">
  <path id="Icon_awesome-twitter" data-name="Icon awesome-twitter" d="M20.477,8c.014.2.014.406.014.608A13.218,13.218,0,0,1,7.183,21.918,13.219,13.219,0,0,1,0,19.818a9.676,9.676,0,0,0,1.13.058,9.368,9.368,0,0,0,5.807-2,4.686,4.686,0,0,1-4.374-3.244,5.9,5.9,0,0,0,.883.072,4.947,4.947,0,0,0,1.231-.159A4.678,4.678,0,0,1,.927,9.956V9.9a4.711,4.711,0,0,0,2.114.594A4.685,4.685,0,0,1,1.593,4.235,13.3,13.3,0,0,0,11.238,9.13a5.281,5.281,0,0,1-.116-1.072,4.682,4.682,0,0,1,8.1-3.2,9.209,9.209,0,0,0,2.969-1.13A4.665,4.665,0,0,1,20.13,6.306a9.377,9.377,0,0,0,2.694-.724A10.055,10.055,0,0,1,20.477,8Z" transform="translate(0 -3.381)" fill="#31183d"/>
</svg>
