<svg xmlns="http://www.w3.org/2000/svg" xmlns:xlink="http://www.w3.org/1999/xlink" width="50" height="50" viewBox="0 0 50 50">
  <defs>
    <linearGradient id="linear-gradient" x1="0.5" x2="0.5" y2="1" gradientUnits="objectBoundingBox">
      <stop offset="0" stop-color="#fc9433" stop-opacity="0.09"/>
      <stop offset="1" stop-color="#432968" stop-opacity="0.09"/>
    </linearGradient>
  </defs>
  <g id="Group_584" data-name="Group 584" transform="translate(-1042 -1168)">
    <circle id="Ellipse_227" data-name="Ellipse 227" cx="25" cy="25" r="25" transform="translate(1042 1168)" fill="url(#linear-gradient)"/>
    <path id="Icon_awesome-twitter" data-name="Icon awesome-twitter" d="M25.4,9.111c.018.251.018.5.018.754,0,7.67-5.838,16.508-16.509,16.508A16.4,16.4,0,0,1,0,23.769a12,12,0,0,0,1.4.072,11.62,11.62,0,0,0,7.2-2.479A5.812,5.812,0,0,1,3.18,17.338a7.317,7.317,0,0,0,1.1.09,6.137,6.137,0,0,0,1.527-.2A5.8,5.8,0,0,1,1.15,11.536v-.072a5.843,5.843,0,0,0,2.623.736,5.811,5.811,0,0,1-1.8-7.76A16.493,16.493,0,0,0,13.94,10.512,6.55,6.55,0,0,1,13.8,9.183a5.808,5.808,0,0,1,10.042-3.97,11.423,11.423,0,0,0,3.683-1.4,5.787,5.787,0,0,1-2.551,3.2,11.632,11.632,0,0,0,3.341-.9,12.473,12.473,0,0,1-2.91,3Z" transform="translate(1053 1178.619)" fill="#432968"/>
  </g>
</svg>
